<svg xmlns="http://www.w3.org/2000/svg" xmlns:xlink="http://www.w3.org/1999/xlink" width="108" height="108" viewBox="0 0 108 108">
  <defs>
    <filter id="Trazado_904820" x="0" y="0" width="108" height="108" filterUnits="userSpaceOnUse">
      <feOffset dy="3" input="SourceAlpha"/>
      <feGaussianBlur stdDeviation="3" result="blur"/>
      <feFlood flood-opacity="0.161"/>
      <feComposite operator="in" in2="blur"/>
      <feComposite in="SourceGraphic"/>
    </filter>
  </defs>
  <g id="Grupo_1177889" data-name="Grupo 1177889" transform="translate(-199 -453)">
    <g id="Grupo_1177882" data-name="Grupo 1177882">
      <g id="Grupo_1177750" data-name="Grupo 1177750" transform="translate(208 459)">
        <g id="Grupo_1173585" data-name="Grupo 1173585" transform="translate(0 0)">
          <g id="Grupo_1173428" data-name="Grupo 1173428">
            <g id="Grupo_1171958" data-name="Grupo 1171958">
              <g id="Grupo_1167341" data-name="Grupo 1167341">
                <g id="Grupo_1166792" data-name="Grupo 1166792">
                  <g transform="matrix(1, 0, 0, 1, -9, -6)" filter="url(#Trazado_904820)">
                    <g id="Trazado_904820-2" data-name="Trazado 904820" transform="translate(9 6)" fill="#fbf8f2">
                      <path d="M 44.99999618530273 88.49999237060547 C 39.12687301635742 88.49999237060547 33.43022155761719 87.35006713867188 28.06829643249512 85.08216857910156 C 22.88852119445801 82.89130401611328 18.23629570007324 79.75457763671875 14.24084663391113 75.75914001464844 C 10.24540901184082 71.76369476318359 7.108683586120605 67.11146545410156 4.917821407318115 61.93169403076172 C 2.649921178817749 56.56976699829102 1.499996185302734 50.87311553955078 1.499996185302734 44.99999237060547 C 1.499996185302734 39.12686920166016 2.649921178817749 33.43021774291992 4.917821407318115 28.06829261779785 C 7.108683586120605 22.88851737976074 10.24540901184082 18.23630523681641 14.24084663391113 14.24085521697998 C 18.23629570007324 10.24540519714355 22.88852119445801 7.108692169189453 28.06829643249512 4.917829990386963 C 33.43022155761719 2.649929761886597 39.12687301635742 1.500004887580872 44.99999618530273 1.500004887580872 C 50.87311935424805 1.500004887580872 56.56977081298828 2.649929761886597 61.93169784545898 4.917829990386963 C 67.11147308349609 7.108692169189453 71.76369476318359 10.24540519714355 75.75914764404297 14.24085521697998 C 79.75458526611328 18.23630523681641 82.89131164550781 22.88851737976074 85.08216857910156 28.06829261779785 C 87.35007476806641 33.43021774291992 88.5 39.12686920166016 88.5 44.99999237060547 C 88.5 50.87311553955078 87.35007476806641 56.56976699829102 85.08216857910156 61.93169403076172 C 82.89131164550781 67.11146545410156 79.75458526611328 71.76369476318359 75.75914764404297 75.75914001464844 C 71.76369476318359 79.75457763671875 67.11147308349609 82.89130401611328 61.93169784545898 85.08216857910156 C 56.56977081298828 87.35006713867188 50.87311935424805 88.49999237060547 44.99999618530273 88.49999237060547 Z" stroke="none"/>
                      <path d="M 44.99999618530273 2.999992370605469 C 39.32870864868164 2.999992370605469 33.82865142822266 4.11004638671875 28.65262603759766 6.299331665039062 C 23.65165710449219 8.414566040039062 19.15968322753906 11.44333648681641 15.301513671875 15.30150604248047 C 11.44333648681641 19.15967559814453 8.414566040039062 23.65164947509766 6.299339294433594 28.65262222290039 C 4.110054016113281 33.82864761352539 2.999992370605469 39.32870483398438 2.999992370605469 44.99999237060547 C 2.999992370605469 50.67127990722656 4.110054016113281 56.17132186889648 6.299339294433594 61.34736633300781 C 8.414566040039062 66.34833526611328 11.44333648681641 70.84029388427734 15.301513671875 74.69846343994141 C 19.15968322753906 78.55663299560547 23.65165710449219 81.58540344238281 28.65262603759766 83.70063781738281 C 33.82865142822266 85.88992309570312 39.32870864868164 86.99997711181641 44.99999618530273 86.99997711181641 C 50.67128372192383 86.99997711181641 56.17134094238281 85.88992309570312 61.34736633300781 83.70063781738281 C 66.34834289550781 81.58540344238281 70.84030914306641 78.55663299560547 74.69847869873047 74.69846343994141 C 78.55665588378906 70.84029388427734 81.58542633056641 66.34833526611328 83.70065307617188 61.34736633300781 C 85.88993835449219 56.17132186889648 87 50.67127990722656 87 44.99999237060547 C 87 39.32870483398438 85.88993835449219 33.82864761352539 83.70065307617188 28.65262222290039 C 81.58542633056641 23.65164947509766 78.55665588378906 19.15967559814453 74.69847869873047 15.30150604248047 C 70.84030914306641 11.44333648681641 66.34834289550781 8.414566040039062 61.34736633300781 6.299331665039062 C 56.17134094238281 4.11004638671875 50.67128372192383 2.999992370605469 44.99999618530273 2.999992370605469 M 44.99999618530273 -7.62939453125e-06 C 69.85281372070312 -7.62939453125e-06 90 20.14717864990234 90 44.99999237060547 C 90 69.85279083251953 69.85281372070312 89.99997711181641 44.99999618530273 89.99997711181641 C 20.14717864990234 89.99997711181641 -7.62939453125e-06 69.85279083251953 -7.62939453125e-06 44.99999237060547 C -7.62939453125e-06 20.14717864990234 20.14717864990234 -7.62939453125e-06 44.99999618530273 -7.62939453125e-06 Z" stroke="none" fill="#7b6a49"/>
                    </g>
                  </g>
                </g>
              </g>
            </g>
          </g>
        </g>
      </g>
    </g>
    <g id="orientation_7656469" transform="translate(219.36 468.143)">
      <path id="Trazado_1037631" data-name="Trazado 1037631" d="M293.132,308.7H304.1v-5.463c0-4.723-4.535-7.614-8.3-9.156l-2.049,6.9Z" transform="translate(-255.587 -253.72)" fill="#004281" fill-rule="evenodd"/>
      <path id="Trazado_1037632" data-name="Trazado 1037632" d="M145.019,170.716c-1.423-.12-3.468-1.273-3.468-2.66l0-.544a1.614,1.614,0,0,1,1.593-1.612h1.3c1.652,1.75,1.259,3.061.569,4.816Z" transform="translate(-119.95 -139.02)" fill="#ffb09e" fill-rule="evenodd"/>
      <path id="Trazado_1037633" data-name="Trazado 1037633" d="M257.557,301.83l2.627,6.87H261.3l3.447-4.571-1.308-2.75,1.787-1.823-1.259-5.475-3.544,4.556Z" transform="translate(-223.754 -253.719)" fill="#3c87d0" fill-rule="evenodd"/>
      <path id="Trazado_1037634" data-name="Trazado 1037634" d="M125.553,308.7l-.795-7.615-1.872-7c-3.767,1.542-8.305,4.433-8.305,9.156V308.7Z" transform="translate(-95.817 -253.72)" fill="#004281" fill-rule="evenodd"/>
      <path id="Trazado_1037635" data-name="Trazado 1037635" d="M186.585,308.7l2.63-6.87-2.865-3.192-3.544-4.556-1.262,5.475,1.79,1.823-1.308,2.75,3.447,4.571Z" transform="translate(-155.737 -253.719)" fill="#3c87d0" fill-rule="evenodd"/>
      <path id="Trazado_1037636" data-name="Trazado 1037636" d="M260.029,285.542l-3.242,1.372-.777,2.241,3.027,1.84.672.407a.431.431,0,0,0,.607-.184l2.265-4.778c-.924-.377-1.8-.676-2.552-.9Z" transform="translate(-222.369 -246.077)" fill="#f2fbff" fill-rule="evenodd"/>
      <path id="Trazado_1037637" data-name="Trazado 1037637" d="M277.124,285.542l-2.009,1.808a26.558,26.558,0,0,1,3.509,1.311l1.053-2.221c-.924-.377-1.8-.676-2.552-.9Z" transform="translate(-239.465 -246.077)" fill="#dff6fd" fill-rule="evenodd"/>
      <path id="Trazado_1037638" data-name="Trazado 1037638" d="M233.283,315.739l-3.028-2.546-3.027,2.546,1.813,3.192h2.429Z" transform="translate(-196.615 -270.82)" fill="#fd4755" fill-rule="evenodd"/>
      <path id="Trazado_1037639" data-name="Trazado 1037639" d="M200.109,289.156l-1.215-2.054-2.8-1.56c-.754.222-1.628.521-2.552.9l2.265,4.778a.431.431,0,0,0,.607.184l.672-.407Z" transform="translate(-166.469 -246.077)" fill="#f2fbff" fill-rule="evenodd"/>
      <path id="Trazado_1037640" data-name="Trazado 1037640" d="M217.8,245.1v4.252l4.019,3.614,4.019-3.614v-4.255a9.659,9.659,0,0,1-1.769.878,5.822,5.822,0,0,1-4.506,0,9.489,9.489,0,0,1-1.763-.875Z" transform="translate(-188.18 -209.885)" fill="#ffcebf" fill-rule="evenodd"/>
      <path id="Trazado_1037641" data-name="Trazado 1037641" d="M223.831,249.911v1.246l2.009-1.808v-4.255a9.66,9.66,0,0,1-1.769.878c-.082.032-.161.058-.241.088a6.193,6.193,0,0,1-2.012.366,6.407,6.407,0,0,1-2.253-.454,9.507,9.507,0,0,1-1.763-.875v3.04a9.522,9.522,0,0,0,1.763.878,6.4,6.4,0,0,0,2.253.451,5.608,5.608,0,0,0,1.4-.184c.722-.181.613-.085.613.629Z" transform="translate(-188.18 -209.885)" fill="#ffb09e" fill-rule="evenodd"/>
      <path id="Trazado_1037642" data-name="Trazado 1037642" d="M187.877,119.217a6.887,6.887,0,0,0,.563-2.6l0-2.221v-.088c-.692.085-1.948-5.9-8.6-5.911-7.217-.012-8.642,6-9.4,5.911v2.309a6.848,6.848,0,0,0,.525,2.5,11.555,11.555,0,0,0,4.456,5.255,9.519,9.519,0,0,0,1.763.878,5.857,5.857,0,0,0,4.506,0,11.36,11.36,0,0,0,6.181-6.036Z" transform="translate(-145.806 -87.568)" fill="#ffdfcf" fill-rule="evenodd"/>
      <path id="Trazado_1037643" data-name="Trazado 1037643" d="M173.63,68.16c.252-1.317,3.03-1.966,5.811-1.952,2.784-.015,5.562.635,5.814,1.952.381,1.99,1.364,2.446,3.186,2.218V67.139c0-5.94-5.3-7.745-9-7.836-2.523.061-4.691,1.062-5.078,2.844-2.2.553-3.919,1.706-3.919,5.349v2.882c1.822.228,2.8-.228,3.186-2.218Z" transform="translate(-145.804 -43.636)" fill="#004281" fill-rule="evenodd"/>
      <path id="Trazado_1037644" data-name="Trazado 1037644" d="M259.162,59.413c3.2.731,6.5,2.844,6.5,7.526v3.239a1.242,1.242,0,0,0,2.165.3V67.237c0-5.764-5-7.637-8.666-7.824Z" transform="translate(-225.19 -43.734)" fill="#00366d" fill-rule="evenodd"/>
      <path id="Trazado_1037645" data-name="Trazado 1037645" d="M144.449,165.9h-1.3a1.614,1.614,0,0,0-1.593,1.612l0,.544c0,1.387,2.045,2.54,3.468,2.66" transform="translate(-119.95 -139.019)" fill="none" stroke="#000" stroke-linecap="round" stroke-linejoin="round" stroke-miterlimit="10" stroke-width="1.5"/>
      <path id="Trazado_1037646" data-name="Trazado 1037646" d="M331.095,170.246c1.423-.123,3.468-1.276,3.465-2.663v-.544a1.619,1.619,0,0,0-1.6-1.612h-1.3c-1.649,1.75-1.258,3.06-.566,4.819Z" transform="translate(-289.023 -138.597)" fill="#ffb09e" fill-rule="evenodd"/>
      <path id="Trazado_1037647" data-name="Trazado 1037647" d="M336.731,165.426h1.3a1.619,1.619,0,0,1,1.6,1.612v.544c0,1.387-2.042,2.54-3.465,2.663" transform="translate(-294.093 -138.596)" fill="none" stroke="#000" stroke-linecap="round" stroke-linejoin="round" stroke-miterlimit="10" stroke-width="1.5"/>
      <path id="Trazado_1037648" data-name="Trazado 1037648" d="M233.467,367.743h-2.429l-1.578,6.87h5.583Z" transform="translate(-198.612 -319.632)" fill="#e94444" fill-rule="evenodd"/>
      <line id="Línea_833" data-name="Línea 833" x1="1.578" y2="6.87" transform="translate(30.848 48.111)" fill="none" stroke="#000" stroke-linecap="round" stroke-linejoin="round" stroke-miterlimit="10" stroke-width="1.5"/>
      <path id="Trazado_1037649" data-name="Trazado 1037649" d="M182.807,294.082l-1.262,5.475,1.79,1.823-1.308,2.75,3.447,4.571" transform="translate(-155.737 -253.719)" fill="none" stroke="#000" stroke-linecap="round" stroke-linejoin="round" stroke-miterlimit="10" stroke-width="1.5"/>
      <path id="Trazado_1037650" data-name="Trazado 1037650" d="M309.521,294.082l-1.05,2.221c.59.269,1.188.574,1.775.91Z" transform="translate(-269.312 -253.719)" fill="#4f66d0" fill-rule="evenodd"/>
      <path id="Trazado_1037651" data-name="Trazado 1037651" d="M318.455,294.082l.725,3.131c2.928,1.688,4.94,3.669,4.94,7.277V308.7h2.64v-5.463c0-4.723-4.535-7.614-8.305-9.156Z" transform="translate(-278.246 -253.719)" fill="#00366d" fill-rule="evenodd"/>
      <path id="Trazado_1037652" data-name="Trazado 1037652" d="M295.8,294.082l1.261,5.475-1.79,1.823,1.308,2.75-3.447,4.571" transform="translate(-255.587 -253.719)" fill="none" stroke="#000" stroke-linecap="round" stroke-linejoin="round" stroke-miterlimit="10" stroke-width="1.5"/>
      <line id="Línea_834" data-name="Línea 834" y1="2.224" transform="translate(43.506 52.758)" fill="none" stroke="#000" stroke-linecap="round" stroke-linejoin="round" stroke-miterlimit="10" stroke-width="1.5"/>
      <line id="Línea_835" data-name="Línea 835" y1="2.224" transform="translate(23.775 52.758)" fill="none" stroke="#000" stroke-linecap="round" stroke-linejoin="round" stroke-miterlimit="10" stroke-width="1.5"/>
      <line id="Línea_836" data-name="Línea 836" x2="1.575" y2="6.87" transform="translate(34.855 48.111)" fill="none" stroke="#000" stroke-linecap="round" stroke-linejoin="round" stroke-miterlimit="10" stroke-width="1.5"/>
      <path id="Trazado_1037653" data-name="Trazado 1037653" d="M260.029,285.542l-4.019,3.614,3.7,2.247a.431.431,0,0,0,.607-.184l2.262-4.778" transform="translate(-222.369 -246.077)" fill="none" stroke="#000" stroke-linecap="round" stroke-linejoin="round" stroke-miterlimit="10" stroke-width="1.5"/>
      <path id="Trazado_1037654" data-name="Trazado 1037654" d="M196.09,285.542l4.019,3.614-3.7,2.247a.431.431,0,0,1-.607-.184l-2.265-4.778" transform="translate(-166.469 -246.077)" fill="none" stroke="#000" stroke-linecap="round" stroke-linejoin="round" stroke-miterlimit="10" stroke-width="1.5"/>
      <path id="Trazado_1037655" data-name="Trazado 1037655" d="M227.228,337.394l1.813,3.192h2.429l1.813-3.192" transform="translate(-196.615 -292.475)" fill="none" stroke="#000" stroke-linecap="round" stroke-linejoin="round" stroke-miterlimit="10" stroke-width="1.5"/>
      <path id="Trazado_1037656" data-name="Trazado 1037656" d="M259.162,59.413c3.2.731,6.5,2.844,6.5,7.526v3.239a3.123,3.123,0,0,0,2.165.3V67.237c0-5.764-5-7.637-8.666-7.824Z" transform="translate(-225.19 -43.734)" fill="#00366d" fill-rule="evenodd"/>
      <path id="Trazado_1037657" data-name="Trazado 1037657" d="M247.195,161.754l0,2.309c0,2.411-1.7,5.282-4.11,7.148a10.047,10.047,0,0,1-2.634,1.486,6.865,6.865,0,0,1-1.925.442,6.009,6.009,0,0,0,1.836.307,6.4,6.4,0,0,0,2.253-.451,9.489,9.489,0,0,0,1.769-.881h0a11.6,11.6,0,0,0,4.412-5.156,6.886,6.886,0,0,0,.563-2.6l0-2.221v-.088a3.122,3.122,0,0,1-2.165-.3Z" transform="translate(-206.722 -135.31)" fill="#ffcebf" fill-rule="evenodd"/>
      <path id="Trazado_1037658" data-name="Trazado 1037658" d="M185.185,60.932a11.394,11.394,0,0,0-5.744-1.63c-2.523.061-4.691,1.062-5.078,2.844-2.2.553-3.919,1.706-3.919,5.349v2.882c1.822.228,2.8-.228,3.186-2.218.252-1.317,3.03-1.966,5.811-1.952,2.784-.015,5.562.635,5.814,1.952.381,1.99,1.364,2.446,3.186,2.218V67.138a7.573,7.573,0,0,0-.86-3.669" transform="translate(-145.804 -43.635)" fill="none" stroke="#000" stroke-linecap="round" stroke-linejoin="round" stroke-miterlimit="10" stroke-width="1.5"/>
      <path id="Trazado_1037659" data-name="Trazado 1037659" d="M188.444,164.592l0,2.309c0,3.222-3.033,7.262-6.744,8.635a5.858,5.858,0,0,1-4.506,0c-3.711-1.372-6.744-5.413-6.744-8.635v-2.309" transform="translate(-145.806 -137.85)" fill="none" stroke="#000" stroke-linecap="round" stroke-linejoin="round" stroke-miterlimit="10" stroke-width="1.5"/>
      <path id="Trazado_1037663" data-name="Trazado 1037663" d="M30.847,397.716l-2.558,2.549V398.5a1.7,1.7,0,0,0-3.4,0v5.864a1.7,1.7,0,0,0,1.7,1.7h5.876a1.7,1.7,0,1,0,0-3.394H30.695l3-2.993,1.939-1.934A1.7,1.7,0,0,0,33.7,395.01a1.639,1.639,0,0,0-.466.328Z" transform="translate(-15.559 -343.882)" fill="#9be69d" fill-rule="evenodd"/>
      <path id="Trazado_1037664" data-name="Trazado 1037664" d="M385.674,402.664H383.9a1.7,1.7,0,1,0,0,3.394h5.879a1.7,1.7,0,0,0,1.7-1.7V398.5a1.7,1.7,0,0,0-3.4,0v1.767l-2.555-2.549-2.385-2.379a1.646,1.646,0,0,0-.466-.328,1.7,1.7,0,0,0-1.939,2.727l1.939,1.934Z" transform="translate(-333.531 -343.882)" fill="#9be69d" fill-rule="evenodd"/>
      <path id="Trazado_1037665" data-name="Trazado 1037665" d="M371.8,218.4h3.614l-1.253,1.249a1.7,1.7,0,0,0,2.406,2.4l4.157-4.146a1.7,1.7,0,0,0,0-2.4l-4.157-4.146a1.7,1.7,0,0,0-2.406,2.4L375.418,215h-6.988a1.7,1.7,0,1,0,0,3.391H371.8Z" transform="translate(-321.445 -179.25)" fill="#ffd15b" fill-rule="evenodd"/>
      <path id="Trazado_1037666" data-name="Trazado 1037666" d="M383.138,21.256l2.385-2.376,2.555-2.552V18.1a1.7,1.7,0,0,0,3.4,0V12.235a1.7,1.7,0,0,0-1.7-1.7H383.9a1.7,1.7,0,1,0,0,3.391h1.772l-4.94,4.927a1.7,1.7,0,0,0,2.406,2.4Z" transform="translate(-333.53 0)" fill="#fd4755" fill-rule="evenodd"/>
      <path id="Trazado_1037667" data-name="Trazado 1037667" d="M30.695,13.929h1.772a1.7,1.7,0,1,0,0-3.391H26.59a1.7,1.7,0,0,0-1.7,1.7V18.1a1.7,1.7,0,0,0,3.4,0V16.329l2.558,2.552,2.385,2.376a1.7,1.7,0,0,0,2.406-2.4Z" transform="translate(-15.559)" fill="#fd4755" fill-rule="evenodd"/>
      <path id="Trazado_1037668" data-name="Trazado 1037668" d="M20.293,215.005H13.308l1.253-1.252a1.7,1.7,0,0,0-2.406-2.4L8,215.5a1.7,1.7,0,0,0,0,2.4l4.157,4.146a1.7,1.7,0,0,0,2.406-2.4L13.308,218.4h6.985a1.7,1.7,0,1,0,0-3.391Z" transform="translate(0 -179.251)" fill="#ffd15b" fill-rule="evenodd"/>
      <path id="Trazado_1037669" data-name="Trazado 1037669" d="M371.8,218.4h3.614l-1.253,1.249a1.7,1.7,0,0,0,2.406,2.4l4.157-4.146a1.7,1.7,0,0,0,0-2.4l-4.157-4.146a1.7,1.7,0,0,0-2.406,2.4L375.418,215h-6.988a1.7,1.7,0,1,0,0,3.391H371.8Z" transform="translate(-321.445 -179.25)" fill="none" stroke="#000" stroke-linecap="round" stroke-linejoin="round" stroke-miterlimit="10" stroke-width="1.5"/>
      <path id="Trazado_1037670" data-name="Trazado 1037670" d="M16.922,218.4H13.308l1.253,1.249a1.7,1.7,0,1,1-2.406,2.4L8,217.9a1.7,1.7,0,0,1,0-2.4l4.157-4.146a1.7,1.7,0,0,1,2.406,2.4L13.308,215h6.985a1.7,1.7,0,1,1,0,3.391Z" transform="translate(0 -179.25)" fill="none" stroke="#000" stroke-linecap="round" stroke-linejoin="round" stroke-miterlimit="10" stroke-width="1.5"/>
      <path id="Trazado_1037671" data-name="Trazado 1037671" d="M30.847,18.88l-2.558-2.552V18.1a1.7,1.7,0,0,1-3.4,0V12.232a1.7,1.7,0,0,1,1.7-1.694h5.876a1.7,1.7,0,1,1,0,3.391H30.695l4.943,4.927a1.7,1.7,0,0,1-2.406,2.4Z" transform="translate(-15.559)" fill="none" stroke="#000" stroke-linecap="round" stroke-linejoin="round" stroke-miterlimit="10" stroke-width="1.5"/>
      <path id="Trazado_1037672" data-name="Trazado 1037672" d="M385.523,397.716l2.555,2.549V398.5a1.7,1.7,0,0,1,3.4,0v5.864a1.7,1.7,0,0,1-1.7,1.7H383.9a1.7,1.7,0,1,1,0-3.394h1.772l-4.94-4.927a1.7,1.7,0,0,1,2.405-2.4Z" transform="translate(-333.53 -343.882)" fill="none" stroke="#000" stroke-linecap="round" stroke-linejoin="round" stroke-miterlimit="10" stroke-width="1.5"/>
      <path id="Trazado_1037673" data-name="Trazado 1037673" d="M305.073,274.415V272.97c0-5.878-7.026-8.921-10.854-10.054v-2.66" transform="translate(-256.559 -223.451)" fill="none" stroke="#000" stroke-linecap="round" stroke-linejoin="round" stroke-miterlimit="10" stroke-width="1.5"/>
      <path id="Trazado_1037674" data-name="Trazado 1037674" d="M30.847,397.716l-2.558,2.549V398.5a1.7,1.7,0,0,0-3.4,0v5.864a1.7,1.7,0,0,0,1.7,1.7h5.876a1.7,1.7,0,1,0,0-3.394H30.695l4.943-4.927a1.7,1.7,0,0,0-2.406-2.4Z" transform="translate(-15.559 -343.882)" fill="none" stroke="#000" stroke-linecap="round" stroke-linejoin="round" stroke-miterlimit="10" stroke-width="1.5"/>
      <path id="Trazado_1037675" data-name="Trazado 1037675" d="M114.582,274.441V273a7.26,7.26,0,0,1,1.473-4.351m2.652-2.548a23.361,23.361,0,0,1,6.733-3.154v-2.657" transform="translate(-95.818 -223.477)" fill="none" stroke="#000" stroke-linecap="round" stroke-linejoin="round" stroke-miterlimit="10" stroke-width="1.5"/>
      <line id="Línea_839" data-name="Línea 839" x2="29.383" transform="translate(18.949 54.982)" fill="none" stroke="#000" stroke-linecap="round" stroke-linejoin="round" stroke-miterlimit="10" stroke-width="1.5"/>
      <path id="Trazado_1037676" data-name="Trazado 1037676" d="M383.138,21.256l2.385-2.376,2.555-2.552V18.1a1.7,1.7,0,0,0,3.4,0V12.235a1.7,1.7,0,0,0-1.7-1.7H383.9a1.7,1.7,0,1,0,0,3.391h1.772l-4.94,4.927a1.7,1.7,0,0,0,2.406,2.4Z" transform="translate(-333.53 0)" fill="none" stroke="#000" stroke-linecap="round" stroke-linejoin="round" stroke-miterlimit="10" stroke-width="1.5"/>
    </g>
  </g>
</svg>
