<svg xmlns="http://www.w3.org/2000/svg" xmlns:xlink="http://www.w3.org/1999/xlink" width="113" height="113" viewBox="0 0 113 113">
  <defs>
    <filter id="Trazado_982547" x="0" y="0" width="113" height="113" filterUnits="userSpaceOnUse">
      <feOffset dy="3" input="SourceAlpha"/>
      <feGaussianBlur stdDeviation="3" result="blur"/>
      <feFlood flood-opacity="0.161"/>
      <feComposite operator="in" in2="blur"/>
      <feComposite in="SourceGraphic"/>
    </filter>
  </defs>
  <g id="Grupo_1177884" data-name="Grupo 1177884" transform="translate(-587 -2824.702)">
    <g id="Grupo_1177756" data-name="Grupo 1177756" transform="translate(596 2830.702)">
      <g id="Grupo_1173868" data-name="Grupo 1173868">
        <g id="Grupo_1172010" data-name="Grupo 1172010">
          <g id="Grupo_1171046" data-name="Grupo 1171046">
            <g id="Grupo_1148525" data-name="Grupo 1148525">
              <g transform="matrix(1, 0, 0, 1, -9, -6)" filter="url(#Trazado_982547)">
                <g id="Trazado_982547-2" data-name="Trazado 982547" transform="translate(9 6)" fill="#fbecfd">
                  <path d="M 47.5 93.5 C 41.28937149047852 93.5 35.26533508300781 92.28397369384766 29.59518623352051 89.88570404052734 C 24.11771965026855 87.56893157958984 19.19813346862793 84.25196075439453 14.97309303283691 80.02691650390625 C 10.74804019927979 75.80186462402344 7.431066513061523 70.88229370117188 5.114293098449707 65.40481567382812 C 2.716026782989502 59.73468017578125 1.5 53.71062850952148 1.5 47.5 C 1.5 41.28937149047852 2.716026782989502 35.26533508300781 5.114293098449707 29.59518623352051 C 7.431066513061523 24.11771965026855 10.74804019927979 19.19813346862793 14.97309303283691 14.97309303283691 C 19.19813346862793 10.74804019927979 24.11771965026855 7.431066513061523 29.59518623352051 5.114293098449707 C 35.26533508300781 2.716026782989502 41.28937149047852 1.5 47.5 1.5 C 53.71062850952148 1.5 59.73468017578125 2.716026782989502 65.40481567382812 5.114293098449707 C 70.88229370117188 7.431066513061523 75.80186462402344 10.74804019927979 80.02691650390625 14.97309303283691 C 84.25196075439453 19.19813346862793 87.56893157958984 24.11771965026855 89.88570404052734 29.59518623352051 C 92.28397369384766 35.26533508300781 93.5 41.28937149047852 93.5 47.5 C 93.5 53.71062850952148 92.28397369384766 59.73468017578125 89.88570404052734 65.40481567382812 C 87.56893157958984 70.88229370117188 84.25196075439453 75.80186462402344 80.02691650390625 80.02691650390625 C 75.80186462402344 84.25196075439453 70.88229370117188 87.56893157958984 65.40481567382812 89.88570404052734 C 59.73468017578125 92.28397369384766 53.71062850952148 93.5 47.5 93.5 Z" stroke="none"/>
                  <path d="M 47.5 3 C 41.49121475219727 3 35.66376876831055 4.176155090332031 30.17950439453125 6.495796203613281 C 24.88084411621094 8.736953735351562 20.12152099609375 11.94598388671875 16.03375244140625 16.03375244140625 C 11.94598388671875 20.12152099609375 8.736953735351562 24.88084411621094 6.495796203613281 30.17950439453125 C 4.176155090332031 35.66376876831055 3 41.49121475219727 3 47.5 C 3 53.50878524780273 4.176155090332031 59.33623123168945 6.495796203613281 64.82049560546875 C 8.736953735351562 70.11915588378906 11.94598388671875 74.87847900390625 16.03375244140625 78.96624755859375 C 20.12152099609375 83.05401611328125 24.88084411621094 86.26304626464844 30.17950439453125 88.50419616699219 C 35.66376876831055 90.82384490966797 41.49121475219727 92 47.5 92 C 53.50878524780273 92 59.33623123168945 90.82384490966797 64.82049560546875 88.50419616699219 C 70.11915588378906 86.26304626464844 74.87847900390625 83.05401611328125 78.96624755859375 78.96624755859375 C 83.05401611328125 74.87847900390625 86.26304626464844 70.11915588378906 88.50419616699219 64.82049560546875 C 90.82384490966797 59.33623123168945 92 53.50878524780273 92 47.5 C 92 41.49121475219727 90.82384490966797 35.66376876831055 88.50419616699219 30.17950439453125 C 86.26304626464844 24.88084411621094 83.05401611328125 20.12152099609375 78.96624755859375 16.03375244140625 C 74.87847900390625 11.94598388671875 70.11915588378906 8.736953735351562 64.82049560546875 6.495796203613281 C 59.33623123168945 4.176155090332031 53.50878524780273 3 47.5 3 M 47.5 0 C 73.7335205078125 0 95 21.2664794921875 95 47.5 C 95 73.7335205078125 73.7335205078125 95 47.5 95 C 21.2664794921875 95 0 73.7335205078125 0 47.5 C 0 21.2664794921875 21.2664794921875 0 47.5 0 Z" stroke="none" fill="#da53f2"/>
                </g>
              </g>
            </g>
          </g>
        </g>
      </g>
    </g>
    <g id="clearance_12512696" transform="translate(573.126 2802.842)">
      <path id="Trazado_1037692" data-name="Trazado 1037692" d="M263.39,112.631H244.619l-9.323,9.323v36.257H263.39a1.581,1.581,0,0,0,1.578-1.578V114.209A1.581,1.581,0,0,0,263.39,112.631Z" transform="translate(-167.433 -56.053)" fill="#e6e6e6" fill-rule="evenodd"/>
      <path id="Trazado_1037693" data-name="Trazado 1037693" d="M244.619,112.631v7.745a1.581,1.581,0,0,1-1.578,1.578H235.3Z" transform="translate(-167.433 -56.053)" fill="#ada0ad" fill-rule="evenodd"/>
      <path id="Trazado_1037694" data-name="Trazado 1037694" d="M157.619,368.906H144.005V356.7h15.127v11.009A1.387,1.387,0,0,1,157.619,368.906Z" transform="translate(-88.624 -266.748)" fill="#c89d8d" fill-rule="evenodd"/>
      <path id="Trazado_1037695" data-name="Trazado 1037695" d="M191.779,356.7H195.9v4.912h-4.125Z" transform="translate(-129.866 -266.749)" fill="#ffe177" fill-rule="evenodd"/>
      <path id="Trazado_1037696" data-name="Trazado 1037696" d="M63.543,280.7H76.607V267.4H65.056a1.387,1.387,0,0,0-1.513,1.2v12.1Z" transform="translate(-19.163 -189.657)" fill="#c89d8d" fill-rule="evenodd"/>
      <path id="Trazado_1037697" data-name="Trazado 1037697" d="M96.231,267.4h4.125v4.912H96.231Z" transform="translate(-47.382 -189.658)" fill="#ffe177" fill-rule="evenodd"/>
      <path id="Trazado_1037698" data-name="Trazado 1037698" d="M65.056,368.906H76.607V356.7H63.543v11.009A1.387,1.387,0,0,0,65.056,368.906Z" transform="translate(-19.163 -266.748)" fill="#f0b16e" fill-rule="evenodd"/>
      <path id="Trazado_1037699" data-name="Trazado 1037699" d="M96.231,356.7h4.125v4.912H96.231Z" transform="translate(-47.382 -266.749)" fill="#ffe177" fill-rule="evenodd"/>
      <circle id="Elipse_12534" data-name="Elipse 12534" cx="2.25" cy="2.25" r="2.25" transform="matrix(0.16, -0.987, 0.987, 0.16, 50.488, 62.871)" fill="#f0b16e"/>
      <path id="Trazado_1037700" data-name="Trazado 1037700" d="M93,92.334a.864.864,0,0,1-.867.867H82.763a.867.867,0,0,1,0-1.734h9.368A.869.869,0,0,1,93,92.334ZM82.173,88.692a.864.864,0,1,0-1.326-1.107l-3.81,4.545-1.923-2.265a.865.865,0,0,0-1.216-.1.874.874,0,0,0-.1,1.224l2.586,3.045a.871.871,0,0,0,1.326,0ZM93,82.624a.869.869,0,0,1-.867.867H82.763a.867.867,0,0,1,0-1.734h9.368A.864.864,0,0,1,93,82.624ZM73.8,81.269l2.586,3.052a.871.871,0,0,0,1.326,0l4.465-5.339a.866.866,0,1,0-1.326-1.114l-3.81,4.553-1.923-2.265A.863.863,0,1,0,73.8,81.269ZM93,72.914a.863.863,0,0,1-.867.859H82.763a.863.863,0,0,1,0-1.726h9.368A.864.864,0,0,1,93,72.914ZM73.8,71.559l2.586,3.052a.865.865,0,0,0,1.326-.007l4.465-5.339a.864.864,0,0,0-.1-1.216.874.874,0,0,0-1.224.109l-3.81,4.553-1.923-2.265A.863.863,0,1,0,73.8,71.559ZM53.073,61.871a.86.86,0,1,1,.859-.859A.855.855,0,0,1,53.073,61.871Zm6.133-6.432a.865.865,0,0,0-1.224-.058L54.3,58.732a2.589,2.589,0,0,0-3.657,1.413H46.626a.867.867,0,0,0,0,1.734H50.64a2.586,2.586,0,1,0,4.822-1.865l3.686-3.358A.856.856,0,0,0,59.206,55.439ZM41.345,61.012a11.728,11.728,0,0,0,23.455.2.863.863,0,0,0-1.726-.029,10,10,0,1,1-6.716-9.623l-1.377.357a.863.863,0,0,0-.619,1.056.88.88,0,0,0,1.056.619l3.649-.947a.938.938,0,0,0,.35-.189.864.864,0,0,0,.226-1l-1.981-3.336a.859.859,0,0,0-1.18-.306.869.869,0,0,0-.306,1.187l.5.838A11.749,11.749,0,0,0,41.345,61.012Zm55.324,39.568V58.156a.715.715,0,0,0-.714-.714H78.05v6.876a2.447,2.447,0,0,1-2.44,2.448H68.726V89.085h1.785a.861.861,0,0,1,.86.859v11.014a2.507,2.507,0,0,1-.029.335H95.955A.715.715,0,0,0,96.669,100.579Zm-41.287.714H45.89c-.393,0-.648-.218-.648-.335V90.811h2.739v4.05a.867.867,0,0,0,.867.859h4.13a.861.861,0,0,0,.86-.859v-4.05h2.739v10.482ZM49.715,90.811v3.183h2.4V90.811ZM45.89,78.6h2.091v4.05a.867.867,0,0,0,.867.86h4.13a.861.861,0,0,0,.86-.86V78.6h2.739V89.085H45.242V78.938C45.242,78.821,45.5,78.6,45.89,78.6Zm3.824,0v3.183h2.4V78.6ZM62.775,90.811h2.4v3.183h-2.4Zm6.869,10.147c0,.116-.255.335-.648.335H58.31V90.811h2.739v4.05a.863.863,0,0,0,.867.859h4.123a.863.863,0,0,0,.867-.859v-4.05h2.739v10.147Zm6.68-42.292v5.653a.715.715,0,0,1-.714.714H69.95Zm19.631-2.95H77.183a.854.854,0,0,0-.6.248l-9.324,9.324A.848.848,0,0,0,67,65.9V89.085H58.31V77.736a.863.863,0,0,0-.867-.859H45.89a2.236,2.236,0,0,0-2.375,2.061v22.02a2.236,2.236,0,0,0,2.375,2.061H95.955a2.446,2.446,0,0,0,2.447-2.44V58.156a2.446,2.446,0,0,0-2.447-2.44Z" transform="translate(0 0)" fill-rule="evenodd"/>
    </g>
  </g>
</svg>
