<svg xmlns="http://www.w3.org/2000/svg" xmlns:xlink="http://www.w3.org/1999/xlink" width="113" height="113" viewBox="0 0 113 113">
  <defs>
    <filter id="Trazado_982547" x="0" y="0" width="113" height="113" filterUnits="userSpaceOnUse">
      <feOffset dy="3" input="SourceAlpha"/>
      <feGaussianBlur stdDeviation="3" result="blur"/>
      <feFlood flood-opacity="0.161"/>
      <feComposite operator="in" in2="blur"/>
      <feComposite in="SourceGraphic"/>
    </filter>
  </defs>
  <g id="Grupo_1177886" data-name="Grupo 1177886" transform="translate(-1217 -2824.702)">
    <g id="Grupo_1177758" data-name="Grupo 1177758" transform="translate(1226 2830.702)">
      <g id="Grupo_1173868" data-name="Grupo 1173868">
        <g id="Grupo_1172010" data-name="Grupo 1172010">
          <g id="Grupo_1171046" data-name="Grupo 1171046">
            <g id="Grupo_1148525" data-name="Grupo 1148525">
              <g transform="matrix(1, 0, 0, 1, -9, -6)" filter="url(#Trazado_982547)">
                <g id="Trazado_982547-2" data-name="Trazado 982547" transform="translate(9 6)" fill="#fbecfd">
                  <path d="M 47.5 93.5 C 41.28937149047852 93.5 35.26533508300781 92.28397369384766 29.59518623352051 89.88570404052734 C 24.11771965026855 87.56893157958984 19.19813346862793 84.25196075439453 14.97309303283691 80.02691650390625 C 10.74804019927979 75.80186462402344 7.431066513061523 70.88229370117188 5.114293098449707 65.40481567382812 C 2.716026782989502 59.73468017578125 1.5 53.71062850952148 1.5 47.5 C 1.5 41.28937149047852 2.716026782989502 35.26533508300781 5.114293098449707 29.59518623352051 C 7.431066513061523 24.11771965026855 10.74804019927979 19.19813346862793 14.97309303283691 14.97309303283691 C 19.19813346862793 10.74804019927979 24.11771965026855 7.431066513061523 29.59518623352051 5.114293098449707 C 35.26533508300781 2.716026782989502 41.28937149047852 1.5 47.5 1.5 C 53.71062850952148 1.5 59.73468017578125 2.716026782989502 65.40481567382812 5.114293098449707 C 70.88229370117188 7.431066513061523 75.80186462402344 10.74804019927979 80.02691650390625 14.97309303283691 C 84.25196075439453 19.19813346862793 87.56893157958984 24.11771965026855 89.88570404052734 29.59518623352051 C 92.28397369384766 35.26533508300781 93.5 41.28937149047852 93.5 47.5 C 93.5 53.71062850952148 92.28397369384766 59.73468017578125 89.88570404052734 65.40481567382812 C 87.56893157958984 70.88229370117188 84.25196075439453 75.80186462402344 80.02691650390625 80.02691650390625 C 75.80186462402344 84.25196075439453 70.88229370117188 87.56893157958984 65.40481567382812 89.88570404052734 C 59.73468017578125 92.28397369384766 53.71062850952148 93.5 47.5 93.5 Z" stroke="none"/>
                  <path d="M 47.5 3 C 41.49121475219727 3 35.66376876831055 4.176155090332031 30.17950439453125 6.495796203613281 C 24.88084411621094 8.736953735351562 20.12152099609375 11.94598388671875 16.03375244140625 16.03375244140625 C 11.94598388671875 20.12152099609375 8.736953735351562 24.88084411621094 6.495796203613281 30.17950439453125 C 4.176155090332031 35.66376876831055 3 41.49121475219727 3 47.5 C 3 53.50878524780273 4.176155090332031 59.33623123168945 6.495796203613281 64.82049560546875 C 8.736953735351562 70.11915588378906 11.94598388671875 74.87847900390625 16.03375244140625 78.96624755859375 C 20.12152099609375 83.05401611328125 24.88084411621094 86.26304626464844 30.17950439453125 88.50419616699219 C 35.66376876831055 90.82384490966797 41.49121475219727 92 47.5 92 C 53.50878524780273 92 59.33623123168945 90.82384490966797 64.82049560546875 88.50419616699219 C 70.11915588378906 86.26304626464844 74.87847900390625 83.05401611328125 78.96624755859375 78.96624755859375 C 83.05401611328125 74.87847900390625 86.26304626464844 70.11915588378906 88.50419616699219 64.82049560546875 C 90.82384490966797 59.33623123168945 92 53.50878524780273 92 47.5 C 92 41.49121475219727 90.82384490966797 35.66376876831055 88.50419616699219 30.17950439453125 C 86.26304626464844 24.88084411621094 83.05401611328125 20.12152099609375 78.96624755859375 16.03375244140625 C 74.87847900390625 11.94598388671875 70.11915588378906 8.736953735351562 64.82049560546875 6.495796203613281 C 59.33623123168945 4.176155090332031 53.50878524780273 3 47.5 3 M 47.5 0 C 73.7335205078125 0 95 21.2664794921875 95 47.5 C 95 73.7335205078125 73.7335205078125 95 47.5 95 C 21.2664794921875 95 0 73.7335205078125 0 47.5 C 0 21.2664794921875 21.2664794921875 0 47.5 0 Z" stroke="none" fill="#da53f2"/>
                </g>
              </g>
            </g>
          </g>
        </g>
      </g>
    </g>
    <g id="Layer_26" data-name="Layer 26" transform="translate(1242 2846)">
      <path id="Trazado_1037707" data-name="Trazado 1037707" d="M62,37V27H58.53A26.856,26.856,0,0,0,54.3,16.774l2.452-2.452L49.678,7.251,47.226,9.7A26.856,26.856,0,0,0,37,5.47V2H27V5.47A26.856,26.856,0,0,0,16.774,9.7L14.322,7.251,7.251,14.322,9.7,16.774A26.856,26.856,0,0,0,5.47,27H2V37H5.47A26.856,26.856,0,0,0,9.7,47.226L7.251,49.678l7.071,7.071L16.774,54.3A26.856,26.856,0,0,0,27,58.53V62H37V58.53A26.856,26.856,0,0,0,47.226,54.3l2.452,2.452,7.071-7.071L54.3,47.226A26.856,26.856,0,0,0,58.53,37Z" fill="#939393"/>
      <circle id="Elipse_12535" data-name="Elipse 12535" cx="20" cy="20" r="20" transform="translate(12 12)" fill="#fff"/>
      <path id="Trazado_1037708" data-name="Trazado 1037708" d="M42,37,23,18l-5,5L37,42l-2,2h9V35Z" fill="#6bc13b"/>
      <circle id="Elipse_12536" data-name="Elipse 12536" cx="8" cy="8" r="8" transform="translate(30 18)" fill="#f9d266"/>
      <path id="Trazado_1037709" data-name="Trazado 1037709" d="M38,18a8,8,0,0,0-6.133,13.133A8,8,0,0,0,43.133,19.867,7.964,7.964,0,0,0,38,18Z" fill="#fce797"/>
      <path id="Trazado_1037710" data-name="Trazado 1037710" d="M39,25V23a1,1,0,0,1,1,1h2a3,3,0,0,0-3-3V20H37v1a3,3,0,0,0,0,6v2a1,1,0,0,1-1-1H34a3,3,0,0,0,3,3v1h2V31a3,3,0,1,0,0-6Zm-3-1a1,1,0,0,1,1-1v2A1,1,0,0,1,36,24Zm3,5V27a1,1,0,0,1,0,2Z" fill="#f4a93c"/>
      <circle id="Elipse_12537" data-name="Elipse 12537" cx="8" cy="8" r="8" transform="translate(18 30)" fill="#f9d266"/>
      <path id="Trazado_1037711" data-name="Trazado 1037711" d="M26,30a8,8,0,0,0-6.133,13.133A8,8,0,0,0,31.133,31.867,7.964,7.964,0,0,0,26,30Z" fill="#fce797"/>
      <path id="Trazado_1037712" data-name="Trazado 1037712" d="M27,37V35a1,1,0,0,1,1,1h2a3,3,0,0,0-3-3V32H25v1a3,3,0,0,0,0,6v2a1,1,0,0,1-1-1H22a3,3,0,0,0,3,3v1h2V43a3,3,0,0,0,0-6Zm-3-1a1,1,0,0,1,1-1v2A1,1,0,0,1,24,36Zm3,5V39a1,1,0,0,1,0,2Z" fill="#f4a93c"/>
      <path id="Trazado_1037713" data-name="Trazado 1037713" d="M62,26H59.348a27.669,27.669,0,0,0-3.766-9.1l1.874-1.874a1,1,0,0,0,0-1.414L50.385,6.544a1,1,0,0,0-1.414,0L47.1,8.418A27.669,27.669,0,0,0,38,4.652V2a1,1,0,0,0-1-1H27a1,1,0,0,0-1,1V4.652a27.669,27.669,0,0,0-9.1,3.766L15.029,6.544a1,1,0,0,0-1.414,0L6.544,13.615a1,1,0,0,0,0,1.414L8.418,16.9A27.669,27.669,0,0,0,4.652,26H2a1,1,0,0,0-1,1V37a1,1,0,0,0,1,1H4.652a27.669,27.669,0,0,0,3.766,9.1L6.544,48.971a1,1,0,0,0,0,1.414l7.071,7.071a1,1,0,0,0,1.414,0L16.9,55.582A27.669,27.669,0,0,0,26,59.348V62a1,1,0,0,0,1,1H37a1,1,0,0,0,1-1V59.348a27.669,27.669,0,0,0,9.1-3.766l1.874,1.874a1,1,0,0,0,1.414,0l7.071-7.071a1,1,0,0,0,0-1.414L55.582,47.1A27.669,27.669,0,0,0,59.348,38H62a1,1,0,0,0,1-1V27A1,1,0,0,0,62,26ZM61,36H58.53a1,1,0,0,0-.982.815,25.722,25.722,0,0,1-4.076,9.846,1,1,0,0,0,.118,1.272l1.745,1.745-5.657,5.657L47.933,53.59a1,1,0,0,0-1.272-.118,25.722,25.722,0,0,1-9.846,4.076A1,1,0,0,0,36,58.53V61H28V58.53a1,1,0,0,0-.815-.982,25.722,25.722,0,0,1-9.846-4.076,1,1,0,0,0-1.272.118l-1.745,1.745L8.665,49.678l1.745-1.745a1,1,0,0,0,.118-1.272,25.722,25.722,0,0,1-4.076-9.846A1,1,0,0,0,5.47,36H3V28H5.47a1,1,0,0,0,.982-.815,25.722,25.722,0,0,1,4.076-9.846,1,1,0,0,0-.118-1.272L8.665,14.322l5.657-5.657,1.745,1.745a1,1,0,0,0,1.272.118,25.722,25.722,0,0,1,9.846-4.076A1,1,0,0,0,28,5.47V3h8V5.47a1,1,0,0,0,.815.982,25.722,25.722,0,0,1,9.846,4.076,1,1,0,0,0,1.272-.118l1.745-1.745,5.657,5.657L53.59,16.067a1,1,0,0,0-.118,1.272,25.722,25.722,0,0,1,4.076,9.846A1,1,0,0,0,58.53,28H61Z"/>
      <path id="Trazado_1037714" data-name="Trazado 1037714" d="M32,11A21,21,0,1,0,53,32,21,21,0,0,0,32,11Zm0,40A19,19,0,1,1,51,32,19,19,0,0,1,32,51Z"/>
      <path id="Trazado_1037715" data-name="Trazado 1037715" d="M28,36h2a3,3,0,0,0-3-3V32H25v1a3,3,0,0,0,0,6v2a1,1,0,0,1-1-1H22a3,3,0,0,0,3,3v1h2V43a3,3,0,0,0,0-6V35A1,1,0,0,1,28,36Zm0,4a1,1,0,0,1-1,1V39A1,1,0,0,1,28,40Zm-3-3a1,1,0,0,1,0-2Z"/>
      <path id="Trazado_1037716" data-name="Trazado 1037716" d="M38,17a9.009,9.009,0,0,0-8.5,6.081l-5.788-5.788a1,1,0,0,0-1.414,0l-5,5a1,1,0,0,0,0,1.414L23.081,29.5A9,9,0,1,0,34.5,40.919L35.586,42l-1.293,1.293A1,1,0,0,0,35,45h9a1,1,0,0,0,1-1V35a1,1,0,0,0-1.707-.707L42,35.586,40.919,34.5A9,9,0,0,0,38,17ZM19.414,23,23,19.414l6.028,6.028c-.011.186-.028.37-.028.558a8.926,8.926,0,0,0,.9,3.9A8.926,8.926,0,0,0,26,29c-.188,0-.372.017-.558.028ZM26,45a7,7,0,1,1,7-7,7,7,0,0,1-7,7Zm15.293-7.293a1,1,0,0,0,1.414,0L43,37.414V43H37.414l.293-.293a1,1,0,0,0,0-1.414l-2.735-2.735c.011-.186.028-.37.028-.558a8.926,8.926,0,0,0-.9-3.9A8.926,8.926,0,0,0,38,35c.188,0,.372-.017.558-.028ZM38,33a7,7,0,1,1,7-7,7,7,0,0,1-7,7Z"/>
      <path id="Trazado_1037717" data-name="Trazado 1037717" d="M40,24h2a3,3,0,0,0-3-3V20H37v1a3,3,0,0,0,0,6v2a1,1,0,0,1-1-1H34a3,3,0,0,0,3,3v1h2V31a3,3,0,1,0,0-6V23A1,1,0,0,1,40,24Zm0,4a1,1,0,0,1-1,1V27A1,1,0,0,1,40,28Zm-3-3a1,1,0,0,1,0-2Z"/>
    </g>
  </g>
</svg>
