<svg xmlns="http://www.w3.org/2000/svg" width="33.696" height="33.675" viewBox="0 0 33.696 33.675">
  <g id="process-analysis_15351558" transform="translate(-1.861 -1.791)">
    <path id="Trazado_1036638" data-name="Trazado 1036638" d="M44.865,13.687a.4.4,0,0,0-.139.488,16.075,16.075,0,0,1-2.09,18.945L42.5,30.892a.348.348,0,1,0-.7,0l.209,3.134a.329.329,0,0,0,.348.348c.07,0,3.2-.139,3.134-.209a.348.348,0,0,0,0-.7l-2.3.139a16.813,16.813,0,0,0,2.229-19.851A.825.825,0,0,0,44.865,13.687Z" transform="translate(-12.121 -3.602)"/>
    <path id="Trazado_1036639" data-name="Trazado 1036639" d="M14.145,4.723a16.075,16.075,0,0,1,18.945,2.09l-2.229.139a.373.373,0,0,0-.348.348.329.329,0,0,0,.348.348c.07,0,3.2-.139,3.134-.209a.373.373,0,0,0,.348-.348l-.209-3.134a.348.348,0,0,0-.7,0l.139,2.3A16.92,16.92,0,0,0,13.727,4.026a.4.4,0,0,0-.139.488C13.8,4.723,14.006,4.792,14.145,4.723Z" transform="translate(-3.551)"/>
    <path id="Trazado_1036640" data-name="Trazado 1036640" d="M4.117,29.117a.4.4,0,0,0,.488.139.462.462,0,0,0,.139-.488A16.193,16.193,0,0,1,6.834,9.754l.139,2.229a.329.329,0,0,0,.348.348.373.373,0,0,0,.348-.348L7.46,8.848A.373.373,0,0,0,7.112,8.5l-3.065.209a.348.348,0,1,0,0,.7l2.3-.139A16.825,16.825,0,0,0,4.117,29.117Z" transform="translate(0 -2.036)"/>
    <path id="Trazado_1036641" data-name="Trazado 1036641" d="M12.331,42.148a.373.373,0,0,0-.348-.348l-3.134.209a.373.373,0,0,0-.348.348l.209,3.134c0,.488.7.418.7-.07l-.139-2.3a16.825,16.825,0,0,0,19.851,2.229.359.359,0,1,0-.348-.627,16.075,16.075,0,0,1-18.945-2.09l2.229-.139a.28.28,0,0,0,.279-.348Z" transform="translate(-2.015 -12.142)"/>
    <path id="Trazado_1036642" data-name="Trazado 1036642" d="M12.967,19.947a.256.256,0,0,0,.209-.07L24.25,13.4l-.418,2.229c-.07.209.07.348.279.418h.07a.463.463,0,0,0,.348-.279l.557-3c.07-.209-.139-.348-.279-.418-.07,0-3.065-.627-3-.557a.382.382,0,0,0-.418.279c-.07.209.07.348.279.418l2.09.418L12.827,19.25a.4.4,0,0,0-.139.488c.07.139.139.209.279.209Z" transform="translate(-3.277 -3.035)"/>
    <path id="Trazado_1036643" data-name="Trazado 1036643" d="M11.048,30.257H31.735a.348.348,0,1,0,0-.7H30.69V16.048a.329.329,0,0,0-.348-.348H26.581a.329.329,0,0,0-.348.348V29.561H23.586V19.74a.329.329,0,0,0-.348-.348H19.546a.329.329,0,0,0-.348.348v9.821H16.481v-5.99a.329.329,0,0,0-.348-.348H12.441a.329.329,0,0,0-.348.348v5.99H11.048a.348.348,0,1,0,0,.7ZM26.929,16.4h3.065V29.561H26.929Zm-7.1,3.692h3v9.473h-3ZM12.79,23.919h3v5.642h-3Z" transform="translate(-2.682 -4.221)"/>
  </g>
</svg>
