<svg xmlns="http://www.w3.org/2000/svg" xmlns:xlink="http://www.w3.org/1999/xlink" width="113" height="113" viewBox="0 0 113 113">
  <defs>
    <filter id="Trazado_982547" x="0" y="0" width="113" height="113" filterUnits="userSpaceOnUse">
      <feOffset dy="3" input="SourceAlpha"/>
      <feGaussianBlur stdDeviation="3" result="blur"/>
      <feFlood flood-opacity="0.161"/>
      <feComposite operator="in" in2="blur"/>
      <feComposite in="SourceGraphic"/>
    </filter>
  </defs>
  <g id="Grupo_1177812" data-name="Grupo 1177812" transform="translate(-272 -696.802)">
    <g id="Grupo_1177727" data-name="Grupo 1177727" transform="translate(281 702.802)">
      <g id="Grupo_1173868" data-name="Grupo 1173868">
        <g id="Grupo_1172010" data-name="Grupo 1172010">
          <g id="Grupo_1171046" data-name="Grupo 1171046">
            <g id="Grupo_1148525" data-name="Grupo 1148525">
              <g transform="matrix(1, 0, 0, 1, -9, -6)" filter="url(#Trazado_982547)">
                <g id="Trazado_982547-2" data-name="Trazado 982547" transform="translate(9 6)" fill="#fbecfd">
                  <path d="M 47.5 93.5 C 41.28937149047852 93.5 35.26533508300781 92.28397369384766 29.59518623352051 89.88570404052734 C 24.11771965026855 87.56893157958984 19.19813346862793 84.25196075439453 14.97309303283691 80.02691650390625 C 10.74804019927979 75.80186462402344 7.431066513061523 70.88229370117188 5.114293098449707 65.40481567382812 C 2.716026782989502 59.73468017578125 1.5 53.71062850952148 1.5 47.5 C 1.5 41.28937149047852 2.716026782989502 35.26533508300781 5.114293098449707 29.59518623352051 C 7.431066513061523 24.11771965026855 10.74804019927979 19.19813346862793 14.97309303283691 14.97309303283691 C 19.19813346862793 10.74804019927979 24.11771965026855 7.431066513061523 29.59518623352051 5.114293098449707 C 35.26533508300781 2.716026782989502 41.28937149047852 1.5 47.5 1.5 C 53.71062850952148 1.5 59.73468017578125 2.716026782989502 65.40481567382812 5.114293098449707 C 70.88229370117188 7.431066513061523 75.80186462402344 10.74804019927979 80.02691650390625 14.97309303283691 C 84.25196075439453 19.19813346862793 87.56893157958984 24.11771965026855 89.88570404052734 29.59518623352051 C 92.28397369384766 35.26533508300781 93.5 41.28937149047852 93.5 47.5 C 93.5 53.71062850952148 92.28397369384766 59.73468017578125 89.88570404052734 65.40481567382812 C 87.56893157958984 70.88229370117188 84.25196075439453 75.80186462402344 80.02691650390625 80.02691650390625 C 75.80186462402344 84.25196075439453 70.88229370117188 87.56893157958984 65.40481567382812 89.88570404052734 C 59.73468017578125 92.28397369384766 53.71062850952148 93.5 47.5 93.5 Z" stroke="none"/>
                  <path d="M 47.5 3 C 41.49121475219727 3 35.66376876831055 4.176155090332031 30.17950439453125 6.495796203613281 C 24.88084411621094 8.736953735351562 20.12152099609375 11.94598388671875 16.03375244140625 16.03375244140625 C 11.94598388671875 20.12152099609375 8.736953735351562 24.88084411621094 6.495796203613281 30.17950439453125 C 4.176155090332031 35.66376876831055 3 41.49121475219727 3 47.5 C 3 53.50878524780273 4.176155090332031 59.33623123168945 6.495796203613281 64.82049560546875 C 8.736953735351562 70.11915588378906 11.94598388671875 74.87847900390625 16.03375244140625 78.96624755859375 C 20.12152099609375 83.05401611328125 24.88084411621094 86.26304626464844 30.17950439453125 88.50419616699219 C 35.66376876831055 90.82384490966797 41.49121475219727 92 47.5 92 C 53.50878524780273 92 59.33623123168945 90.82384490966797 64.82049560546875 88.50419616699219 C 70.11915588378906 86.26304626464844 74.87847900390625 83.05401611328125 78.96624755859375 78.96624755859375 C 83.05401611328125 74.87847900390625 86.26304626464844 70.11915588378906 88.50419616699219 64.82049560546875 C 90.82384490966797 59.33623123168945 92 53.50878524780273 92 47.5 C 92 41.49121475219727 90.82384490966797 35.66376876831055 88.50419616699219 30.17950439453125 C 86.26304626464844 24.88084411621094 83.05401611328125 20.12152099609375 78.96624755859375 16.03375244140625 C 74.87847900390625 11.94598388671875 70.11915588378906 8.736953735351562 64.82049560546875 6.495796203613281 C 59.33623123168945 4.176155090332031 53.50878524780273 3 47.5 3 M 47.5 0 C 73.7335205078125 0 95 21.2664794921875 95 47.5 C 95 73.7335205078125 73.7335205078125 95 47.5 95 C 21.2664794921875 95 0 73.7335205078125 0 47.5 C 0 21.2664794921875 21.2664794921875 0 47.5 0 Z" stroke="none" fill="#da53f2"/>
                </g>
              </g>
            </g>
          </g>
        </g>
      </g>
    </g>
    <g id="money-strategy_4906151" transform="translate(296.5 718.305)">
      <path id="Trazado_1037371" data-name="Trazado 1037371" d="M46.7,49H57V28L18,13V9h3L15,3,9,9h3v8L51,32V43H46.7" fill="#ffd954"/>
      <path id="Trazado_1037372" data-name="Trazado 1037372" d="M17.3,49H7V28L46,13V9H43l6-6,6,6H52v8L13,32V43h4.3" fill="#b2b2b2"/>
      <circle id="Elipse_12517" data-name="Elipse 12517" cx="15" cy="15" r="15" transform="translate(17 31)" fill="#f2ab39"/>
      <circle id="Elipse_12518" data-name="Elipse 12518" cx="11" cy="11" r="11" transform="translate(21 35)" fill="#ffd954"/>
      <g id="Grupo_1177811" data-name="Grupo 1177811">
        <path id="Trazado_1037373" data-name="Trazado 1037373" d="M42,41.69l3.67-1.57a15,15,0,0,0-8.2-8L36,35.8a11,11,0,0,1,6,5.89Z" fill="#69491a"/>
        <path id="Trazado_1037374" data-name="Trazado 1037374" d="M21.79,50.31l-3.67,1.57a15,15,0,0,0,8.2,8L27.8,56.2a11,11,0,0,1-6-5.89" fill="#69491a"/>
        <path id="Trazado_1037375" data-name="Trazado 1037375" d="M36.22,56.12l1.57,3.67a15,15,0,0,0,8-8.2L42.08,50.1a11,11,0,0,1-5.89,6" fill="#69491a"/>
        <path id="Trazado_1037376" data-name="Trazado 1037376" d="M27.6,35.88,26,32.2a15,15,0,0,0-8,8.2l3.71,1.49a11,11,0,0,1,5.89-6" fill="#69491a"/>
      </g>
      <path id="Trazado_1037377" data-name="Trazado 1037377" d="M32,30A16,16,0,1,0,48,46,16,16,0,0,0,32,30Zm0,26A10,10,0,1,1,42,46,10,10,0,0,1,32,56ZM18,46a13.863,13.863,0,0,1,.681-4.292l1.849.752A12.18,12.18,0,0,0,20,46a12,12,0,0,0,.61,3.76l-1.84.79A14,14,0,0,1,18,46Zm25.39-3.76,1.84-.79a13.85,13.85,0,0,1,.089,8.842L43.47,49.54A12.18,12.18,0,0,0,44,46a12,12,0,0,0-.61-3.76Zm1-2.63-1.84.79a12.07,12.07,0,0,0-5.21-5.11l.75-1.85a14,14,0,0,1,6.35,6.17Zm-8.15-6.93-.75,1.85A12.18,12.18,0,0,0,32,34a12,12,0,0,0-3.76.61l-.79-1.84a13.85,13.85,0,0,1,8.842-.089Zm-10.68.88.79,1.83a12.15,12.15,0,0,0-5.11,5.22l-1.85-.75a14,14,0,0,1,6.22-6.3Zm-6,18.83,1.84-.79a12.07,12.07,0,0,0,5.21,5.11l-.75,1.85a14,14,0,0,1-6.3-6.17Zm8.15,6.93.75-1.85A12.18,12.18,0,0,0,32,58a12,12,0,0,0,3.76-.61l.79,1.84a13.85,13.85,0,0,1-8.842.089Zm10.68-.88-.79-1.83a12.15,12.15,0,0,0,5.11-5.22l1.85.75A14,14,0,0,1,38.39,58.44Z"/>
      <path id="Trazado_1037378" data-name="Trazado 1037378" d="M36,42V40H33V38H31v2H29a1,1,0,0,0-1,1v5a1,1,0,0,0,1,1h5v3H28v2h3v2h2V52h2a1,1,0,0,0,1-1V46a1,1,0,0,0-1-1H30V42Z"/>
      <path id="Trazado_1037379" data-name="Trazado 1037379" d="M57.36,27.07,43,21.54l9.38-3.61A1,1,0,0,0,53,17V10h2a1.006,1.006,0,0,0,.71-1.71l-6-6a1,1,0,0,0-1.42,0l-6,6A1.006,1.006,0,0,0,43,10h2v2.31l-13,5-13-5V10h2a1.006,1.006,0,0,0,.71-1.71l-6-6a1,1,0,0,0-1.42,0l-6,6A1.006,1.006,0,0,0,9,10h2v7a1,1,0,0,0,.64.93L21,21.54,6.64,27.07A1,1,0,0,0,6,28V49a1,1,0,0,0,1,1H17.3V48H8V28.69L46.36,13.93A1,1,0,0,0,47,13V9a1,1,0,0,0-1-1h-.59L49,4.41,52.59,8H52a1,1,0,0,0-1,1v7.31L12.64,31.07A1,1,0,0,0,12,32V43a1,1,0,0,0,1,1h4.3V42H14V32.69l18-6.93,18,6.93V42H46.7v2H51a1,1,0,0,0,1-1V32a1,1,0,0,0-.64-.93L34.79,24.69l5.41-2.08L56,28.69V48H46.7v2H57a1,1,0,0,0,1-1V28A1,1,0,0,0,57.36,27.07ZM13,16.31V9a1,1,0,0,0-1-1h-.59L15,4.41,18.59,8H18a1,1,0,0,0-1,1v4a1,1,0,0,0,.64.93l11.58,4.45L23.8,20.47Z"/>
    </g>
  </g>
</svg>
