<svg xmlns="http://www.w3.org/2000/svg" xmlns:xlink="http://www.w3.org/1999/xlink" width="108" height="108" viewBox="0 0 108 108">
  <defs>
    <filter id="Trazado_904820" x="0" y="0" width="108" height="108" filterUnits="userSpaceOnUse">
      <feOffset dy="3" input="SourceAlpha"/>
      <feGaussianBlur stdDeviation="3" result="blur"/>
      <feFlood flood-opacity="0.161"/>
      <feComposite operator="in" in2="blur"/>
      <feComposite in="SourceGraphic"/>
    </filter>
  </defs>
  <g id="Grupo_1177732" data-name="Grupo 1177732" transform="translate(9 6)">
    <g id="Grupo_1173585" data-name="Grupo 1173585" transform="translate(0 0)">
      <g id="Grupo_1173428" data-name="Grupo 1173428">
        <g id="Grupo_1171958" data-name="Grupo 1171958">
          <g id="Grupo_1167341" data-name="Grupo 1167341">
            <g id="Grupo_1166792" data-name="Grupo 1166792">
              <g transform="matrix(1, 0, 0, 1, -9, -6)" filter="url(#Trazado_904820)">
                <g id="Trazado_904820-2" data-name="Trazado 904820" transform="translate(9 6)" fill="#fbf8f2">
                  <path d="M 44.99999618530273 88.49999237060547 C 39.12687301635742 88.49999237060547 33.43022155761719 87.35006713867188 28.06829643249512 85.08216857910156 C 22.88852119445801 82.89130401611328 18.23629570007324 79.75457763671875 14.24084663391113 75.75914001464844 C 10.24540901184082 71.76369476318359 7.108683586120605 67.11146545410156 4.917821407318115 61.93169403076172 C 2.649921178817749 56.56976699829102 1.499996185302734 50.87311553955078 1.499996185302734 44.99999237060547 C 1.499996185302734 39.12686920166016 2.649921178817749 33.43021774291992 4.917821407318115 28.06829261779785 C 7.108683586120605 22.88851737976074 10.24540901184082 18.23630523681641 14.24084663391113 14.24085521697998 C 18.23629570007324 10.24540519714355 22.88852119445801 7.108692169189453 28.06829643249512 4.917829990386963 C 33.43022155761719 2.649929761886597 39.12687301635742 1.500004887580872 44.99999618530273 1.500004887580872 C 50.87311935424805 1.500004887580872 56.56977081298828 2.649929761886597 61.93169784545898 4.917829990386963 C 67.11147308349609 7.108692169189453 71.76369476318359 10.24540519714355 75.75914764404297 14.24085521697998 C 79.75458526611328 18.23630523681641 82.89131164550781 22.88851737976074 85.08216857910156 28.06829261779785 C 87.35007476806641 33.43021774291992 88.5 39.12686920166016 88.5 44.99999237060547 C 88.5 50.87311553955078 87.35007476806641 56.56976699829102 85.08216857910156 61.93169403076172 C 82.89131164550781 67.11146545410156 79.75458526611328 71.76369476318359 75.75914764404297 75.75914001464844 C 71.76369476318359 79.75457763671875 67.11147308349609 82.89130401611328 61.93169784545898 85.08216857910156 C 56.56977081298828 87.35006713867188 50.87311935424805 88.49999237060547 44.99999618530273 88.49999237060547 Z" stroke="none"/>
                  <path d="M 44.99999618530273 2.999992370605469 C 39.32870864868164 2.999992370605469 33.82865142822266 4.11004638671875 28.65262603759766 6.299331665039062 C 23.65165710449219 8.414566040039062 19.15968322753906 11.44333648681641 15.301513671875 15.30150604248047 C 11.44333648681641 19.15967559814453 8.414566040039062 23.65164947509766 6.299339294433594 28.65262222290039 C 4.110054016113281 33.82864761352539 2.999992370605469 39.32870483398438 2.999992370605469 44.99999237060547 C 2.999992370605469 50.67127990722656 4.110054016113281 56.17132186889648 6.299339294433594 61.34736633300781 C 8.414566040039062 66.34833526611328 11.44333648681641 70.84029388427734 15.301513671875 74.69846343994141 C 19.15968322753906 78.55663299560547 23.65165710449219 81.58540344238281 28.65262603759766 83.70063781738281 C 33.82865142822266 85.88992309570312 39.32870864868164 86.99997711181641 44.99999618530273 86.99997711181641 C 50.67128372192383 86.99997711181641 56.17134094238281 85.88992309570312 61.34736633300781 83.70063781738281 C 66.34834289550781 81.58540344238281 70.84030914306641 78.55663299560547 74.69847869873047 74.69846343994141 C 78.55665588378906 70.84029388427734 81.58542633056641 66.34833526611328 83.70065307617188 61.34736633300781 C 85.88993835449219 56.17132186889648 87 50.67127990722656 87 44.99999237060547 C 87 39.32870483398438 85.88993835449219 33.82864761352539 83.70065307617188 28.65262222290039 C 81.58542633056641 23.65164947509766 78.55665588378906 19.15967559814453 74.69847869873047 15.30150604248047 C 70.84030914306641 11.44333648681641 66.34834289550781 8.414566040039062 61.34736633300781 6.299331665039062 C 56.17134094238281 4.11004638671875 50.67128372192383 2.999992370605469 44.99999618530273 2.999992370605469 M 44.99999618530273 -7.62939453125e-06 C 69.85281372070312 -7.62939453125e-06 90 20.14717864990234 90 44.99999237060547 C 90 69.85279083251953 69.85281372070312 89.99997711181641 44.99999618530273 89.99997711181641 C 20.14717864990234 89.99997711181641 -7.62939453125e-06 69.85279083251953 -7.62939453125e-06 44.99999237060547 C -7.62939453125e-06 20.14717864990234 20.14717864990234 -7.62939453125e-06 44.99999618530273 -7.62939453125e-06 Z" stroke="none" fill="#7b6a49"/>
                </g>
              </g>
            </g>
          </g>
        </g>
      </g>
      <g id="Programmer-Coding-Avatar-Occupation-Woman" transform="translate(15.249 15.249)">
        <path id="Trazado_1037538" data-name="Trazado 1037538" d="M40,59.565H3V48.353a7.382,7.382,0,0,1,3.885-6.5c2.313,1.7,7.983,2.914,14.616,2.914s12.3-1.212,14.616-2.914A7.382,7.382,0,0,1,40,48.353Z" transform="translate(-0.075 -2.987)" fill="#ea348b"/>
        <path id="Trazado_1037539" data-name="Trazado 1037539" d="M35.127,40.494a6.29,6.29,0,0,1,1.3.555c-2.313,1.7-7.983,2.914-14.616,2.914S9.513,42.751,7.2,41.049a6.29,6.29,0,0,1,1.3-.555L15.516,38.3a3.7,3.7,0,0,0,2.6-3.534V31.16h7.4v3.608a3.7,3.7,0,0,0,2.6,3.534Z" transform="translate(-0.39 -2.186)" fill="#ffc477"/>
        <path id="Trazado_1037540" data-name="Trazado 1037540" d="M39.152,22.426A3.683,3.683,0,0,1,36.663,25.9a3.637,3.637,0,0,1,.638,2.072,3.7,3.7,0,0,1-3.7,3.7,3.648,3.648,0,0,1-2.063-.629,3.692,3.692,0,0,1-6.263,1.221h-7.4a3.692,3.692,0,0,1-6.263-1.221,3.648,3.648,0,0,1-2.063.629,3.7,3.7,0,0,1-3.7-3.7A3.637,3.637,0,0,1,6.488,25.9,3.69,3.69,0,0,1,7.7,18.726a3.389,3.389,0,0,1,.925.139V15.951a12.951,12.951,0,0,1,25.9,0v2.914a3.389,3.389,0,0,1,.925-.139,3.7,3.7,0,0,1,3.7,3.7Z" transform="translate(-0.15 -0.075)" fill="#57565c"/>
        <path id="Trazado_1037541" data-name="Trazado 1037541" d="M26.4,31.16v3.7a9.2,9.2,0,0,1-7.4,0v-3.7Z" transform="translate(-1.274 -2.186)" fill="#ffb655"/>
        <path id="Trazado_1037542" data-name="Trazado 1037542" d="M31.5,16.635V23.11a9.25,9.25,0,0,1-18.5,0V16.635a16.659,16.659,0,0,0,11.582-4.5c1.055,2.091,3.756,3.58,6.919,3.58Z" transform="translate(-0.825 -0.759)" fill="#ffc477"/>
        <path id="Trazado_1037543" data-name="Trazado 1037543" d="M59.051,47v1.85A1.856,1.856,0,0,1,57.2,50.7H36.85A1.856,1.856,0,0,1,35,48.85V47Z" transform="translate(-2.474 -3.373)" fill="#c6c5ca"/>
        <path id="Trazado_1037544" data-name="Trazado 1037544" d="M59.051,34.85v11.1H35V34.85A1.856,1.856,0,0,1,36.85,33H57.2A1.856,1.856,0,0,1,59.051,34.85Z" transform="translate(-2.474 -2.324)" fill="#5aaae7"/>
        <path id="Trazado_1037545" data-name="Trazado 1037545" d="M53.4,57.546a1.808,1.808,0,0,1,.546,1.3A1.856,1.856,0,0,1,52.1,60.7H42.85a1.85,1.85,0,1,1,0-3.7H52.1A1.808,1.808,0,0,1,53.4,57.546Z" transform="translate(-2.923 -4.123)" fill="#898890"/>
        <rect id="Rectángulo_416078" data-name="Rectángulo 416078" width="6" height="5" transform="translate(41.751 47.751)" fill="#acabb1"/>
        <rect id="Rectángulo_416079" data-name="Rectángulo 416079" width="6" height="1" transform="translate(41.751 47.751)" fill="#898890"/>
        <path id="Trazado_1037546" data-name="Trazado 1037546" d="M54.727,29.751H37.688a4.636,4.636,0,0,0,.389-1.85,4.533,4.533,0,0,0-.305-1.656,4.615,4.615,0,0,0-2.47-8.52v-1.85a13.876,13.876,0,0,0-27.751,0v1.85a4.615,4.615,0,0,0-2.47,8.52A4.533,4.533,0,0,0,4.775,27.9,4.625,4.625,0,0,0,9.4,32.526a4.679,4.679,0,0,0,1.647-.3,4.625,4.625,0,0,0,3.9,2.146,4.729,4.729,0,0,0,1.351-.2,2.793,2.793,0,0,1-1.452,1.064l-7,2.183a6.776,6.776,0,0,0-1.471.629A8.3,8.3,0,0,0,2,45.366V56.577a.925.925,0,0,0,.925.925H49.177a2.775,2.775,0,1,0,0-5.55h-.925v-3.7h6.475A2.783,2.783,0,0,0,57.5,45.477V32.526a2.783,2.783,0,0,0-2.775-2.775ZM33.451,15.876v2.914a.938.938,0,0,0,.37.74.893.893,0,0,0,.8.148,2.722,2.722,0,0,1,.675-.1,2.783,2.783,0,0,1,2.775,2.775,2.746,2.746,0,0,1-1.869,2.6.957.957,0,0,0-.574.592.916.916,0,0,0,.12.814,2.733,2.733,0,0,1-.259,3.395H34.376A2.723,2.723,0,0,0,32.5,30.5a2.442,2.442,0,0,1-.583-.287.912.912,0,0,0-.814-.12.957.957,0,0,0-.592.574A2.741,2.741,0,0,1,26.051,31.8v-.389a10.188,10.188,0,0,0,5.55-9.056v-7.4a.925.925,0,0,0-.925-.925,7.169,7.169,0,0,1-5.754-2.507c.139-.148.268-.287.389-.435a14.03,14.03,0,0,0,2.9-5.125,12,12,0,0,1,5.245,9.916ZM31.6,32.508v3.848L28,35.237a2.793,2.793,0,0,1-1.452-1.064,4.729,4.729,0,0,0,1.351.2,4.612,4.612,0,0,0,3.7-1.869ZM21.426,30.676A8.338,8.338,0,0,1,13.1,22.351V16.782a17.794,17.794,0,0,0,10.462-4,8.758,8.758,0,0,0,6.189,3.053v6.512A8.338,8.338,0,0,1,21.426,30.676Zm-6.475,1.85a2.761,2.761,0,0,1-2.609-1.859.957.957,0,0,0-.592-.574.919.919,0,0,0-.8.111A2.775,2.775,0,0,1,7.1,26.356a.916.916,0,0,0,.12-.814.957.957,0,0,0-.574-.592,2.746,2.746,0,0,1-1.869-2.6A2.783,2.783,0,0,1,7.55,19.576a2.722,2.722,0,0,1,.675.1.9.9,0,0,0,.8-.148.938.938,0,0,0,.37-.74V15.876A12,12,0,0,1,26.541,5.006a12.271,12.271,0,0,1-2.627,4.866,9.377,9.377,0,0,1-.8.833,15.834,15.834,0,0,1-10.943,4.246.925.925,0,0,0-.925.925v6.475a10.188,10.188,0,0,0,5.55,9.056V31.8A2.758,2.758,0,0,1,14.951,32.526Zm.453,4.468a4.6,4.6,0,0,0,3.247-4.412v-.453a9.879,9.879,0,0,0,5.55,0v.453a4.6,4.6,0,0,0,3.247,4.412L31.6,38.3v1.415a41.708,41.708,0,0,1-10.175,1.138,34.989,34.989,0,0,1-12.4-1.859ZM32.369,53.46a4.4,4.4,0,0,0-.74,2.192H11.223a4.4,4.4,0,0,0-.74-2.183A6.285,6.285,0,0,1,9.4,50.1a6.114,6.114,0,0,1,1.582-3.968L9.669,44.82A8.069,8.069,0,0,0,7.55,50.1a8.191,8.191,0,0,0,1.406,4.412,2.456,2.456,0,0,1,.416,1.138H3.85V45.366a6.445,6.445,0,0,1,2.951-5.4C9.585,41.638,15.2,42.7,21.426,42.7A44.73,44.73,0,0,0,31.6,41.629v3.848a2.775,2.775,0,0,0,1.36,2.377,5.94,5.94,0,0,1,.49,2.248,6.23,6.23,0,0,1-1.082,3.358Zm4.949,2.192H33.479a2.383,2.383,0,0,1,.416-1.138A8.191,8.191,0,0,0,35.3,50.1a7.216,7.216,0,0,0-.25-1.85h5.8v3.7h-.925a2.757,2.757,0,0,0-2.609,3.7ZM49.177,53.8a.925.925,0,1,1,0,1.85h-9.25a.925.925,0,1,1,0-1.85ZM42.7,51.952v-3.7h3.7v3.7Zm12.951-6.475a.925.925,0,0,1-.925.925H34.376a.925.925,0,0,1-.925-.925v-.925h22.2Zm0-2.775h-22.2V32.526a.925.925,0,0,1,.925-.925H54.727a.925.925,0,0,1,.925.925Z" transform="translate(0)"/>
        <path id="Trazado_1037547" data-name="Trazado 1037547" d="M43.046,43.151l1.308-1.308-2.121-2.121L44.354,37.6l-1.308-1.308-2.775,2.775a.925.925,0,0,0,0,1.308Z" transform="translate(-2.848 -2.571)"/>
        <path id="Trazado_1037548" data-name="Trazado 1037548" d="M52.6,43.151l2.775-2.775a.925.925,0,0,0,0-1.308L52.6,36.293,51.293,37.6l2.121,2.121-2.121,2.121Z" transform="translate(-3.695 -2.571)"/>
        <rect id="Rectángulo_416080" data-name="Rectángulo 416080" width="7.628" height="1.849" transform="translate(42.729 40.627) rotate(-75.95)"/>
      </g>
    </g>
  </g>
</svg>
