<svg xmlns="http://www.w3.org/2000/svg" xmlns:xlink="http://www.w3.org/1999/xlink" width="113" height="113" viewBox="0 0 113 113">
  <defs>
    <filter id="Trazado_982547" x="0" y="0" width="113" height="113" filterUnits="userSpaceOnUse">
      <feOffset dy="3" input="SourceAlpha"/>
      <feGaussianBlur stdDeviation="3" result="blur"/>
      <feFlood flood-opacity="0.161"/>
      <feComposite operator="in" in2="blur"/>
      <feComposite in="SourceGraphic"/>
    </filter>
  </defs>
  <g id="Grupo_1177776" data-name="Grupo 1177776" transform="translate(-743 -3309.802)">
    <g id="Grupo_1177665" data-name="Grupo 1177665" transform="translate(-0.5 1347.627)">
      <g id="Grupo_1173869" data-name="Grupo 1173869" transform="translate(752.5 1968.175)">
        <g id="Grupo_1172010" data-name="Grupo 1172010">
          <g id="Grupo_1171046" data-name="Grupo 1171046">
            <g id="Grupo_1148525" data-name="Grupo 1148525">
              <g transform="matrix(1, 0, 0, 1, -9, -6)" filter="url(#Trazado_982547)">
                <g id="Trazado_982547-2" data-name="Trazado 982547" transform="translate(9 6)" fill="#fbecfd">
                  <path d="M 47.5 93.5 C 41.28937149047852 93.5 35.26533508300781 92.28397369384766 29.59518623352051 89.88570404052734 C 24.11771965026855 87.56893157958984 19.19813346862793 84.25196075439453 14.97309303283691 80.02691650390625 C 10.74804019927979 75.80186462402344 7.431066513061523 70.88229370117188 5.114293098449707 65.40481567382812 C 2.716026782989502 59.73468017578125 1.5 53.71062850952148 1.5 47.5 C 1.5 41.28937149047852 2.716026782989502 35.26533508300781 5.114293098449707 29.59518623352051 C 7.431066513061523 24.11771965026855 10.74804019927979 19.19813346862793 14.97309303283691 14.97309303283691 C 19.19813346862793 10.74804019927979 24.11771965026855 7.431066513061523 29.59518623352051 5.114293098449707 C 35.26533508300781 2.716026782989502 41.28937149047852 1.5 47.5 1.5 C 53.71062850952148 1.5 59.73468017578125 2.716026782989502 65.40481567382812 5.114293098449707 C 70.88229370117188 7.431066513061523 75.80186462402344 10.74804019927979 80.02691650390625 14.97309303283691 C 84.25196075439453 19.19813346862793 87.56893157958984 24.11771965026855 89.88570404052734 29.59518623352051 C 92.28397369384766 35.26533508300781 93.5 41.28937149047852 93.5 47.5 C 93.5 53.71062850952148 92.28397369384766 59.73468017578125 89.88570404052734 65.40481567382812 C 87.56893157958984 70.88229370117188 84.25196075439453 75.80186462402344 80.02691650390625 80.02691650390625 C 75.80186462402344 84.25196075439453 70.88229370117188 87.56893157958984 65.40481567382812 89.88570404052734 C 59.73468017578125 92.28397369384766 53.71062850952148 93.5 47.5 93.5 Z" stroke="none"/>
                  <path d="M 47.5 3 C 41.49121475219727 3 35.66376876831055 4.176155090332031 30.17950439453125 6.495796203613281 C 24.88084411621094 8.736953735351562 20.12152099609375 11.94598388671875 16.03375244140625 16.03375244140625 C 11.94598388671875 20.12152099609375 8.736953735351562 24.88084411621094 6.495796203613281 30.17950439453125 C 4.176155090332031 35.66376876831055 3 41.49121475219727 3 47.5 C 3 53.50878524780273 4.176155090332031 59.33623123168945 6.495796203613281 64.82049560546875 C 8.736953735351562 70.11915588378906 11.94598388671875 74.87847900390625 16.03375244140625 78.96624755859375 C 20.12152099609375 83.05401611328125 24.88084411621094 86.26304626464844 30.17950439453125 88.50419616699219 C 35.66376876831055 90.82384490966797 41.49121475219727 92 47.5 92 C 53.50878524780273 92 59.33623123168945 90.82384490966797 64.82049560546875 88.50419616699219 C 70.11915588378906 86.26304626464844 74.87847900390625 83.05401611328125 78.96624755859375 78.96624755859375 C 83.05401611328125 74.87847900390625 86.26304626464844 70.11915588378906 88.50419616699219 64.82049560546875 C 90.82384490966797 59.33623123168945 92 53.50878524780273 92 47.5 C 92 41.49121475219727 90.82384490966797 35.66376876831055 88.50419616699219 30.17950439453125 C 86.26304626464844 24.88084411621094 83.05401611328125 20.12152099609375 78.96624755859375 16.03375244140625 C 74.87847900390625 11.94598388671875 70.11915588378906 8.736953735351562 64.82049560546875 6.495796203613281 C 59.33623123168945 4.176155090332031 53.50878524780273 3 47.5 3 M 47.5 0 C 73.7335205078125 0 95 21.2664794921875 95 47.5 C 95 73.7335205078125 73.7335205078125 95 47.5 95 C 21.2664794921875 95 0 73.7335205078125 0 47.5 C 0 21.2664794921875 21.2664794921875 0 47.5 0 Z" stroke="none" fill="#da53f2"/>
                </g>
              </g>
            </g>
          </g>
        </g>
      </g>
    </g>
    <g id="statistics_18649084_1_" data-name="statistics_18649084 (1)" transform="translate(768.234 3335.307)">
      <g id="Grupo_1177775" data-name="Grupo 1177775" transform="translate(5.661 1.306)">
        <g id="Grupo_1177766" data-name="Grupo 1177766" transform="translate(10.889 40.035)">
          <path id="Trazado_1037287" data-name="Trazado 1037287" d="M114.6,380.023h6.124v12.606H114.6Z" transform="translate(-114.596 -380.023)" fill="#05e39c" fill-rule="evenodd"/>
        </g>
        <g id="Grupo_1177767" data-name="Grupo 1177767" transform="translate(22.002 35.014)">
          <path id="Trazado_1037288" data-name="Trazado 1037288" d="M217.868,333.357h6.124v17.624h-6.124Z" transform="translate(-217.868 -333.357)" fill="#ffca28" fill-rule="evenodd"/>
        </g>
        <g id="Grupo_1177768" data-name="Grupo 1177768" transform="translate(33.115 26.597)">
          <path id="Trazado_1037289" data-name="Trazado 1037289" d="M321.14,255.144h6.124v26.044H321.14Z" transform="translate(-321.14 -255.144)" fill="red" fill-rule="evenodd"/>
        </g>
        <g id="Grupo_1177769" data-name="Grupo 1177769" transform="translate(44.229 21.89)">
          <path id="Trazado_1037290" data-name="Trazado 1037290" d="M424.412,211.4h6.124V242.15h-6.124Z" transform="translate(-424.412 -211.402)" fill="#31a7fb" fill-rule="evenodd"/>
        </g>
        <g id="Grupo_1177770" data-name="Grupo 1177770" transform="translate(24.315 16.712)">
          <path id="Trazado_1037291" data-name="Trazado 1037291" d="M243.745,172.052a4.382,4.382,0,1,0-4.381-4.381A4.391,4.391,0,0,0,243.745,172.052Z" transform="translate(-239.364 -163.288)" fill="#05e39c" fill-rule="evenodd"/>
        </g>
        <g id="Grupo_1177771" data-name="Grupo 1177771" transform="translate(27.547 21.651)">
          <path id="Trazado_1037292" data-name="Trazado 1037292" d="M277.4,220.351a2,2,0,0,1,3.691-1.54l.656,1.573a2,2,0,0,1,3.689-1.54l.647,1.549a2,2,0,0,1,3.689-1.537l.138.33,1.441,3.452,1.6,3.844a7.93,7.93,0,0,1-4.255,10.337l-.171.069a7.916,7.916,0,0,1-7.844-1.025l-9.858-6.82a2,2,0,0,1,2.274-3.287l3.122,2.157-1.073-2.574-5.582-13.382a2,2,0,0,1,3.691-1.54Z" transform="translate(-269.393 -209.185)" fill="#ffcebf" fill-rule="evenodd"/>
        </g>
        <g id="Grupo_1177772" data-name="Grupo 1177772" transform="translate(0 7.079)">
          <path id="Trazado_1037293" data-name="Trazado 1037293" d="M23.612,73.771c4.785,0,10.2,6.915,10.2,12.549a10.2,10.2,0,1,1-20.4,0C13.412,80.686,18.823,73.771,23.612,73.771Z" transform="translate(-13.412 -73.771)" fill="#05e39c" fill-rule="evenodd"/>
        </g>
        <g id="Grupo_1177773" data-name="Grupo 1177773" transform="translate(6.041 5.611)">
          <path id="Trazado_1037294" data-name="Trazado 1037294" d="M70.794,60.127H76.61a1.251,1.251,0,1,1,0,2.5H70.794a1.251,1.251,0,0,1,0-2.5Z" transform="translate(-69.545 -60.127)" fill="#12c78b" fill-rule="evenodd"/>
        </g>
        <g id="Grupo_1177774" data-name="Grupo 1177774" transform="translate(4.923)">
          <path id="Trazado_1037295" data-name="Trazado 1037295" d="M61.7,13.6h5.477l1.84-3.913c-1.537-.189-3.485.494-4.611-.566-1.375-1.291-3.146-1.435-5.244-.644Z" transform="translate(-59.159 -7.99)" fill="#05e39c" fill-rule="evenodd"/>
        </g>
      </g>
      <path id="Trazado_1037296" data-name="Trazado 1037296" d="M57.776,53.986h-.384V48.653a8.523,8.523,0,0,0,.706-8.115l-.706-1.694V23.5a.752.752,0,0,0-.752-.752H50.415a.752.752,0,0,0-.752.752v8.168A2.752,2.752,0,0,0,46.83,31.3a3.019,3.019,0,0,0-.729.434V28.278a.752.752,0,0,0-.752-.752H39.47l-.7-1.68a5.2,5.2,0,1,0-7.367.917l-9.672,9.552H11.311V31.346A11.111,11.111,0,0,0,26.954,21.2a14.153,14.153,0,0,0-2.219-7.128,15.855,15.855,0,0,0-4.271-4.7A2.016,2.016,0,0,0,19.7,6.42L21.171,3.3a.752.752,0,0,0-.589-1.066,9.9,9.9,0,0,0-1.791,0,3.426,3.426,0,0,1-2.471-.378C14.753.38,12.7.108,10.215,1.045a.752.752,0,0,0-.408,1.037l2.153,4.346a2.017,2.017,0,0,0-.744,2.938,15.855,15.855,0,0,0-4.271,4.7A14.153,14.153,0,0,0,4.726,21.2a11.116,11.116,0,0,0,5.081,9.331V54.738a.752.752,0,0,0,.752.752H57.776a.752.752,0,0,0,0-1.5ZM12.885,8.745a.519.519,0,1,1,0-1.038h5.909a.519.519,0,1,1,0,1.038Zm2.4-5.793c1,.941,2.378.857,3.592.783.147-.009.292-.018.434-.025L18.144,6.2H13.525L11.541,2.2A3.717,3.717,0,0,1,15.29,2.951ZM6.23,21.2c0-3.942,2.852-8.794,6.4-10.965a2.018,2.018,0,0,0,.251.017h5.909a2.018,2.018,0,0,0,.251-.017c3.552,2.171,6.4,7.024,6.4,10.965a9.61,9.61,0,1,1-19.22,0ZM33.3,41.447a2.671,2.671,0,0,0,0,.777V53.986H28.583v-16.4H33.3Zm1.5,2.818,3.562,2.464v7.257H34.809Zm5.066,3.5,4.624,3.2.1.071v2.946H39.875V47.77ZM46.1,51.948a8.486,8.486,0,0,0,3.562.837v1.2H46.1Zm5.066.726a9.321,9.321,0,0,0,4.164-1.818q.291-.225.559-.466v3.6H51.167Zm4.722-28.426V35.237l-1.02-2.447a2.688,2.688,0,0,0-3.634-1.484l-.068.031v-7.09h4.722Zm-8.48,8.436a1.2,1.2,0,0,1,1.667.672l.652,1.569,0,.005c.007.016.015.031.022.046L50.99,37.95a.752.752,0,0,0,1.388-.578L51.1,34.3a1.279,1.279,0,0,1,2.382-.93l3.23,7.749a7.127,7.127,0,0,1-2.3,8.547,7.877,7.877,0,0,1-3.928,1.585c-.023,0-.046,0-.069,0a.75.75,0,0,0-.193.026,7.036,7.036,0,0,1-4.825-1.51l-.028-.02L35.352,42.812a1.243,1.243,0,0,1-.543-.743v-.5a1.493,1.493,0,0,1,.232-.523,1.275,1.275,0,0,1,1.021-.591,1.307,1.307,0,0,1,.746.258L39.98,42.9a.752.752,0,0,0,1.122-.908l-1.09-2.615L34.786,26.851a.74.74,0,0,0-.033-.078l-.414-.992A1.28,1.28,0,0,1,36.7,24.8l.488,1.17a.745.745,0,0,0,.031.074l1.2,2.877c.006.016.013.032.02.048l2.468,5.919,0,.005h0L42.207,38a.752.752,0,1,0,1.388-.579L42.3,34.31h0l0,0a1.153,1.153,0,0,1,.108-1.212,1.49,1.49,0,0,1,1.317-.549,1.152,1.152,0,0,1,.937.779l.641,1.536,0,.005,1.3,3.111a.752.752,0,0,0,1.388-.58l-1.273-3.048,0,0a1.2,1.2,0,0,1,.7-1.659ZM44.6,29.03v2.207a2.619,2.619,0,0,0-.683-.184,2.981,2.981,0,0,0-2.571.965L40.1,29.03ZM34.635,18.986a3.7,3.7,0,0,1,3.411,5.131A2.79,2.79,0,0,0,32.8,25.9a3.7,3.7,0,0,1,1.838-6.91ZM11.311,37.82H22.04a.752.752,0,0,0,.528-.217L32.758,27.54a5.159,5.159,0,0,0,.783.234l5.187,12.435-1.065-.736a2.626,2.626,0,0,0-2.854-.2V36.83a.752.752,0,0,0-.752-.752H27.831a.752.752,0,0,0-.752.752V53.986H23.517V41.933a.752.752,0,0,0-.752-.752H16.539a.752.752,0,0,0-.752.752V53.986H11.311Zm10.7,16.166H17.291v-11.3h4.722Zm27.279-42.76a4.236,4.236,0,1,1,4.99,4.167v2.221a.752.752,0,1,1-1.5,0v-2.9a.752.752,0,0,1,.752-.752A2.734,2.734,0,1,0,50.8,11.226a.752.752,0,1,1-1.5,0ZM54.061,19.6a.752.752,0,0,1,0,1.063.683.683,0,0,1-.114.093.749.749,0,0,1-.13.07.8.8,0,0,1-.141.043A.757.757,0,0,1,53,20.663a.8.8,0,0,1-.093-.114.752.752,0,0,1-.069-.13.711.711,0,0,1-.043-.141.75.75,0,0,1-.015-.147A.761.761,0,0,1,53,19.6a.75.75,0,0,1,.115-.093.7.7,0,0,1,.129-.069.747.747,0,0,1,.435-.043.7.7,0,0,1,.141.043.762.762,0,0,1,.13.069.783.783,0,0,1,.114.093ZM15.842,26.442a.752.752,0,0,1-.752-.752V24.442h-2.2a.752.752,0,1,1,0-1.5h4.159a.945.945,0,0,0,.748-.3,1.112,1.112,0,0,0,.252-.727.971.971,0,0,0-1-1.026H14.636a2.438,2.438,0,0,1-2.5-2.53,2.6,2.6,0,0,1,.624-1.718,2.449,2.449,0,0,1,1.879-.812h.454V14.581a.752.752,0,0,1,1.5,0v1.245h2.2a.752.752,0,1,1,0,1.5H14.636a.945.945,0,0,0-.748.3,1.112,1.112,0,0,0-.252.727.971.971,0,0,0,1,1.026h2.408a2.438,2.438,0,0,1,2.5,2.53,2.6,2.6,0,0,1-.624,1.718,2.449,2.449,0,0,1-1.879.812h-.451V25.69A.752.752,0,0,1,15.842,26.442Z" transform="translate(0 0)"/>
    </g>
  </g>
</svg>
