<svg xmlns="http://www.w3.org/2000/svg" xmlns:xlink="http://www.w3.org/1999/xlink" width="113" height="113" viewBox="0 0 113 113">
  <defs>
    <filter id="Trazado_982547" x="0" y="0" width="113" height="113" filterUnits="userSpaceOnUse">
      <feOffset dy="3" input="SourceAlpha"/>
      <feGaussianBlur stdDeviation="3" result="blur"/>
      <feFlood flood-opacity="0.161"/>
      <feComposite operator="in" in2="blur"/>
      <feComposite in="SourceGraphic"/>
    </filter>
  </defs>
  <g id="Grupo_1177795" data-name="Grupo 1177795" transform="translate(-1163.5 -3309.802)">
    <g id="Grupo_1177664" data-name="Grupo 1177664" transform="translate(1172.5 3315.802)">
      <g id="Grupo_1172010" data-name="Grupo 1172010">
        <g id="Grupo_1171046" data-name="Grupo 1171046">
          <g id="Grupo_1148525" data-name="Grupo 1148525">
            <g transform="matrix(1, 0, 0, 1, -9, -6)" filter="url(#Trazado_982547)">
              <g id="Trazado_982547-2" data-name="Trazado 982547" transform="translate(9 6)" fill="#fbecfd">
                <path d="M 47.5 93.5 C 41.28937149047852 93.5 35.26533508300781 92.28397369384766 29.59518623352051 89.88570404052734 C 24.11771965026855 87.56893157958984 19.19813346862793 84.25196075439453 14.97309303283691 80.02691650390625 C 10.74804019927979 75.80186462402344 7.431066513061523 70.88229370117188 5.114293098449707 65.40481567382812 C 2.716026782989502 59.73468017578125 1.5 53.71062850952148 1.5 47.5 C 1.5 41.28937149047852 2.716026782989502 35.26533508300781 5.114293098449707 29.59518623352051 C 7.431066513061523 24.11771965026855 10.74804019927979 19.19813346862793 14.97309303283691 14.97309303283691 C 19.19813346862793 10.74804019927979 24.11771965026855 7.431066513061523 29.59518623352051 5.114293098449707 C 35.26533508300781 2.716026782989502 41.28937149047852 1.5 47.5 1.5 C 53.71062850952148 1.5 59.73468017578125 2.716026782989502 65.40481567382812 5.114293098449707 C 70.88229370117188 7.431066513061523 75.80186462402344 10.74804019927979 80.02691650390625 14.97309303283691 C 84.25196075439453 19.19813346862793 87.56893157958984 24.11771965026855 89.88570404052734 29.59518623352051 C 92.28397369384766 35.26533508300781 93.5 41.28937149047852 93.5 47.5 C 93.5 53.71062850952148 92.28397369384766 59.73468017578125 89.88570404052734 65.40481567382812 C 87.56893157958984 70.88229370117188 84.25196075439453 75.80186462402344 80.02691650390625 80.02691650390625 C 75.80186462402344 84.25196075439453 70.88229370117188 87.56893157958984 65.40481567382812 89.88570404052734 C 59.73468017578125 92.28397369384766 53.71062850952148 93.5 47.5 93.5 Z" stroke="none"/>
                <path d="M 47.5 3 C 41.49121475219727 3 35.66376876831055 4.176155090332031 30.17950439453125 6.495796203613281 C 24.88084411621094 8.736953735351562 20.12152099609375 11.94598388671875 16.03375244140625 16.03375244140625 C 11.94598388671875 20.12152099609375 8.736953735351562 24.88084411621094 6.495796203613281 30.17950439453125 C 4.176155090332031 35.66376876831055 3 41.49121475219727 3 47.5 C 3 53.50878524780273 4.176155090332031 59.33623123168945 6.495796203613281 64.82049560546875 C 8.736953735351562 70.11915588378906 11.94598388671875 74.87847900390625 16.03375244140625 78.96624755859375 C 20.12152099609375 83.05401611328125 24.88084411621094 86.26304626464844 30.17950439453125 88.50419616699219 C 35.66376876831055 90.82384490966797 41.49121475219727 92 47.5 92 C 53.50878524780273 92 59.33623123168945 90.82384490966797 64.82049560546875 88.50419616699219 C 70.11915588378906 86.26304626464844 74.87847900390625 83.05401611328125 78.96624755859375 78.96624755859375 C 83.05401611328125 74.87847900390625 86.26304626464844 70.11915588378906 88.50419616699219 64.82049560546875 C 90.82384490966797 59.33623123168945 92 53.50878524780273 92 47.5 C 92 41.49121475219727 90.82384490966797 35.66376876831055 88.50419616699219 30.17950439453125 C 86.26304626464844 24.88084411621094 83.05401611328125 20.12152099609375 78.96624755859375 16.03375244140625 C 74.87847900390625 11.94598388671875 70.11915588378906 8.736953735351562 64.82049560546875 6.495796203613281 C 59.33623123168945 4.176155090332031 53.50878524780273 3 47.5 3 M 47.5 0 C 73.7335205078125 0 95 21.2664794921875 95 47.5 C 95 73.7335205078125 73.7335205078125 95 47.5 95 C 21.2664794921875 95 0 73.7335205078125 0 47.5 C 0 21.2664794921875 21.2664794921875 0 47.5 0 Z" stroke="none" fill="#da53f2"/>
              </g>
            </g>
          </g>
        </g>
      </g>
    </g>
    <g id="market-analysis_3045742_1_" data-name="market-analysis_3045742 (1)" transform="translate(1191.957 3336.38)">
      <g id="Grupo_1177793" data-name="Grupo 1177793" transform="translate(1.914 1.996)">
        <g id="Grupo_1177777" data-name="Grupo 1177777" transform="translate(0.082 0)">
          <path id="Trazado_1037297" data-name="Trazado 1037297" d="M14.419,3.534A20.091,20.091,0,0,0,2.09,20.286H7.619a14.384,14.384,0,0,1,1-3.765A14.691,14.691,0,0,1,16.52,8.615a14.384,14.384,0,0,1,3.765-1V2.09A20.161,20.161,0,0,0,14.419,3.534Z" transform="translate(-2.09 -2.09)" fill="#fcd770"/>
        </g>
        <g id="Grupo_1177778" data-name="Grupo 1177778" transform="translate(21.934 0)">
          <path id="Trazado_1037298" data-name="Trazado 1037298" d="M40.595,10.525a19.992,19.992,0,0,0-8.737-6.982A19.615,19.615,0,0,0,26,2.09V7.619a14.384,14.384,0,0,1,3.765,1,14.592,14.592,0,0,1,6.507,5.31l.009.009a12.634,12.634,0,0,1,4.332-3.372v-.009Z" transform="translate(-26 -2.09)" fill="#ff826e"/>
        </g>
        <g id="Grupo_1177779" data-name="Grupo 1177779" transform="translate(0.082 21.851)">
          <path id="Trazado_1037299" data-name="Trazado 1037299" d="M11.786,34.5a14.564,14.564,0,0,1-3.171-4.734,14.384,14.384,0,0,1-1-3.765H2.09a20.317,20.317,0,0,0,1.453,5.867A20,20,0,0,0,7.9,38.383c.3.311.621.612.95.9h.009l10.958.777.466.037V38.667a14.511,14.511,0,0,1-8.5-4.167Z" transform="translate(-2.09 -26)" fill="#e6e9ed"/>
        </g>
        <g id="Grupo_1177780" data-name="Grupo 1177780" transform="translate(0 34.646)">
          <path id="Trazado_1037300" data-name="Trazado 1037300" d="M8.854,40.494l10.958.777a7.315,7.315,0,0,0,0,12.082L2,54.622V40l6.845.494Z" transform="translate(-2 -40)" fill="#b4dd7f"/>
        </g>
        <g id="Grupo_1177781" data-name="Grupo 1177781" transform="translate(14.622 35.916)">
          <path id="Trazado_1037301" data-name="Trazado 1037301" d="M28.967,41.947V52.914l-7.777.557a7.315,7.315,0,0,1,0-12.082l.466.037Z" transform="translate(-18 -41.39)" fill="#a0d468"/>
        </g>
        <g id="Grupo_1177782" data-name="Grupo 1177782" transform="translate(17.988 39.907)">
          <circle id="Elipse_12511" data-name="Elipse 12511" cx="2" cy="2" r="2" transform="translate(0.141 -0.284)" fill="#e6e9ed"/>
        </g>
        <g id="Grupo_1177783" data-name="Grupo 1177783" transform="translate(42.039 47.441)">
          <path id="Trazado_1037302" data-name="Trazado 1037302" d="M53.483,54a1.833,1.833,0,0,1,1.828,1.828,1.841,1.841,0,0,1-1.828,1.828H49.828A1.833,1.833,0,0,1,48,55.828,1.841,1.841,0,0,1,49.828,54Z" transform="translate(-48 -54)" fill="#f0d0b4"/>
        </g>
        <g id="Grupo_1177784" data-name="Grupo 1177784" transform="translate(45.695 36.474)">
          <path id="Trazado_1037303" data-name="Trazado 1037303" d="M55.656,42a1.833,1.833,0,0,1,1.828,1.828,1.841,1.841,0,0,1-1.828,1.828H52V42Z" transform="translate(-52 -42)" fill="#f0d0b4"/>
        </g>
        <g id="Grupo_1177785" data-name="Grupo 1177785" transform="translate(42.039 40.129)">
          <path id="Trazado_1037304" data-name="Trazado 1037304" d="M53.483,46a1.833,1.833,0,0,1,1.828,1.828,1.841,1.841,0,0,1-1.828,1.828H49.828A1.833,1.833,0,0,1,48,47.828,1.841,1.841,0,0,1,49.828,46h3.656Z" transform="translate(-48 -46)" fill="#f0d0b4"/>
        </g>
        <g id="Grupo_1177786" data-name="Grupo 1177786" transform="translate(42.039 43.785)">
          <path id="Trazado_1037305" data-name="Trazado 1037305" d="M53.483,50a1.833,1.833,0,0,1,1.828,1.828,1.841,1.841,0,0,1-1.828,1.828H49.828A1.833,1.833,0,0,1,48,51.828,1.841,1.841,0,0,1,49.828,50Z" transform="translate(-48 -50)" fill="#f0d0b4"/>
        </g>
        <g id="Grupo_1177787" data-name="Grupo 1177787" transform="translate(25.589 32.818)">
          <path id="Trazado_1037306" data-name="Trazado 1037306" d="M42.795,41.656V56.278H36.489a5.462,5.462,0,0,1-3.418-1.2L30,52.622V41.656L33.071,39.2A5.462,5.462,0,0,1,36.489,38h9.048a.917.917,0,0,1,.914.914,2.746,2.746,0,0,1-2.742,2.742Z" transform="translate(-30 -38)" fill="#f0d0b4"/>
        </g>
        <g id="Grupo_1177788" data-name="Grupo 1177788" transform="translate(38.384 32.288)">
          <path id="Trazado_1037307" data-name="Trazado 1037307" d="M47.656,37.95a12.673,12.673,0,0,0,3.656-.53v7.841H49.483a1.841,1.841,0,0,0-1.828,1.828,1.833,1.833,0,0,0,1.828,1.828,1.841,1.841,0,0,0-1.828,1.828,1.833,1.833,0,0,0,1.828,1.828A1.841,1.841,0,0,0,47.656,54.4a1.833,1.833,0,0,0,1.828,1.828h1.828v1.828a1.833,1.833,0,0,1-1.828,1.828H45.828A1.833,1.833,0,0,1,44,58.056V41.606h.914a2.746,2.746,0,0,0,2.742-2.742.917.917,0,0,0-.914-.914v-.037C47.043,37.941,47.345,37.95,47.656,37.95Z" transform="translate(-44 -37.42)" fill="#969faa"/>
        </g>
        <g id="Grupo_1177789" data-name="Grupo 1177789" transform="translate(29.245 7.229)">
          <path id="Trazado_1037308" data-name="Trazado 1037308" d="M50.45,35.059a12.673,12.673,0,0,1-3.656.53c-.311,0-.612-.009-.914-.037A12.778,12.778,0,0,1,36.97,14.615,12.634,12.634,0,0,1,41.3,11.243v-.009A12.794,12.794,0,1,1,50.45,35.05Z" transform="translate(-34 -10)" fill="#ffc729"/>
        </g>
        <g id="Grupo_1177790" data-name="Grupo 1177790" transform="translate(32.655 10.574)">
          <ellipse id="Elipse_12512" data-name="Elipse 12512" cx="9" cy="9.5" rx="9" ry="9.5" transform="translate(0.474 0.05)" fill="#fcd770"/>
        </g>
        <g id="Grupo_1177791" data-name="Grupo 1177791" transform="translate(21.02 14.54)">
          <path id="Trazado_1037309" data-name="Trazado 1037309" d="M25,18h3.656V30.795H25Z" transform="translate(-25 -18)" fill="#ff826e"/>
        </g>
        <g id="Grupo_1177792" data-name="Grupo 1177792" transform="translate(13.709 18.196)">
          <path id="Trazado_1037310" data-name="Trazado 1037310" d="M17,22h3.656v9.139H17Z" transform="translate(-17 -22)" fill="#ff826e"/>
        </g>
      </g>
      <g id="Grupo_1177794" data-name="Grupo 1177794" transform="translate(1 1.001)">
        <path id="Trazado_1037311" data-name="Trazado 1037311" d="M51.265,37.556H48.523V34.929A13.7,13.7,0,1,0,38.769,9.337,20.965,20.965,0,0,0,23.93,1.091l-1-.09v7.33l.8.1a13.676,13.676,0,0,1,9.247,5.406A13.652,13.652,0,0,0,37.144,33.9H34a6.428,6.428,0,0,0-4,1.4l-2.789,2.232-6.1-.436V35.709l-.8-.1A13.665,13.665,0,0,1,8.43,23.735l-.1-.8H1l.09,1a20.87,20.87,0,0,0,5.3,12.116L1,35.661V52.246l26.211-1.873L30,52.605a6.426,6.426,0,0,0,4,1.4h5.388v.914a2.745,2.745,0,0,0,2.742,2.742h3.656a2.745,2.745,0,0,0,2.742-2.742v-.914h.914a2.73,2.73,0,0,0,2.029-4.57,2.7,2.7,0,0,0,0-3.656,2.7,2.7,0,0,0,.512-2.848,2.735,2.735,0,0,0-.713-5.377Zm-.914,6.4a.915.915,0,0,1-.914.914H45.781a.914.914,0,0,1,0-1.828h3.656A.915.915,0,0,1,50.351,43.953Zm0,3.656a.915.915,0,0,1-.914.914H45.781a.914.914,0,1,1,0-1.828h3.656A.915.915,0,0,1,50.351,47.609ZM24.761,3.027a19.144,19.144,0,0,1,3.75.933L27.1,7.368a15.523,15.523,0,0,0-2.338-.63ZM28.79,8.064l1.408-3.4a19.175,19.175,0,0,1,6.886,5.511,13.774,13.774,0,0,0-2.892,2.234,15.526,15.526,0,0,0-5.4-4.346ZM32.073,22.02A11.881,11.881,0,1,1,43.953,33.9,11.894,11.894,0,0,1,32.073,22.02ZM17.394,36.831l-8.237-.589-.035-.033,2.585-2.585A15.447,15.447,0,0,0,17.394,36.831ZM4.671,30.2l3.384-1.4a15.493,15.493,0,0,0,2.359,3.54L7.83,34.917A19.054,19.054,0,0,1,4.671,30.2Zm2.066-5.434a15.545,15.545,0,0,0,.61,2.347l-3.378,1.4a19.131,19.131,0,0,1-.944-3.746ZM2.828,37.624l14.728,1.052a8.172,8.172,0,0,0,0,10.556L2.828,50.283ZM26.589,48.586l-6.579.47a6.365,6.365,0,0,1,0-10.2l6.579.47ZM34,52.179a4.589,4.589,0,0,1-2.855-1L28.417,49V38.91l2.724-2.18a4.586,4.586,0,0,1,2.854-1h9.044a1.83,1.83,0,0,1-1.828,1.828H36.264l-1.4,1.4A4.539,4.539,0,0,1,31.629,40.3H30.245v1.828h1.385a6.355,6.355,0,0,0,4.524-1.874l.867-.867h2.363V52.179ZM46.7,54.92a.915.915,0,0,1-.914.914H42.126a.915.915,0,0,1-.914-.914V39.384a3.659,3.659,0,0,0,3.656-3.656c0-.016,0-.03,0-.046a13.733,13.733,0,0,0,1.832-.23v5.759h-.914a2.73,2.73,0,0,0-2.029,4.57,2.7,2.7,0,0,0,0,3.656,2.73,2.73,0,0,0,2.029,4.57H46.7Zm2.742-2.742H45.781a.914.914,0,1,1,0-1.828h3.656a.914.914,0,0,1,0,1.828Zm1.828-10.967H48.523V39.384h2.742a.914.914,0,0,1,0,1.828Z" transform="translate(-1 -1.001)"/>
        <path id="Trazado_1037312" data-name="Trazado 1037312" d="M57.106,23.053A10.053,10.053,0,1,0,47.053,33.106,10.065,10.065,0,0,0,57.106,23.053Zm-18.278,0a8.225,8.225,0,1,1,8.225,8.225A8.235,8.235,0,0,1,38.828,23.053Z" transform="translate(-4.1 -2.034)"/>
        <path id="Trazado_1037313" data-name="Trazado 1037313" d="M48.569,29.795V27.967a2.742,2.742,0,0,0,0-5.483H46.742a.914.914,0,1,1,0-1.828h1.828a.915.915,0,0,1,.914.914h1.828a2.745,2.745,0,0,0-2.742-2.742V17H46.742v1.828a2.742,2.742,0,0,0,0,5.483h1.828a.914.914,0,1,1,0,1.828H46.742a.915.915,0,0,1-.914-.914H44a2.745,2.745,0,0,0,2.742,2.742v1.828Z" transform="translate(-4.702 -2.379)"/>
        <path id="Trazado_1037314" data-name="Trazado 1037314" d="M21,47.742A2.742,2.742,0,1,0,23.742,45,2.745,2.745,0,0,0,21,47.742Zm2.742-.914a.914.914,0,1,1-.914.914A.915.915,0,0,1,23.742,46.828Z" transform="translate(-2.722 -4.789)"/>
        <path id="Trazado_1037315" data-name="Trazado 1037315" d="M8.43,20.305A13.664,13.664,0,0,1,20.305,8.431l.8-.1V1l-1,.09A20.979,20.979,0,0,0,1.09,20.11l-.09,1H8.33Zm3.276-9.891L9.115,7.822a19.16,19.16,0,0,1,4.727-3.158l1.4,3.39a15.487,15.487,0,0,0-3.54,2.36Zm7.572-3.676a15.5,15.5,0,0,0-2.346.61l-1.4-3.38a19.114,19.114,0,0,1,3.745-.941ZM7.823,9.115l2.591,2.592a15.453,15.453,0,0,0-2.359,3.54l-3.39-1.4A19.123,19.123,0,0,1,7.823,9.115Zm-4.8,10.163a19.206,19.206,0,0,1,.942-3.746l3.379,1.4a15.652,15.652,0,0,0-.61,2.347Z" transform="translate(-1 -1.001)"/>
        <path id="Trazado_1037316" data-name="Trazado 1037316" d="M23.139,17V29.795H21.311V20.656H15.828v9.139H14v1.828H30.45V29.795H28.622V17Zm1.828,1.828h1.828V29.795H24.967Zm-7.311,3.656h1.828v7.311H17.656Z" transform="translate(-2.119 -2.379)"/>
      </g>
    </g>
  </g>
</svg>
