<svg xmlns="http://www.w3.org/2000/svg" xmlns:xlink="http://www.w3.org/1999/xlink" width="113" height="113" viewBox="0 0 113 113">
  <defs>
    <filter id="Trazado_982547" x="0" y="0" width="113" height="113" filterUnits="userSpaceOnUse">
      <feOffset dy="3" input="SourceAlpha"/>
      <feGaussianBlur stdDeviation="3" result="blur"/>
      <feFlood flood-opacity="0.161"/>
      <feComposite operator="in" in2="blur"/>
      <feComposite in="SourceGraphic"/>
    </filter>
  </defs>
  <g id="Grupo_1177798" data-name="Grupo 1177798" transform="translate(-272 -6334.802)">
    <g id="Grupo_1177720" data-name="Grupo 1177720" transform="translate(281 6340.802)">
      <g id="Grupo_1173868" data-name="Grupo 1173868">
        <g id="Grupo_1172010" data-name="Grupo 1172010">
          <g id="Grupo_1171046" data-name="Grupo 1171046">
            <g id="Grupo_1148525" data-name="Grupo 1148525">
              <g transform="matrix(1, 0, 0, 1, -9, -6)" filter="url(#Trazado_982547)">
                <g id="Trazado_982547-2" data-name="Trazado 982547" transform="translate(9 6)" fill="#fbecfd">
                  <path d="M 47.5 93.5 C 41.28937149047852 93.5 35.26533508300781 92.28397369384766 29.59518623352051 89.88570404052734 C 24.11771965026855 87.56893157958984 19.19813346862793 84.25196075439453 14.97309303283691 80.02691650390625 C 10.74804019927979 75.80186462402344 7.431066513061523 70.88229370117188 5.114293098449707 65.40481567382812 C 2.716026782989502 59.73468017578125 1.5 53.71062850952148 1.5 47.5 C 1.5 41.28937149047852 2.716026782989502 35.26533508300781 5.114293098449707 29.59518623352051 C 7.431066513061523 24.11771965026855 10.74804019927979 19.19813346862793 14.97309303283691 14.97309303283691 C 19.19813346862793 10.74804019927979 24.11771965026855 7.431066513061523 29.59518623352051 5.114293098449707 C 35.26533508300781 2.716026782989502 41.28937149047852 1.5 47.5 1.5 C 53.71062850952148 1.5 59.73468017578125 2.716026782989502 65.40481567382812 5.114293098449707 C 70.88229370117188 7.431066513061523 75.80186462402344 10.74804019927979 80.02691650390625 14.97309303283691 C 84.25196075439453 19.19813346862793 87.56893157958984 24.11771965026855 89.88570404052734 29.59518623352051 C 92.28397369384766 35.26533508300781 93.5 41.28937149047852 93.5 47.5 C 93.5 53.71062850952148 92.28397369384766 59.73468017578125 89.88570404052734 65.40481567382812 C 87.56893157958984 70.88229370117188 84.25196075439453 75.80186462402344 80.02691650390625 80.02691650390625 C 75.80186462402344 84.25196075439453 70.88229370117188 87.56893157958984 65.40481567382812 89.88570404052734 C 59.73468017578125 92.28397369384766 53.71062850952148 93.5 47.5 93.5 Z" stroke="none"/>
                  <path d="M 47.5 3 C 41.49121475219727 3 35.66376876831055 4.176155090332031 30.17950439453125 6.495796203613281 C 24.88084411621094 8.736953735351562 20.12152099609375 11.94598388671875 16.03375244140625 16.03375244140625 C 11.94598388671875 20.12152099609375 8.736953735351562 24.88084411621094 6.495796203613281 30.17950439453125 C 4.176155090332031 35.66376876831055 3 41.49121475219727 3 47.5 C 3 53.50878524780273 4.176155090332031 59.33623123168945 6.495796203613281 64.82049560546875 C 8.736953735351562 70.11915588378906 11.94598388671875 74.87847900390625 16.03375244140625 78.96624755859375 C 20.12152099609375 83.05401611328125 24.88084411621094 86.26304626464844 30.17950439453125 88.50419616699219 C 35.66376876831055 90.82384490966797 41.49121475219727 92 47.5 92 C 53.50878524780273 92 59.33623123168945 90.82384490966797 64.82049560546875 88.50419616699219 C 70.11915588378906 86.26304626464844 74.87847900390625 83.05401611328125 78.96624755859375 78.96624755859375 C 83.05401611328125 74.87847900390625 86.26304626464844 70.11915588378906 88.50419616699219 64.82049560546875 C 90.82384490966797 59.33623123168945 92 53.50878524780273 92 47.5 C 92 41.49121475219727 90.82384490966797 35.66376876831055 88.50419616699219 30.17950439453125 C 86.26304626464844 24.88084411621094 83.05401611328125 20.12152099609375 78.96624755859375 16.03375244140625 C 74.87847900390625 11.94598388671875 70.11915588378906 8.736953735351562 64.82049560546875 6.495796203613281 C 59.33623123168945 4.176155090332031 53.50878524780273 3 47.5 3 M 47.5 0 C 73.7335205078125 0 95 21.2664794921875 95 47.5 C 95 73.7335205078125 73.7335205078125 95 47.5 95 C 21.2664794921875 95 0 73.7335205078125 0 47.5 C 0 21.2664794921875 21.2664794921875 0 47.5 0 Z" stroke="none" fill="#da53f2"/>
                </g>
              </g>
            </g>
          </g>
        </g>
      </g>
    </g>
    <g id="decision-making_18091921" transform="translate(267.031 6307.702)">
      <g id="Grupo_1177797" data-name="Grupo 1177797" transform="translate(27.025 50.163)">
        <path id="Trazado_1037318" data-name="Trazado 1037318" d="M114.509,303.137l-3.982,6.527-4.431-6.753c-1.664-2.541-6.38.7-4.182,2.818l7.59,10.6a2.528,2.528,0,0,0,.62.427,2.4,2.4,0,0,0,3.165-1.026l2.848-5.53v13.488c0,.753.718,1.04,1.42,1.368h14.057a1.4,1.4,0,0,0,1.415-1.368V310.2l2.853,5.53a2.4,2.4,0,0,0,3.165,1.026,2.5,2.5,0,0,0,.616-.427l6.753-10.191c2.194-2.126-1.869-5.877-3.345-3.229l-4.431,7.947-3.977-7.72c-.676-1.308-5.376-1.967-10.08-1.967S115.18,301.829,114.509,303.137Z" transform="translate(-91.027 -264.194)" fill="#b39ccb" fill-rule="evenodd"/>
        <path id="Trazado_1037319" data-name="Trazado 1037319" d="M299.728,233.65l1.522.081c.839.042,1.215.753.839,1.569l-.744,1.634a2.52,2.52,0,0,1-2.2,1.411l-1.522-.086Z" transform="translate(-257.693 -206.861)" fill="#f598a2" fill-rule="evenodd"/>
        <path id="Trazado_1037320" data-name="Trazado 1037320" d="M217.947,303.143l3.977,7.72,4.431-7.947a1.437,1.437,0,0,1,.809-.513,11.867,11.867,0,0,1,2.142,4.119l-6.359,9.816a2.406,2.406,0,0,1-3.781-.6l-2.853-5.53v7.767c-.2-.035-.4-.072-.594-.112-9-1.783-16.3-8.177-16.3-14.276a6.964,6.964,0,0,1,.163-1.513c4.8-1.486,17.234-1.132,18.364,1.067Z" transform="translate(-174.309 -264.2)" fill="#d0c3e1" fill-rule="evenodd"/>
        <path id="Trazado_1037321" data-name="Trazado 1037321" d="M231.643,282.52h7.091v3.147c0,1.728.487,2.506-1.126,3.143a5.273,5.273,0,0,1-4.734,0c-1.513-.834-1.231-1.415-1.231-3.143Z" transform="translate(-201.652 -248.358)" fill="#f598a2" fill-rule="evenodd"/>
        <path id="Trazado_1037322" data-name="Trazado 1037322" d="M214.64,313.085l.792-6.555,5.641,3.951Z" transform="translate(-187.232 -268.745)" fill="#43b3e6" fill-rule="evenodd"/>
        <path id="Trazado_1037323" data-name="Trazado 1037323" d="M263.707,312.771l-.8-6.611-5.632,4.007Z" transform="translate(-223.439 -268.431)" fill="#43b3e6" fill-rule="evenodd"/>
        <path id="Trazado_1037324" data-name="Trazado 1037324" d="M238.725,327.48h3.242l1.205,12.9h-.017l-1.4,2.2-1.406,2.2-1.408-2.2-1.4-2.2h-.017Z" transform="translate(-206.66 -286.534)" fill="#43b3e6" fill-rule="evenodd"/>
        <path id="Trazado_1037325" data-name="Trazado 1037325" d="M253.712,327.48h1.009l1.205,12.9h-.017l-1.4,2.2-.14.222-.4-.632-1.406-2.2h-.018Z" transform="translate(-219.414 -286.534)" fill="#83d4f7" fill-rule="evenodd"/>
        <path id="Trazado_1037326" data-name="Trazado 1037326" d="M245.327,315h1.347a1.146,1.146,0,0,1,1.147,1.147v2.506a1.149,1.149,0,0,1-1.147,1.147h-1.347a1.152,1.152,0,0,1-1.147-1.147v-2.506A1.15,1.15,0,0,1,245.327,315Z" transform="translate(-212.316 -275.937)" fill="#43b3e6" fill-rule="evenodd"/>
        <path id="Trazado_1037327" data-name="Trazado 1037327" d="M218.117,186.37A6.879,6.879,0,0,1,225,193.251c0,3.8-3.079,8.819-6.881,8.819s-6.877-5.021-6.877-8.819A6.878,6.878,0,0,1,218.117,186.37Z" transform="translate(-184.345 -166.714)" fill="#f598a2" fill-rule="evenodd"/>
        <path id="Trazado_1037328" data-name="Trazado 1037328" d="M234.581,186.37a6.879,6.879,0,0,1,6.881,6.881,10.463,10.463,0,0,1-3.746,7.655c-.068,0-.137,0-.205,0-3.8,0-6.881-5.021-6.881-8.819a6.877,6.877,0,0,1,2.951-5.65A7.1,7.1,0,0,1,234.581,186.37Z" transform="translate(-200.81 -166.714)" fill="#f9b5b2" fill-rule="evenodd"/>
        <path id="Trazado_1037329" data-name="Trazado 1037329" d="M75.109,301.11h5.175a2.284,2.284,0,1,1,0,4.568H75.109a2.284,2.284,0,1,1,0-4.568Z" transform="translate(-66.809 -264.143)" fill="#f598a2" fill-rule="evenodd"/>
        <path id="Trazado_1037330" data-name="Trazado 1037330" d="M381.774,306.9H376.6a2.286,2.286,0,1,0,0,4.573h5.175a2.286,2.286,0,0,0,0-4.573Z" transform="translate(-322.812 -269.059)" fill="#f598a2" fill-rule="evenodd"/>
        <path id="Trazado_1037331" data-name="Trazado 1037331" d="M217.129,171.992a5.783,5.783,0,0,1-1.83-2.459q-4.3,1.924-7.492-.594a1.822,1.822,0,0,0-1.865-.266,5.319,5.319,0,0,0-3.25,4.08c-1.056-2.25-1.984-10.769,2.446-9.418C206.583,157.763,220.9,160.046,217.129,171.992Z" transform="translate(-176.343 -144.702)" fill="#6dcff1" fill-rule="evenodd"/>
        <path id="Trazado_1037332" data-name="Trazado 1037332" d="M225.635,182.66a7.871,7.871,0,0,1-1.347-2.075q-4.3,1.924-7.492-.594a1.822,1.822,0,0,0-1.865-.266,5.33,5.33,0,0,0-2.489,2.075c-.214-3.028.4-6.325,3.285-5.448.89-3.429,6.66-3.883,10.08-.932,1.021,1.848,1.334,4.371.321,7.6-.081-.149-.163-.308-.24-.471C225.8,182.587,225.717,182.622,225.635,182.66Z" transform="translate(-185.333 -155.756)" fill="#3ab6e9" fill-rule="evenodd"/>
        <path id="Trazado_1037333" data-name="Trazado 1037333" d="M361.959,176.389a17.383,17.383,0,0,1,6.453-8.131,39.212,39.212,0,0,1-8.348-6.809s-.116,1.492-.347,4.478a12.508,12.508,0,0,0-11.347,15.264,15.641,15.641,0,0,1,12.364-9.858Q361.961,176.389,361.959,176.389Z" transform="translate(-300.521 -145.554)" fill="#43b649" fill-rule="evenodd"/>
        <path id="Trazado_1037334" data-name="Trazado 1037334" d="M372.6,187.343a20.4,20.4,0,0,1,6.453-8.131c-2-1.424-4.636-2.758-6.655-4.863t-.347,4.473A12.494,12.494,0,0,0,360.59,189.1a15.639,15.639,0,0,1,10.786-6.813Q372.6,187.343,372.6,187.343Z" transform="translate(-311.162 -156.508)" fill="#5fbb46" fill-rule="evenodd"/>
        <path id="Trazado_1037335" data-name="Trazado 1037335" d="M107.479,56.09a7.67,7.67,0,1,1-7.669,7.672A7.671,7.671,0,0,1,107.479,56.09Z" transform="translate(-89.727 -56.09)" fill="#fed733" fill-rule="evenodd"/>
        <path id="Trazado_1037336" data-name="Trazado 1037336" d="M130.739,74.112a7.67,7.67,0,0,1-9.688,11.21,7.672,7.672,0,0,1,9.688-11.21Z" transform="translate(-106.642 -70.746)" fill="#feea3a" fill-rule="evenodd"/>
        <path id="Trazado_1037337" data-name="Trazado 1037337" d="M313.8,56.34a7.651,7.651,0,1,1-7.651,7.651A7.65,7.65,0,0,1,313.8,56.34Z" transform="translate(-264.936 -56.302)" fill="#fed733" fill-rule="evenodd"/>
        <path id="Trazado_1037338" data-name="Trazado 1037338" d="M317.9,88.222a7.651,7.651,0,0,1-11-9.758,7.651,7.651,0,0,1,11,9.758Z" transform="translate(-264.936 -74.075)" fill="#feea3a" fill-rule="evenodd"/>
        <path id="Trazado_1037339" data-name="Trazado 1037339" d="M39.433,176.389a17.438,17.438,0,0,0-6.453-8.131,39.213,39.213,0,0,0,8.348-6.809s.116,1.492.347,4.478a12.5,12.5,0,0,1,11.343,15.264,15.635,15.635,0,0,0-12.36-9.858Q39.429,176.389,39.433,176.389Z" transform="translate(-32.98 -145.554)" fill="#43b649" fill-rule="evenodd"/>
        <path id="Trazado_1037340" data-name="Trazado 1037340" d="M39.433,187.343a20.4,20.4,0,0,0-6.453-8.131c1.993-1.424,4.632-2.758,6.655-4.863t.342,4.473A12.509,12.509,0,0,1,51.444,189.1a15.639,15.639,0,0,0-10.786-6.813Q39.429,187.343,39.433,187.343Z" transform="translate(-32.98 -156.508)" fill="#5fbb46" fill-rule="evenodd"/>
        <path id="Trazado_1037341" data-name="Trazado 1037341" d="M190.623,233.65l-1.522.081c-.839.042-1.219.753-.842,1.569l.748,1.634a2.511,2.511,0,0,0,2.2,1.411l1.522-.086Z" transform="translate(-164.708 -206.861)" fill="#f598a2" fill-rule="evenodd"/>
      </g>
      <path id="Trazado_1037342" data-name="Trazado 1037342" d="M52.281,78.043l-.783.042.779,1.715a1.5,1.5,0,0,0,1.172.8Zm-.919-2.062.312-.017c-.324-1.993-.436-4.858.534-6.655a2.98,2.98,0,0,1,2.947-1.7c2.839-5.487,16.187-2.8,14.131,8.3l1.347.072a2.051,2.051,0,0,1,1.746,3.063l-.744,1.634A3.577,3.577,0,0,1,68.418,82.7l-1.536-.081a10.539,10.539,0,0,1-1.72,2.075v1.613c2.028.2,5.594.685,6.436,2.322l3.079,5.97L77.6,89.36a3.352,3.352,0,0,1,.851-1.429,3.312,3.312,0,0,1,2.361-.984h5.175a3.343,3.343,0,0,1,0,6.685H82.671l-6.128,9.25a3.079,3.079,0,0,1-1.04.8,3.453,3.453,0,0,1-4.559-1.492l-.86-1.664v9.14a2.462,2.462,0,0,1-2.471,2.429H53.556a1.187,1.187,0,0,1-.569-.158c-.97-.453-1.9-.89-1.9-2.271v-9.14l-.86,1.664A3.459,3.459,0,0,1,45.2,103.4a2.586,2.586,0,0,1-.552-.487l-7.28-10.157H35.324a3.342,3.342,0,0,1,0-6.684H40.5a3.348,3.348,0,0,1,3.34,3.34c0,.065,0,.128,0,.193l2.66,4.058,3.1-5.081c.928-1.608,4.315-2.065,6.373-2.275l0-2.079a10.907,10.907,0,0,1-1.236-1.595,4.246,4.246,0,0,1-3.045-.483,3.578,3.578,0,0,1-1.322-1.476l-.748-1.634a2.052,2.052,0,0,1,1.744-3.066Zm-18.868,5.4a16.421,16.421,0,0,0-6.039-7.621,1.05,1.05,0,0,1,.091-1.826,31.92,31.92,0,0,0,3.969-2.793,45.6,45.6,0,0,0,4.1-3.807,1.055,1.055,0,0,1,1.809.655v0l.278,3.6A13.572,13.572,0,0,1,48.091,86.038a1.055,1.055,0,0,1-2.035.077,14.584,14.584,0,0,0-10.563-8.956L34.5,81.248A1.054,1.054,0,0,1,32.494,81.379Zm-.963-5.8a19.711,19.711,0,0,1,1.6,2.361l.531-2.189A1.052,1.052,0,0,1,34.85,74.9a16.673,16.673,0,0,1,11.432,7.151A11.439,11.439,0,0,0,35.676,71.6a1.054,1.054,0,0,1-1.009-.979l-.17-2.189A40.013,40.013,0,0,1,28.91,72.94a16.588,16.588,0,0,1,2.621,2.643ZM72.155,59.357a1.054,1.054,0,1,1,1.331-1.634l1.881,1.536,2.793-5.017A1.052,1.052,0,0,1,80,55.266l-3.506,6.27a1.057,1.057,0,0,1-1.485.149Zm3.734-10.213a8.707,8.707,0,1,1-8.707,8.707A8.705,8.705,0,0,1,75.889,49.145Zm4.66,4.046a6.6,6.6,0,1,0,0,9.327A6.6,6.6,0,0,0,80.55,53.191ZM46.611,54.448a1.057,1.057,0,1,1,1.492,1.5l-1.835,1.835,1.951,1.946a1.057,1.057,0,0,1-1.5,1.492l-1.946-1.946-1.951,1.946a1.055,1.055,0,0,1-1.492-1.492l1.951-1.946L41.45,55.945a1.057,1.057,0,1,1,1.492-1.5l1.835,1.835ZM44.776,49.11a8.725,8.725,0,1,1-8.725,8.725A8.723,8.723,0,0,1,44.776,49.11Zm4.674,4.046a6.612,6.612,0,1,0,0,9.353A6.617,6.617,0,0,0,49.45,53.156ZM88.8,77.945a17.777,17.777,0,0,1,4.221-5.007,40.434,40.434,0,0,1-5.585-4.513l-.167,2.189a1.057,1.057,0,0,1-1.014.979,11.44,11.44,0,0,0-10.6,10.46A16.659,16.659,0,0,1,87.089,74.9a1.049,1.049,0,0,1,1.184.851ZM92.055,76.9a19.422,19.422,0,0,0-2.609,4.482,1.053,1.053,0,0,1-2.005-.133l-.993-4.089a14.584,14.584,0,0,0-10.563,8.956,1.055,1.055,0,0,1-2.035-.077A13.57,13.57,0,0,1,85.241,69.579l.278-3.6v0a1.055,1.055,0,0,1,1.809-.655,45.787,45.787,0,0,0,4.1,3.807,32.032,32.032,0,0,0,3.969,2.793,1.052,1.052,0,0,1,.094,1.826A14.144,14.144,0,0,0,92.055,76.9Zm-34.92-8.5a6.265,6.265,0,0,1,2.48,5.522c1.844,1.193,3.849,1.047,5.935.116a1.058,1.058,0,0,1,1.377.5c.112.235.226.45.333.646C68.521,66.884,59.12,65.383,57.136,68.395Zm.765,6.881a.863.863,0,0,0-.457-.222c-.492-.072-1.352.548-1.681.842a4.488,4.488,0,0,0-.788.954,9.575,9.575,0,0,0,2.019,5.35c2.07,2.651,4.872,3.268,7.411.235a9.9,9.9,0,0,0,2.13-4.67,7.093,7.093,0,0,1-1.044-1.441,7.6,7.6,0,0,1-7.59-1.049Zm-.4-2.336a4.321,4.321,0,0,0-.38-1.326,4.183,4.183,0,0,0-1.706-1.839,1.786,1.786,0,0,0-.569-.065c-.958.068-1.21,1.779-1.27,2.676a14.316,14.316,0,0,0,.094,2.664A5.291,5.291,0,0,1,57.5,72.94ZM85.986,89.06H80.811a1.23,1.23,0,0,0,0,2.459h5.175a1.23,1.23,0,0,0,0-2.459Zm-5.8,4.511a3.353,3.353,0,0,1-1.9-1.1L75.565,97.34a1.053,1.053,0,0,1-1.856-.03l-3.982-7.716c-.149-.291-1.394-.634-2.053-.779l.671,5.569a1.06,1.06,0,0,1-1.445,1.1l-3.224-1.305.911,9.734a1.071,1.071,0,0,1-.261.8L61.6,108.97a1.052,1.052,0,0,1-1.783-.017l-2.7-4.229a1.025,1.025,0,0,1-.266-.907l.89-9.511-2.909,1.177a1.056,1.056,0,0,1-1.441-1.1l.685-5.683c-.676.124-2.438.527-2.625.893-.017.026-.03.051-.047.072l-3.972,6.518a1.054,1.054,0,0,1-1.779.03l-2.861-4.362a3.341,3.341,0,0,1-2.284.907h-.534l6.338,8.844a1.375,1.375,0,0,0,2.049-.385L51.205,95.7a1.056,1.056,0,0,1,1.993.483v13.485a2.439,2.439,0,0,0,.59.317H67.619a.34.34,0,0,0,.359-.317V96.178a1.057,1.057,0,0,1,2.028-.415l2.818,5.457a1.345,1.345,0,0,0,1.954.453.535.535,0,0,0,.086-.065ZM40.5,88.188H35.324a1.23,1.23,0,0,0,0,2.459H40.5a1.229,1.229,0,0,0,.868-2.1A1.2,1.2,0,0,0,40.5,88.188ZM63.05,86.1a5.584,5.584,0,0,1-4.979-.231l-.021,2.776.355.252a2.19,2.19,0,0,1,1.629-.727h1.347a2.194,2.194,0,0,1,1.728.839l.012,0-.072-1.531V86.1Zm.534,5.158v.608l2.45.993-.373-3.079Zm-1.942,3.81H59.778l-.813,8.656,1.744,2.729,1.746-2.729Zm-3.81-3.078v-.923l-1.774-1.245-.364,3.037Zm3.55-1.706H60.036l-.091.091V92.88l.091.091h1.347l.091-.091V90.372Zm9.113-12.2-.779-.042L68.549,80.6a1.491,1.491,0,0,0,1.168-.8Z" transform="translate(0)"/>
    </g>
  </g>
</svg>
