<svg xmlns="http://www.w3.org/2000/svg" xmlns:xlink="http://www.w3.org/1999/xlink" width="113" height="113" viewBox="0 0 113 113">
  <defs>
    <filter id="Trazado_982547" x="0" y="0" width="113" height="113" filterUnits="userSpaceOnUse">
      <feOffset dy="3" input="SourceAlpha"/>
      <feGaussianBlur stdDeviation="3" result="blur"/>
      <feFlood flood-opacity="0.161"/>
      <feComposite operator="in" in2="blur"/>
      <feComposite in="SourceGraphic"/>
    </filter>
  </defs>
  <g id="Grupo_1177799" data-name="Grupo 1177799" transform="translate(-587 -6334.802)">
    <g id="Grupo_1177721" data-name="Grupo 1177721" transform="translate(596 6340.802)">
      <g id="Grupo_1173868" data-name="Grupo 1173868">
        <g id="Grupo_1172010" data-name="Grupo 1172010">
          <g id="Grupo_1171046" data-name="Grupo 1171046">
            <g id="Grupo_1148525" data-name="Grupo 1148525">
              <g transform="matrix(1, 0, 0, 1, -9, -6)" filter="url(#Trazado_982547)">
                <g id="Trazado_982547-2" data-name="Trazado 982547" transform="translate(9 6)" fill="#fbecfd">
                  <path d="M 47.5 93.5 C 41.28937149047852 93.5 35.26533508300781 92.28397369384766 29.59518623352051 89.88570404052734 C 24.11771965026855 87.56893157958984 19.19813346862793 84.25196075439453 14.97309303283691 80.02691650390625 C 10.74804019927979 75.80186462402344 7.431066513061523 70.88229370117188 5.114293098449707 65.40481567382812 C 2.716026782989502 59.73468017578125 1.5 53.71062850952148 1.5 47.5 C 1.5 41.28937149047852 2.716026782989502 35.26533508300781 5.114293098449707 29.59518623352051 C 7.431066513061523 24.11771965026855 10.74804019927979 19.19813346862793 14.97309303283691 14.97309303283691 C 19.19813346862793 10.74804019927979 24.11771965026855 7.431066513061523 29.59518623352051 5.114293098449707 C 35.26533508300781 2.716026782989502 41.28937149047852 1.5 47.5 1.5 C 53.71062850952148 1.5 59.73468017578125 2.716026782989502 65.40481567382812 5.114293098449707 C 70.88229370117188 7.431066513061523 75.80186462402344 10.74804019927979 80.02691650390625 14.97309303283691 C 84.25196075439453 19.19813346862793 87.56893157958984 24.11771965026855 89.88570404052734 29.59518623352051 C 92.28397369384766 35.26533508300781 93.5 41.28937149047852 93.5 47.5 C 93.5 53.71062850952148 92.28397369384766 59.73468017578125 89.88570404052734 65.40481567382812 C 87.56893157958984 70.88229370117188 84.25196075439453 75.80186462402344 80.02691650390625 80.02691650390625 C 75.80186462402344 84.25196075439453 70.88229370117188 87.56893157958984 65.40481567382812 89.88570404052734 C 59.73468017578125 92.28397369384766 53.71062850952148 93.5 47.5 93.5 Z" stroke="none"/>
                  <path d="M 47.5 3 C 41.49121475219727 3 35.66376876831055 4.176155090332031 30.17950439453125 6.495796203613281 C 24.88084411621094 8.736953735351562 20.12152099609375 11.94598388671875 16.03375244140625 16.03375244140625 C 11.94598388671875 20.12152099609375 8.736953735351562 24.88084411621094 6.495796203613281 30.17950439453125 C 4.176155090332031 35.66376876831055 3 41.49121475219727 3 47.5 C 3 53.50878524780273 4.176155090332031 59.33623123168945 6.495796203613281 64.82049560546875 C 8.736953735351562 70.11915588378906 11.94598388671875 74.87847900390625 16.03375244140625 78.96624755859375 C 20.12152099609375 83.05401611328125 24.88084411621094 86.26304626464844 30.17950439453125 88.50419616699219 C 35.66376876831055 90.82384490966797 41.49121475219727 92 47.5 92 C 53.50878524780273 92 59.33623123168945 90.82384490966797 64.82049560546875 88.50419616699219 C 70.11915588378906 86.26304626464844 74.87847900390625 83.05401611328125 78.96624755859375 78.96624755859375 C 83.05401611328125 74.87847900390625 86.26304626464844 70.11915588378906 88.50419616699219 64.82049560546875 C 90.82384490966797 59.33623123168945 92 53.50878524780273 92 47.5 C 92 41.49121475219727 90.82384490966797 35.66376876831055 88.50419616699219 30.17950439453125 C 86.26304626464844 24.88084411621094 83.05401611328125 20.12152099609375 78.96624755859375 16.03375244140625 C 74.87847900390625 11.94598388671875 70.11915588378906 8.736953735351562 64.82049560546875 6.495796203613281 C 59.33623123168945 4.176155090332031 53.50878524780273 3 47.5 3 M 47.5 0 C 73.7335205078125 0 95 21.2664794921875 95 47.5 C 95 73.7335205078125 73.7335205078125 95 47.5 95 C 21.2664794921875 95 0 73.7335205078125 0 47.5 C 0 21.2664794921875 21.2664794921875 0 47.5 0 Z" stroke="none" fill="#da53f2"/>
                </g>
              </g>
            </g>
          </g>
        </g>
      </g>
    </g>
    <g id="risk_10334155" transform="translate(601.048 6345.858)">
      <path id="Trazado_1037343" data-name="Trazado 1037343" d="M166.35,293.591l-5.669-9.816-5.665-9.816a2.933,2.933,0,0,0-5.078,0L138.6,293.591a2.933,2.933,0,0,0,2.539,4.4H163.81a2.933,2.933,0,0,0,2.539-4.4Z" transform="translate(-110.024 -228.052)" fill="#ffdf40"/>
      <path id="Trazado_1037344" data-name="Trazado 1037344" d="M264.219,283.767l-5.665-9.816a2.834,2.834,0,0,0-2.539-1.466v25.5h11.334a2.933,2.933,0,0,0,2.539-4.4Z" transform="translate(-213.561 -228.045)" fill="#ffbe40"/>
      <path id="Trazado_1037345" data-name="Trazado 1037345" d="M63.264,21.63A29.433,29.433,0,1,0,21.641,63.257a.969.969,0,0,0,1.371,0l7.746-7.749a.969.969,0,0,0,0-1.37A16.54,16.54,0,0,1,39.886,26.1L36.3,40.275a6.414,6.414,0,0,0,1.21,5.913L26.9,64.571a4.871,4.871,0,0,0,4.219,7.306H53.786A4.871,4.871,0,0,0,58,64.569l-5.669-9.816-4.944-8.567A6.419,6.419,0,0,0,48.6,40.275L45.019,26.1a16.538,16.538,0,0,1,9.126,28.033.969.969,0,0,0,0,1.37l7.749,7.749a.969.969,0,0,0,1.371,0,29.436,29.436,0,0,0,0-41.627ZM28.719,54.8l-6.382,6.385a27.52,27.52,0,0,1-6.683-24.924L24.377,38.6a18.56,18.56,0,0,0-.4,3.84A18.355,18.355,0,0,0,28.719,54.8Zm.228-24.972a18.426,18.426,0,0,0-4.07,6.9l-8.72-2.336A27.551,27.551,0,0,1,41.484,14.965v4.818l-1.087,4.3a18.4,18.4,0,0,0-11.45,5.752ZM56.326,65.538a2.933,2.933,0,0,1-2.539,4.4H31.115a2.933,2.933,0,0,1-2.539-4.4L39.913,45.905a2.933,2.933,0,0,1,5.078,0l5.665,9.816Zm-9.587-24.73A4.486,4.486,0,0,1,46.3,44.38a4.879,4.879,0,0,0-7.694,0,4.477,4.477,0,0,1-.439-3.57c0-.013.008-.027.011-.04l4.276-16.913L46.728,40.77C46.732,40.783,46.735,40.8,46.739,40.808Zm9.218-10.976a18.4,18.4,0,0,0-11.449-5.752l-1.087-4.3V14.965A27.548,27.548,0,0,1,68.745,34.394l-8.718,2.335A18.425,18.425,0,0,0,55.957,29.832Zm6.611,31.357L56.183,54.8a18.343,18.343,0,0,0,4.746-12.364,18.567,18.567,0,0,0-.4-3.842l8.72-2.333a27.528,27.528,0,0,1-6.68,24.924ZM42.453,50.619a2.892,2.892,0,0,0-2.086.9,2.673,2.673,0,0,0-.75,1.99l.285,5.583a2.549,2.549,0,0,0,5.1,0l.289-5.584a2.672,2.672,0,0,0-.75-1.989,2.892,2.892,0,0,0-2.086-.9Zm.611,8.374a.644.644,0,0,1-.611.656.653.653,0,0,1-.615-.66l-.285-5.582a.748.748,0,0,1,.218-.556.937.937,0,0,1,1.363,0,.747.747,0,0,1,.219.555Zm-.611,3.379A2.554,2.554,0,1,0,45,64.928a2.554,2.554,0,0,0-2.552-2.556Zm0,3.169a.616.616,0,1,1,.614-.614.616.616,0,0,1-.614.614Z" transform="translate(0 0)"/>
      <path id="Trazado_1037346" data-name="Trazado 1037346" d="M374.116,211.176a18.343,18.343,0,0,1-4.746,12.364l6.384,6.384A27.528,27.528,0,0,0,382.434,205l-8.719,2.335A18.558,18.558,0,0,1,374.116,211.176Z" transform="translate(-313.187 -168.735)" fill="#ec4c36"/>
      <path id="Trazado_1037347" data-name="Trazado 1037347" d="M219.265,119.476c0,.013-.007.027-.011.04a4.477,4.477,0,0,0,.439,3.571,4.879,4.879,0,0,1,7.694,0,4.486,4.486,0,0,0,.44-3.572l-.011-.039-4.276-16.913Z" transform="translate(-181.089 -78.707)" fill="#4d5e80"/>
      <path id="Trazado_1037348" data-name="Trazado 1037348" d="M264.014,29.156v4.818l1.087,4.3a18.491,18.491,0,0,1,15.518,12.648l8.718-2.335A27.548,27.548,0,0,0,264.014,29.156Z" transform="translate(-220.592 -14.191)" fill="#ffbe40"/>
      <path id="Trazado_1037349" data-name="Trazado 1037349" d="M38.419,207.336,29.7,205a27.52,27.52,0,0,0,6.683,24.924l6.382-6.385a18.355,18.355,0,0,1-4.743-12.363,18.568,18.568,0,0,1,.4-3.843Z" transform="translate(-14.043 -168.735)" fill="#6cf"/>
      <path id="Trazado_1037350" data-name="Trazado 1037350" d="M64.256,33.974V29.156A27.551,27.551,0,0,0,38.93,48.584l8.72,2.336A18.487,18.487,0,0,1,63.169,38.271Z" transform="translate(-22.772 -14.191)" fill="#8cd96b"/>
      <path id="Trazado_1037351" data-name="Trazado 1037351" d="M251.535,436.526a.616.616,0,1,0,.614.618A.616.616,0,0,0,251.535,436.526Z" transform="translate(-209.083 -372.216)" fill="#ec4c36"/>
      <path id="Trazado_1037352" data-name="Trazado 1037352" d="M249.484,339.5a.945.945,0,0,0-.681.294.748.748,0,0,0-.218.556l.285,5.582a.653.653,0,0,0,.615.66.644.644,0,0,0,.611-.656l.289-5.587a.747.747,0,0,0-.219-.555A.945.945,0,0,0,249.484,339.5Z" transform="translate(-207.031 -286.943)" fill="#ec4c36"/>
      <path id="Trazado_1037353" data-name="Trazado 1037353" d="M74.133,231.66A18.355,18.355,0,0,1,69.39,219.3a18.57,18.57,0,0,1,.4-3.844l-4.543-1.213a23.129,23.129,0,0,0,5.576,20.729Z" transform="translate(-45.414 -176.856)" fill="#53bfea"/>
      <path id="Trazado_1037354" data-name="Trazado 1037354" d="M73.429,81.572l4.541,1.217A18.487,18.487,0,0,1,93.49,70.14l1.087-4.3v-.426A23.112,23.112,0,0,0,73.429,81.572Z" transform="translate(-53.093 -46.059)" fill="#80c95d"/>
      <path id="Trazado_1037355" data-name="Trazado 1037355" d="M285.028,81.647a23.113,23.113,0,0,0-21.014-16.185v.42l1.087,4.3a18.491,18.491,0,0,1,15.518,12.648Z" transform="translate(-220.592 -46.099)" fill="#f4b13b"/>
      <path id="Trazado_1037356" data-name="Trazado 1037356" d="M372.6,235.161a23.129,23.129,0,0,0,5.515-20.618l-4.4,1.18a18.561,18.561,0,0,1,.4,3.84,18.343,18.343,0,0,1-4.746,12.364Z" transform="translate(-313.185 -177.122)" fill="#d1311b"/>
      <path id="Trazado_1037357" data-name="Trazado 1037357" d="M260.291,119.475l-4.276-16.912v18.645a4.744,4.744,0,0,1,3.846,1.877,4.486,4.486,0,0,0,.441-3.571c0-.013-.008-.026-.011-.039Z" transform="translate(-213.562 -78.706)" fill="#445775"/>
    </g>
  </g>
</svg>
