<svg xmlns="http://www.w3.org/2000/svg" xmlns:xlink="http://www.w3.org/1999/xlink" width="113" height="113" viewBox="0 0 113 113">
  <defs>
    <filter id="Trazado_982547" x="0" y="0" width="113" height="113" filterUnits="userSpaceOnUse">
      <feOffset dy="3" input="SourceAlpha"/>
      <feGaussianBlur stdDeviation="3" result="blur"/>
      <feFlood flood-opacity="0.161"/>
      <feComposite operator="in" in2="blur"/>
      <feComposite in="SourceGraphic"/>
    </filter>
  </defs>
  <g id="Grupo_1177809" data-name="Grupo 1177809" transform="translate(-902 -6334.802)">
    <g id="Grupo_1177722" data-name="Grupo 1177722" transform="translate(911 6340.802)">
      <g id="Grupo_1173868" data-name="Grupo 1173868">
        <g id="Grupo_1172010" data-name="Grupo 1172010">
          <g id="Grupo_1171046" data-name="Grupo 1171046">
            <g id="Grupo_1148525" data-name="Grupo 1148525">
              <g transform="matrix(1, 0, 0, 1, -9, -6)" filter="url(#Trazado_982547)">
                <g id="Trazado_982547-2" data-name="Trazado 982547" transform="translate(9 6)" fill="#fbecfd">
                  <path d="M 47.5 93.5 C 41.28937149047852 93.5 35.26533508300781 92.28397369384766 29.59518623352051 89.88570404052734 C 24.11771965026855 87.56893157958984 19.19813346862793 84.25196075439453 14.97309303283691 80.02691650390625 C 10.74804019927979 75.80186462402344 7.431066513061523 70.88229370117188 5.114293098449707 65.40481567382812 C 2.716026782989502 59.73468017578125 1.5 53.71062850952148 1.5 47.5 C 1.5 41.28937149047852 2.716026782989502 35.26533508300781 5.114293098449707 29.59518623352051 C 7.431066513061523 24.11771965026855 10.74804019927979 19.19813346862793 14.97309303283691 14.97309303283691 C 19.19813346862793 10.74804019927979 24.11771965026855 7.431066513061523 29.59518623352051 5.114293098449707 C 35.26533508300781 2.716026782989502 41.28937149047852 1.5 47.5 1.5 C 53.71062850952148 1.5 59.73468017578125 2.716026782989502 65.40481567382812 5.114293098449707 C 70.88229370117188 7.431066513061523 75.80186462402344 10.74804019927979 80.02691650390625 14.97309303283691 C 84.25196075439453 19.19813346862793 87.56893157958984 24.11771965026855 89.88570404052734 29.59518623352051 C 92.28397369384766 35.26533508300781 93.5 41.28937149047852 93.5 47.5 C 93.5 53.71062850952148 92.28397369384766 59.73468017578125 89.88570404052734 65.40481567382812 C 87.56893157958984 70.88229370117188 84.25196075439453 75.80186462402344 80.02691650390625 80.02691650390625 C 75.80186462402344 84.25196075439453 70.88229370117188 87.56893157958984 65.40481567382812 89.88570404052734 C 59.73468017578125 92.28397369384766 53.71062850952148 93.5 47.5 93.5 Z" stroke="none"/>
                  <path d="M 47.5 3 C 41.49121475219727 3 35.66376876831055 4.176155090332031 30.17950439453125 6.495796203613281 C 24.88084411621094 8.736953735351562 20.12152099609375 11.94598388671875 16.03375244140625 16.03375244140625 C 11.94598388671875 20.12152099609375 8.736953735351562 24.88084411621094 6.495796203613281 30.17950439453125 C 4.176155090332031 35.66376876831055 3 41.49121475219727 3 47.5 C 3 53.50878524780273 4.176155090332031 59.33623123168945 6.495796203613281 64.82049560546875 C 8.736953735351562 70.11915588378906 11.94598388671875 74.87847900390625 16.03375244140625 78.96624755859375 C 20.12152099609375 83.05401611328125 24.88084411621094 86.26304626464844 30.17950439453125 88.50419616699219 C 35.66376876831055 90.82384490966797 41.49121475219727 92 47.5 92 C 53.50878524780273 92 59.33623123168945 90.82384490966797 64.82049560546875 88.50419616699219 C 70.11915588378906 86.26304626464844 74.87847900390625 83.05401611328125 78.96624755859375 78.96624755859375 C 83.05401611328125 74.87847900390625 86.26304626464844 70.11915588378906 88.50419616699219 64.82049560546875 C 90.82384490966797 59.33623123168945 92 53.50878524780273 92 47.5 C 92 41.49121475219727 90.82384490966797 35.66376876831055 88.50419616699219 30.17950439453125 C 86.26304626464844 24.88084411621094 83.05401611328125 20.12152099609375 78.96624755859375 16.03375244140625 C 74.87847900390625 11.94598388671875 70.11915588378906 8.736953735351562 64.82049560546875 6.495796203613281 C 59.33623123168945 4.176155090332031 53.50878524780273 3 47.5 3 M 47.5 0 C 73.7335205078125 0 95 21.2664794921875 95 47.5 C 95 73.7335205078125 73.7335205078125 95 47.5 95 C 21.2664794921875 95 0 73.7335205078125 0 47.5 C 0 21.2664794921875 21.2664794921875 0 47.5 0 Z" stroke="none" fill="#da53f2"/>
                </g>
              </g>
            </g>
          </g>
        </g>
      </g>
    </g>
    <g id="leverage_4695221" transform="translate(930.807 6360.395)">
      <g id="Grupo_1177807" data-name="Grupo 1177807" transform="translate(0.893 1.322)">
        <g id="Grupo_1177800" data-name="Grupo 1177800" transform="translate(29.48)">
          <path id="Trazado_1037358" data-name="Trazado 1037358" d="M50.08,12.2V23.813H37.573V12.2H34L43.827,1.48,53.653,12.2Z" transform="translate(-34 -1.48)" fill="#ff826e"/>
        </g>
        <g id="Grupo_1177801" data-name="Grupo 1177801" transform="translate(0 36.626)">
          <path id="Trazado_1037359" data-name="Trazado 1037359" d="M37.626,59.453H1v-2.68L26.013,42.48v5.36h.938a2.848,2.848,0,0,1,2.01,4.869l-.661.661,3.8,3.788.661-.652a2.831,2.831,0,0,1,2.028-.84,2.923,2.923,0,0,1,1.09.214,2.851,2.851,0,0,1,1.751,2.626Z" transform="translate(-1 -42.48)" fill="#ff826e"/>
        </g>
        <g id="Grupo_1177802" data-name="Grupo 1177802" transform="translate(25.013 25.013)">
          <path id="Trazado_1037360" data-name="Trazado 1037360" d="M32.573,39.333a2.889,2.889,0,0,0,.214-1.09,2.854,2.854,0,0,0-.831-2.019l-.67-.661,3.8-3.8.661.661a2.848,2.848,0,0,0,4.869-2.01V29.48h5.36v.947a2.851,2.851,0,0,0,1.751,2.626,2.923,2.923,0,0,0,1.09.214,2.831,2.831,0,0,0,2.028-.84l.661-.661,3.8,3.8-.67.661a2.853,2.853,0,0,0,2.019,4.869h.938v5.36h-.938a2.855,2.855,0,0,0-2.019,4.869l.67.661L51.5,55.77l-.661-.652a2.848,2.848,0,0,0-4.869,2.01v.938h-5.36v-.947a2.851,2.851,0,0,0-1.751-2.626,2.923,2.923,0,0,0-1.09-.214,2.831,2.831,0,0,0-2.028.84l-.661.652-3.8-3.788.661-.661a2.848,2.848,0,0,0-2.01-4.869H29v-5.36h.938a2.863,2.863,0,0,0,2.635-1.76Z" transform="translate(-29 -29.48)" fill="#ffc729"/>
        </g>
        <g id="Grupo_1177803" data-name="Grupo 1177803" transform="translate(30.373 30.373)">
          <circle id="Elipse_12513" data-name="Elipse 12513" cx="8.933" cy="8.933" r="8.933" fill="#fcd770"/>
        </g>
        <g id="Grupo_1177804" data-name="Grupo 1177804" transform="translate(16.08 19.653)">
          <path id="Trazado_1037361" data-name="Trazado 1037361" d="M31.507,29.733a6.253,6.253,0,1,1-6.253-6.253A6.249,6.249,0,0,1,31.507,29.733Z" transform="translate(-19 -23.48)" fill="#ffc729"/>
        </g>
        <g id="Grupo_1177805" data-name="Grupo 1177805" transform="translate(19.653 23.226)">
          <circle id="Elipse_12514" data-name="Elipse 12514" cx="2.68" cy="2.68" r="2.68" fill="#fcd770"/>
        </g>
        <g id="Grupo_1177806" data-name="Grupo 1177806" transform="translate(0 26.8)">
          <circle id="Elipse_12515" data-name="Elipse 12515" cx="7.147" cy="7.147" r="7.147" fill="#fcd770"/>
        </g>
      </g>
      <g id="Grupo_1177808" data-name="Grupo 1177808" transform="translate(0)">
        <path id="Trazado_1037362" data-name="Trazado 1037362" d="M45.573,38.48H43.787v1.787H42v5.36h3.573v1.787H42V49.2h1.787v1.787h1.787V49.2H47.36V43.84H43.787V42.053H47.36V40.267H45.573Z" transform="translate(-4.48 -4.105)"/>
        <path id="Trazado_1037363" data-name="Trazado 1037363" d="M43.827,34.48a9.827,9.827,0,1,0,9.827,9.827A9.838,9.838,0,0,0,43.827,34.48Zm0,17.866a8.04,8.04,0,1,1,8.04-8.04A8.049,8.049,0,0,1,43.827,52.346Z" transform="translate(-3.627 -3.678)"/>
        <path id="Trazado_1037364" data-name="Trazado 1037364" d="M53.555,39.453a1.959,1.959,0,0,1-1.385-3.344l1.3-1.3L48.412,29.76l-1.29,1.291a1.964,1.964,0,0,1-2.146.426,1.94,1.94,0,0,1-1.2-1.8V27.84H36.626v1.835a1.959,1.959,0,0,1-3.346,1.378L31.988,29.76l-1.919,1.919a7.187,7.187,0,1,0-2.592,3.677l.751.751a1.959,1.959,0,0,1-1.385,3.345H25.67L0,54.121v4.091H43.773V56.378A1.959,1.959,0,0,1,47.119,55l1.292,1.292,5.054-5.053-1.3-1.294A1.959,1.959,0,0,1,53.554,46.6h1.832V39.452H53.555ZM17.866,29.626a5.324,5.324,0,0,1,.139-1.2l1.7.7a2.447,2.447,0,0,0,0,.984l-1.7.7a5.324,5.324,0,0,1-.139-1.2Zm3.573,0a1.787,1.787,0,1,1,1.787,1.787A1.788,1.788,0,0,1,21.44,29.626Zm7.147,0a5.324,5.324,0,0,1-.139,1.2l-1.7-.7a2.447,2.447,0,0,0,0-.984l1.7-.7a5.324,5.324,0,0,1,.139,1.2ZM26.067,31.77l1.694.7a5.388,5.388,0,0,1-1.689,1.689l-.7-1.694A3.576,3.576,0,0,0,26.067,31.77Zm1.694-4.989-1.694.7a3.576,3.576,0,0,0-.7-.7l.7-1.694A5.4,5.4,0,0,1,27.761,26.781Zm-3.338-2.375-.7,1.7a2.455,2.455,0,0,0-.986,0l-.7-1.7a5.2,5.2,0,0,1,2.392,0Zm-4.041.686.7,1.694a3.6,3.6,0,0,0-.7.7l-1.694-.7A5.4,5.4,0,0,1,20.381,25.092Zm-1.689,7.38,1.694-.7a3.576,3.576,0,0,0,.7.7l-.7,1.694A5.388,5.388,0,0,1,18.692,32.472Zm3.338,2.375.7-1.7a2.455,2.455,0,0,0,.986,0l.7,1.7a5.2,5.2,0,0,1-2.392,0Zm9.958,21.444L33.278,55a1.959,1.959,0,0,1,3.348,1.374v.051h-13.4V42.907l1.787-1.021V46.6h1.835a1.959,1.959,0,0,1,1.379,3.346l-1.292,1.292ZM8.933,51.074l1.787-1.021v6.373H8.933ZM7.147,56.426H5.36V53.115l1.787-1.021Zm5.36-7.394,1.787-1.021v8.415H12.507ZM16.08,46.99l1.787-1.021V56.426H16.08Zm3.573-2.041,1.787-1.021v12.5H19.653ZM1.787,55.158l1.787-1.021v2.29H1.787ZM53.555,44.813a3.746,3.746,0,0,0-2.649,6.394l.031.03-2.526,2.526-.029-.029a3.746,3.746,0,0,0-6.4,2.642v.048H38.413v-.051a3.745,3.745,0,0,0-6.4-2.638l-.027.027-2.526-2.526.029-.029a3.746,3.746,0,0,0-2.642-6.4H26.8V41.24h.045a3.745,3.745,0,0,0,2.649-6.394l-.031-.031,2.526-2.526.029.029a3.746,3.746,0,0,0,6.4-2.642v-.048h3.573v.051a3.745,3.745,0,0,0,6.4,2.638l.027-.027,2.526,2.526-.031.031a3.745,3.745,0,0,0,2.649,6.394l.045,3.573Z" transform="translate(0 -2.398)"/>
        <path id="Trazado_1037365" data-name="Trazado 1037365" d="M11.36,38.053H7.787V36.267H11.36V34.48H6v5.36H9.573v1.787H6v1.787h5.36Z" transform="translate(-0.64 -3.678)"/>
        <path id="Trazado_1037366" data-name="Trazado 1037366" d="M8.04,46.56A8.04,8.04,0,1,0,0,38.52,8.049,8.049,0,0,0,8.04,46.56Zm0-14.293A6.253,6.253,0,1,1,1.787,38.52,6.261,6.261,0,0,1,8.04,32.267Z" transform="translate(0 -3.252)"/>
        <path id="Trazado_1037367" data-name="Trazado 1037367" d="M8,2.48H9.787V6.947H8Z" transform="translate(-0.853 -0.265)"/>
        <path id="Trazado_1037368" data-name="Trazado 1037368" d="M12.7,22.618,11.44,21.355,9.391,23.4V9.48H7.6V23.4L5.556,21.355,4.293,22.618l4.2,4.2Z" transform="translate(-0.458 -1.011)"/>
        <path id="Trazado_1037369" data-name="Trazado 1037369" d="M29.7,13.618,28.44,12.355,26.391,14.4V.48H24.6V14.4l-2.048-2.048-1.263,1.263,4.2,4.2Z" transform="translate(-2.271 -0.051)"/>
        <path id="Trazado_1037370" data-name="Trazado 1037370" d="M36.437,23.655h1.787V12.935h1.787V11.149H35.788l7.8-8.5,7.8,8.5H47.157v1.787h1.787v10.72h1.787V12.935h4.71L43.584,0,31.727,12.935h4.71Z" transform="translate(-3.385)"/>
      </g>
    </g>
  </g>
</svg>
