<svg xmlns="http://www.w3.org/2000/svg" xmlns:xlink="http://www.w3.org/1999/xlink" width="418" height="151" viewBox="0 0 418 151">
  <defs>
    <filter id="influencer-their-pet-creating-content-online-spaces-social-media" x="0" y="23.58" width="418" height="103.84" filterUnits="userSpaceOnUse">
      <feOffset dy="3" input="SourceAlpha"/>
      <feGaussianBlur stdDeviation="3" result="blur"/>
      <feFlood flood-opacity="0.161"/>
      <feComposite operator="in" in2="blur"/>
      <feComposite in="SourceGraphic"/>
    </filter>
    <filter id="influencer-their-pet-creating-content-online-spaces-social-media-2" x="88" y="0" width="241.484" height="151" filterUnits="userSpaceOnUse">
      <feOffset dy="3" input="SourceAlpha"/>
      <feGaussianBlur stdDeviation="3" result="blur-2"/>
      <feFlood flood-opacity="0.161"/>
      <feComposite operator="in" in2="blur-2"/>
      <feComposite in="SourceGraphic"/>
    </filter>
  </defs>
  <g id="Grupo_1177877" data-name="Grupo 1177877" transform="translate(-1011 -4899.5)">
    <g transform="matrix(1, 0, 0, 1, 1011, 4899.5)" filter="url(#influencer-their-pet-creating-content-online-spaces-social-media)">
      <path id="influencer-their-pet-creating-content-online-spaces-social-media-3" data-name="influencer-their-pet-creating-content-online-spaces-social-media" d="M0,0H400V85.84H0Z" transform="translate(9 29.58)" fill="#401847"/>
    </g>
    <g transform="matrix(1, 0, 0, 1, 1011, 4899.5)" filter="url(#influencer-their-pet-creating-content-online-spaces-social-media-2)">
      <path id="influencer-their-pet-creating-content-online-spaces-social-media-4" data-name="influencer-their-pet-creating-content-online-spaces-social-media" d="M0,0H223.484V133H0Z" transform="translate(97 6)" fill="#772d84"/>
    </g>
    <g id="delivery-truck_4735926" transform="translate(1155.017 4922.69)">
      <g id="Grupo_1177875" data-name="Grupo 1177875" transform="translate(2.096 2.096)">
        <g id="Grupo_1177856" data-name="Grupo 1177856">
          <path id="Trazado_1037549" data-name="Trazado 1037549" d="M84.849,3.1V7.289a2.1,2.1,0,0,1-2.1,2.1H3.1A2.1,2.1,0,0,1,1,7.289V3.1A2.1,2.1,0,0,1,3.1,1H82.753A2.1,2.1,0,0,1,84.849,3.1Z" transform="translate(-1 -1)" fill="#fcd770"/>
        </g>
        <g id="Grupo_1177857" data-name="Grupo 1177857" transform="translate(4.192 8.385)">
          <path id="Trazado_1037550" data-name="Trazado 1037550" d="M3,5V76.272h9.1a12.587,12.587,0,0,1,23.729,0h13.29a4.2,4.2,0,0,1,4.192-4.192H65.887a4.2,4.2,0,0,1,4.192,4.192h8.385V5Z" transform="translate(-3 -5)" fill="#ffeaa7"/>
        </g>
        <g id="Grupo_1177858" data-name="Grupo 1177858" transform="translate(12.577 8.385)">
          <path id="Trazado_1037551" data-name="Trazado 1037551" d="M7,5H65.694V59.5H7Z" transform="translate(-7 -5)" fill="#69d6f4"/>
        </g>
        <g id="Grupo_1177859" data-name="Grupo 1177859" transform="translate(79.656 25.155)">
          <path id="Trazado_1037552" data-name="Trazado 1037552" d="M78.577,25.577H39V13H62.352A16.751,16.751,0,0,1,78.577,25.577Z" transform="translate(-39 -13)" fill="#ffc729"/>
        </g>
        <g id="Grupo_1177860" data-name="Grupo 1177860" transform="translate(79.656 37.732)">
          <path id="Trazado_1037553" data-name="Trazado 1037553" d="M85.033,60.338c.042.21.042.4.063.587H67.634a12.587,12.587,0,0,0-23.729,0H39V19H78.577a14.123,14.123,0,0,1,.335,1.635l1.048,6.75H51.577a4.2,4.2,0,0,0-4.192,4.192V44.155H82.539Z" transform="translate(-39 -19)" fill="#fcd770"/>
        </g>
        <g id="Grupo_1177861" data-name="Grupo 1177861" transform="translate(88.041 46.117)">
          <path id="Trazado_1037554" data-name="Trazado 1037554" d="M75.575,23l1.279,8.385h-6.6a4.2,4.2,0,0,0-4.192,4.192V39.77H43V27.192A4.2,4.2,0,0,1,47.192,23Z" transform="translate(-43 -23)" fill="#69d6f4"/>
        </g>
        <g id="Grupo_1177862" data-name="Grupo 1177862" transform="translate(111.1 54.502)">
          <path id="Trazado_1037555" data-name="Trazado 1037555" d="M64.8,27l1.3,8.385H54V31.192A4.2,4.2,0,0,1,58.192,27Z" transform="translate(-54 -27)" fill="#aab2bd"/>
        </g>
        <g id="Grupo_1177863" data-name="Grupo 1177863" transform="translate(31.443 20.962)">
          <path id="Trazado_1037556" data-name="Trazado 1037556" d="M36.962,11V31.962H16V11Z" transform="translate(-16 -11)" fill="#d3a06c"/>
        </g>
        <g id="Grupo_1177864" data-name="Grupo 1177864" transform="translate(41.924 41.924)">
          <path id="Trazado_1037557" data-name="Trazado 1037557" d="M41.962,21V41.962H21V21H41.962Z" transform="translate(-21 -21)" fill="#d3a06c"/>
        </g>
        <g id="Grupo_1177865" data-name="Grupo 1177865" transform="translate(20.962 41.924)">
          <path id="Trazado_1037558" data-name="Trazado 1037558" d="M31.962,21V41.962H11V21H31.962Z" transform="translate(-11 -21)" fill="#d3a06c"/>
        </g>
        <g id="Grupo_1177866" data-name="Grupo 1177866" transform="translate(83.849 71.272)">
          <path id="Trazado_1037559" data-name="Trazado 1037559" d="M41.713,43.385A12.687,12.687,0,1,1,41,47.577,12.585,12.585,0,0,1,41.713,43.385Z" transform="translate(-41 -35)" fill="#969faa"/>
        </g>
        <g id="Grupo_1177867" data-name="Grupo 1177867" transform="translate(12.577 71.272)">
          <path id="Trazado_1037560" data-name="Trazado 1037560" d="M31.442,43.385A12.587,12.587,0,1,1,19.577,35,12.667,12.667,0,0,1,31.442,43.385Z" transform="translate(-7 -35)" fill="#969faa"/>
        </g>
        <g id="Grupo_1177868" data-name="Grupo 1177868" transform="translate(108.291 79.656)">
          <path id="Trazado_1037561" data-name="Trazado 1037561" d="M52.66,39H70.122a5.3,5.3,0,0,1,.021.587,7.783,7.783,0,0,1-7.8,7.8H52.66a12.687,12.687,0,0,0,0-8.385Z" transform="translate(-52.66 -39)" fill="#ccd1d9"/>
        </g>
        <g id="Grupo_1177869" data-name="Grupo 1177869" transform="translate(92.234 79.656)">
          <circle id="Elipse_12530" data-name="Elipse 12530" cx="4.5" cy="4.5" r="4.5" transform="translate(-0.33 -0.134)" fill="#ccd1d9"/>
        </g>
        <g id="Grupo_1177870" data-name="Grupo 1177870" transform="translate(71.272 79.656)">
          <path id="Trazado_1037562" data-name="Trazado 1037562" d="M47.577,43.192a12.667,12.667,0,0,0,.713,4.192H35V39H48.29A12.667,12.667,0,0,0,47.577,43.192Z" transform="translate(-35 -39)" fill="#ccd1d9"/>
        </g>
        <g id="Grupo_1177871" data-name="Grupo 1177871" transform="translate(37.019 79.656)">
          <path id="Trazado_1037563" data-name="Trazado 1037563" d="M19.373,43.192A12.667,12.667,0,0,0,18.66,39H31.95v8.385H18.66A12.667,12.667,0,0,0,19.373,43.192Z" transform="translate(-18.66 -39)" fill="#ccd1d9"/>
        </g>
        <g id="Grupo_1177872" data-name="Grupo 1177872" transform="translate(20.962 79.656)">
          <ellipse id="Elipse_12531" data-name="Elipse 12531" cx="4" cy="4.5" rx="4" ry="4.5" transform="translate(-0.059 -0.134)" fill="#ccd1d9"/>
        </g>
        <g id="Grupo_1177873" data-name="Grupo 1177873" transform="translate(0 79.656)">
          <path id="Trazado_1037564" data-name="Trazado 1037564" d="M13.577,43.192a12.667,12.667,0,0,0,.713,4.192H3.1a2.1,2.1,0,0,1-2.1-2.1V41.1A2.1,2.1,0,0,1,3.1,39H14.29A12.667,12.667,0,0,0,13.577,43.192Z" transform="translate(-1 -39)" fill="#ccd1d9"/>
        </g>
        <g id="Grupo_1177874" data-name="Grupo 1177874" transform="translate(50.309 75.464)">
          <path id="Trazado_1037565" data-name="Trazado 1037565" d="M45.962,41.192v8.385A4.2,4.2,0,0,1,41.77,53.77H29.192A4.2,4.2,0,0,1,25,49.577V41.192A4.2,4.2,0,0,1,29.192,37H41.77A4.2,4.2,0,0,1,45.962,41.192Z" transform="translate(-25 -37)" fill="#aab2bd"/>
        </g>
      </g>
      <g id="Grupo_1177876" data-name="Grupo 1177876" transform="translate(0 0)">
        <path id="Trazado_1037566" data-name="Trazado 1037566" d="M50.289,38a6.289,6.289,0,1,0,6.289,6.289A6.3,6.3,0,0,0,50.289,38Zm0,8.385a2.1,2.1,0,1,1,2.1-2.1A2.1,2.1,0,0,1,50.289,46.385Z" transform="translate(48.234 41.656)"/>
        <path id="Trazado_1037567" data-name="Trazado 1037567" d="M16.289,38a6.289,6.289,0,1,0,6.289,6.289A6.3,6.3,0,0,0,16.289,38Zm0,8.385a2.1,2.1,0,1,1,2.1-2.1A2.1,2.1,0,0,1,16.289,46.385Z" transform="translate(10.962 41.656)"/>
        <path id="Trazado_1037568" data-name="Trazado 1037568" d="M129.85,80.843l-6.106-39.692a18.764,18.764,0,0,0-18.646-16H83.849V12.577a4.2,4.2,0,0,0,4.192-4.192V4.192A4.2,4.2,0,0,0,83.849,0H4.192A4.2,4.2,0,0,0,0,4.192V8.385a4.2,4.2,0,0,0,4.192,4.192V79.656A4.2,4.2,0,0,0,0,83.849v4.192a4.2,4.2,0,0,0,4.192,4.192h9.821a14.642,14.642,0,0,0,26.475,0H50.7a6.28,6.28,0,0,0,5.9,4.192H69.177a6.28,6.28,0,0,0,5.9-4.192H85.287a14.642,14.642,0,0,0,26.475,0h8.32a9.9,9.9,0,0,0,9.884-9.886A10.15,10.15,0,0,0,129.85,80.843ZM98.522,71.272a14.68,14.68,0,0,0-13.238,8.385H83.849V41.924h35.774l.646,4.192H94.33a6.3,6.3,0,0,0-6.289,6.289V67.079h35.449l1.935,12.577H111.76A14.68,14.68,0,0,0,98.522,71.272Zm24.325-8.385h-7.555v-2.1a2.1,2.1,0,0,1,2.1-2.1H122.2ZM117.388,54.5A6.3,6.3,0,0,0,111.1,60.79v2.1H92.234V52.406a2.1,2.1,0,0,1,2.1-2.1h26.582l.646,4.192ZM105.1,29.347a14.576,14.576,0,0,1,13.261,8.385H83.849V29.347ZM4.19,4.192H83.849V8.385H4.192ZM52.406,41.924H35.636V25.155h16.77ZM41.924,46.117v16.77H25.155V46.117h16.77Zm4.192,0h16.77v16.77H46.117ZM56.6,41.924V20.962H31.443V41.924H20.962V62.887H16.77V12.577h54.5V62.887H67.079V41.924ZM8.385,12.577h4.192v54.5H75.464v-54.5h4.192V79.656H75.078a6.28,6.28,0,0,0-5.9-4.192H56.6a6.28,6.28,0,0,0-5.9,4.192H40.489a14.642,14.642,0,0,0-26.475,0H8.385ZM4.192,88.041V83.849h8.553a13.185,13.185,0,0,0,0,4.192Zm23.058,8.385A10.481,10.481,0,1,1,37.732,85.945,10.493,10.493,0,0,1,27.251,96.426ZM41.757,83.849h8.553v4.192H41.757a13.185,13.185,0,0,0,0-4.192ZM54.5,90.138V81.753a2.1,2.1,0,0,1,2.1-2.1h2.1V92.234H56.6A2.1,2.1,0,0,1,54.5,90.138Zm16.77,0a2.1,2.1,0,0,1-2.1,2.1H62.887V79.656h6.289a2.1,2.1,0,0,1,2.1,2.1Zm4.192-2.1V83.849h8.553a13.185,13.185,0,0,0,0,4.192Zm23.058,8.385A10.481,10.481,0,1,1,109,85.945,10.493,10.493,0,0,1,98.522,96.426Zm21.558-8.385h-7.052a13.185,13.185,0,0,0,0-4.192h12.519A5.686,5.686,0,0,1,120.08,88.041Z" transform="translate(0 0)"/>
      </g>
    </g>
  </g>
</svg>
