<svg xmlns="http://www.w3.org/2000/svg" xmlns:xlink="http://www.w3.org/1999/xlink" width="113" height="113" viewBox="0 0 113 113">
  <defs>
    <filter id="Trazado_982547" x="0" y="0" width="113" height="113" filterUnits="userSpaceOnUse">
      <feOffset dy="3" input="SourceAlpha"/>
      <feGaussianBlur stdDeviation="3" result="blur"/>
      <feFlood flood-opacity="0.161"/>
      <feComposite operator="in" in2="blur"/>
      <feComposite in="SourceGraphic"/>
    </filter>
  </defs>
  <g id="Grupo_1177878" data-name="Grupo 1177878" transform="translate(-324 -5961.302)">
    <g id="Grupo_1177747" data-name="Grupo 1177747" transform="translate(0 3999.127)">
      <g id="Grupo_1173868" data-name="Grupo 1173868" transform="translate(333 1968.175)">
        <g id="Grupo_1172010" data-name="Grupo 1172010">
          <g id="Grupo_1171046" data-name="Grupo 1171046">
            <g id="Grupo_1148525" data-name="Grupo 1148525">
              <g transform="matrix(1, 0, 0, 1, -9, -6)" filter="url(#Trazado_982547)">
                <g id="Trazado_982547-2" data-name="Trazado 982547" transform="translate(9 6)" fill="#fbecfd">
                  <path d="M 47.5 93.5 C 41.28937149047852 93.5 35.26533508300781 92.28397369384766 29.59518623352051 89.88570404052734 C 24.11771965026855 87.56893157958984 19.19813346862793 84.25196075439453 14.97309303283691 80.02691650390625 C 10.74804019927979 75.80186462402344 7.431066513061523 70.88229370117188 5.114293098449707 65.40481567382812 C 2.716026782989502 59.73468017578125 1.5 53.71062850952148 1.5 47.5 C 1.5 41.28937149047852 2.716026782989502 35.26533508300781 5.114293098449707 29.59518623352051 C 7.431066513061523 24.11771965026855 10.74804019927979 19.19813346862793 14.97309303283691 14.97309303283691 C 19.19813346862793 10.74804019927979 24.11771965026855 7.431066513061523 29.59518623352051 5.114293098449707 C 35.26533508300781 2.716026782989502 41.28937149047852 1.5 47.5 1.5 C 53.71062850952148 1.5 59.73468017578125 2.716026782989502 65.40481567382812 5.114293098449707 C 70.88229370117188 7.431066513061523 75.80186462402344 10.74804019927979 80.02691650390625 14.97309303283691 C 84.25196075439453 19.19813346862793 87.56893157958984 24.11771965026855 89.88570404052734 29.59518623352051 C 92.28397369384766 35.26533508300781 93.5 41.28937149047852 93.5 47.5 C 93.5 53.71062850952148 92.28397369384766 59.73468017578125 89.88570404052734 65.40481567382812 C 87.56893157958984 70.88229370117188 84.25196075439453 75.80186462402344 80.02691650390625 80.02691650390625 C 75.80186462402344 84.25196075439453 70.88229370117188 87.56893157958984 65.40481567382812 89.88570404052734 C 59.73468017578125 92.28397369384766 53.71062850952148 93.5 47.5 93.5 Z" stroke="none"/>
                  <path d="M 47.5 3 C 41.49121475219727 3 35.66376876831055 4.176155090332031 30.17950439453125 6.495796203613281 C 24.88084411621094 8.736953735351562 20.12152099609375 11.94598388671875 16.03375244140625 16.03375244140625 C 11.94598388671875 20.12152099609375 8.736953735351562 24.88084411621094 6.495796203613281 30.17950439453125 C 4.176155090332031 35.66376876831055 3 41.49121475219727 3 47.5 C 3 53.50878524780273 4.176155090332031 59.33623123168945 6.495796203613281 64.82049560546875 C 8.736953735351562 70.11915588378906 11.94598388671875 74.87847900390625 16.03375244140625 78.96624755859375 C 20.12152099609375 83.05401611328125 24.88084411621094 86.26304626464844 30.17950439453125 88.50419616699219 C 35.66376876831055 90.82384490966797 41.49121475219727 92 47.5 92 C 53.50878524780273 92 59.33623123168945 90.82384490966797 64.82049560546875 88.50419616699219 C 70.11915588378906 86.26304626464844 74.87847900390625 83.05401611328125 78.96624755859375 78.96624755859375 C 83.05401611328125 74.87847900390625 86.26304626464844 70.11915588378906 88.50419616699219 64.82049560546875 C 90.82384490966797 59.33623123168945 92 53.50878524780273 92 47.5 C 92 41.49121475219727 90.82384490966797 35.66376876831055 88.50419616699219 30.17950439453125 C 86.26304626464844 24.88084411621094 83.05401611328125 20.12152099609375 78.96624755859375 16.03375244140625 C 74.87847900390625 11.94598388671875 70.11915588378906 8.736953735351562 64.82049560546875 6.495796203613281 C 59.33623123168945 4.176155090332031 53.50878524780273 3 47.5 3 M 47.5 0 C 73.7335205078125 0 95 21.2664794921875 95 47.5 C 95 73.7335205078125 73.7335205078125 95 47.5 95 C 21.2664794921875 95 0 73.7335205078125 0 47.5 C 0 21.2664794921875 21.2664794921875 0 47.5 0 Z" stroke="none" fill="#da53f2"/>
                </g>
              </g>
            </g>
          </g>
        </g>
      </g>
    </g>
    <g id="projectmanagement_15139824" transform="translate(350.019 5984.902)">
      <path id="Trazado_1037569" data-name="Trazado 1037569" d="M14,28a15.317,15.317,0,0,0,.069,1.543,1.052,1.052,0,0,0,.66.866l2.9,1.157a14.7,14.7,0,0,0,1.688,4.071l-1.225,2.872a1.029,1.029,0,0,0,.145,1.08c.326.394.677.771,1.037,1.14a14.487,14.487,0,0,0,1.14,1.037,1.029,1.029,0,0,0,1.08.145l2.872-1.225a14.7,14.7,0,0,0,4.071,1.688l1.157,2.9a1.052,1.052,0,0,0,.866.66,17.287,17.287,0,0,0,3.086,0,1.052,1.052,0,0,0,.866-.66l1.157-2.9a14.7,14.7,0,0,0,4.071-1.688l2.872,1.225a1.029,1.029,0,0,0,1.08-.145c.394-.326.771-.677,1.14-1.037a14.486,14.486,0,0,0,1.037-1.14,1.029,1.029,0,0,0,.145-1.08l-1.225-2.872a14.7,14.7,0,0,0,1.688-4.071l2.9-1.157a1.052,1.052,0,0,0,.66-.866,17.287,17.287,0,0,0,0-3.086,1.052,1.052,0,0,0-.66-.866l-2.9-1.157a14.7,14.7,0,0,0-1.688-4.071l1.225-2.872a1.029,1.029,0,0,0-.145-1.08c-.326-.394-.677-.771-1.037-1.14a14.486,14.486,0,0,0-1.14-1.037,1.029,1.029,0,0,0-1.08-.145L39.64,15.314a14.7,14.7,0,0,0-4.071-1.688l-1.157-2.9a1.052,1.052,0,0,0-.866-.66,17.287,17.287,0,0,0-3.086,0,1.052,1.052,0,0,0-.866.66l-1.157,2.9a14.7,14.7,0,0,0-4.071,1.688l-2.872-1.225a1.029,1.029,0,0,0-1.08.145c-.394.326-.771.677-1.14,1.037a14.486,14.486,0,0,0-1.037,1.14,1.029,1.029,0,0,0-.145,1.08l1.225,2.872a14.7,14.7,0,0,0-1.688,4.071l-2.9,1.157a1.052,1.052,0,0,0-.66.866A15.317,15.317,0,0,0,14,28Z" fill="#4580c6"/>
      <circle id="Elipse_12532" data-name="Elipse 12532" cx="11" cy="11" r="11" transform="translate(20.971 17)" fill="#38689b"/>
      <circle id="Elipse_12533" data-name="Elipse 12533" cx="6" cy="6" r="6" transform="translate(25.972 22)" fill="#4580c6"/>
      <path id="Trazado_1037570" data-name="Trazado 1037570" d="M14.354,24.664a2.06,2.06,0,0,0-1.281,1.694C13.024,26.858,13,27.4,13,28s.024,1.142.072,1.631a2.064,2.064,0,0,0,1.285,1.706l2.431.971a15.636,15.636,0,0,0,1.41,3.4L17.17,38.114a2.013,2.013,0,0,0,.294,2.112c.307.373.655.754,1.108,1.217.448.438.829.786,1.19,1.083a2.021,2.021,0,0,0,2.122.3L24.3,41.8a15.636,15.636,0,0,0,3.4,1.41l.972,2.434a2.06,2.06,0,0,0,1.694,1.281c.5.049,1.037.073,1.642.073s1.142-.024,1.631-.072a2.064,2.064,0,0,0,1.706-1.285l.971-2.431a15.636,15.636,0,0,0,3.4-1.41l2.409,1.028a2.016,2.016,0,0,0,2.112-.294c.373-.307.754-.655,1.217-1.108.438-.448.786-.829,1.083-1.19a2.018,2.018,0,0,0,.3-2.122L45.8,35.705a15.636,15.636,0,0,0,1.41-3.4l2.434-.972a2.06,2.06,0,0,0,1.281-1.694C50.974,29.139,51,28.6,51,28s-.024-1.142-.072-1.631a2.064,2.064,0,0,0-1.285-1.706l-2.431-.971a15.636,15.636,0,0,0-1.41-3.4l1.028-2.409a2.013,2.013,0,0,0-.294-2.112c-.307-.373-.655-.754-1.108-1.217-.448-.438-.829-.786-1.19-1.083a2.017,2.017,0,0,0-2.122-.3L39.705,14.2a15.636,15.636,0,0,0-3.4-1.41l-.972-2.434a2.06,2.06,0,0,0-1.694-1.281,18.634,18.634,0,0,0-3.273,0A2.064,2.064,0,0,0,28.66,10.36l-.971,2.431a15.636,15.636,0,0,0-3.4,1.41l-2.4-1.031a2.014,2.014,0,0,0-2.112.294c-.373.307-.754.655-1.217,1.108-.438.448-.786.829-1.083,1.19a2.018,2.018,0,0,0-.3,2.122L18.2,20.3a15.636,15.636,0,0,0-1.41,3.4Zm4.243.01a13.664,13.664,0,0,1,1.574-3.794,1,1,0,0,0,.063-.909L19,17.048c.307-.372.641-.729.966-1.062a9.739,9.739,0,0,1,1.128-.977l2.872,1.225a1.006,1.006,0,0,0,.909-.063A13.664,13.664,0,0,1,28.674,14.6a1,1,0,0,0,.689-.6l1.193-2.934a11.759,11.759,0,0,1,2.923.037L34.637,14a1,1,0,0,0,.689.6,13.664,13.664,0,0,1,3.794,1.574,1.006,1.006,0,0,0,.909.063l2.923-1.229c.372.308.729.641,1.062.966a9.643,9.643,0,0,1,.977,1.128l-1.225,2.872a1,1,0,0,0,.063.909A13.664,13.664,0,0,1,45.4,24.674a1,1,0,0,0,.6.689l2.934,1.193c.042.432.063.9.063,1.444a8.759,8.759,0,0,1-.1,1.479L46,30.637a1,1,0,0,0-.6.689,13.664,13.664,0,0,1-1.574,3.794,1,1,0,0,0-.063.909L45,38.952c-.307.372-.641.729-.966,1.062a9.643,9.643,0,0,1-1.128.977l-2.872-1.225a1,1,0,0,0-.909.063,13.664,13.664,0,0,1-3.8,1.571,1,1,0,0,0-.689.6l-1.193,2.934a11.759,11.759,0,0,1-2.923-.037L29.363,42a1,1,0,0,0-.689-.6,13.664,13.664,0,0,1-3.794-1.574,1,1,0,0,0-.909-.063L21.048,41c-.372-.307-.729-.641-1.062-.966a9.643,9.643,0,0,1-.977-1.128l1.225-2.872a1,1,0,0,0-.063-.909,13.664,13.664,0,0,1-1.571-3.8,1,1,0,0,0-.6-.689l-2.934-1.193A13.943,13.943,0,0,1,15,28a8.759,8.759,0,0,1,.1-1.479L18,25.363a1,1,0,0,0,.6-.689Z" fill="#373737"/>
      <path id="Trazado_1037571" data-name="Trazado 1037571" d="M31.972,40a12,12,0,0,0,4.394-23.17,1,1,0,1,0-.732,1.861A10.008,10.008,0,1,1,31.972,18a1,1,0,1,0,0-2,12,12,0,0,0,0,24Z" fill="#373737"/>
      <path id="Trazado_1037572" data-name="Trazado 1037572" d="M24.972,28a7,7,0,1,0,7-7,7,7,0,0,0-7,7Zm12,0a5,5,0,1,1-5-5,5,5,0,0,1,5,5Z" fill="#373737"/>
      <path id="Trazado_1037573" data-name="Trazado 1037573" d="M60,28a28,28,0,1,0-55.994-.4l-2.3-2.3A1,1,0,1,0,.293,26.707l4,4a1,1,0,0,0,1.414,0l4-4a1,1,0,1,0-1.414-1.414L6.011,27.575a25.95,25.95,0,1,1,1.468,9.092,1,1,0,0,0-1.885.666A28.028,28.028,0,0,0,21.641,54H1a1,1,0,0,0,0,2H56.586l-2.293,2.293a1,1,0,1,0,1.414,1.414l4-4a1,1,0,0,0,0-1.414l-4-4a1,1,0,1,0-1.414,1.414L56.586,54H42.372A28.038,28.038,0,0,0,60,28Z" fill="#373737"/>
    </g>
  </g>
</svg>
