<svg xmlns="http://www.w3.org/2000/svg" xmlns:xlink="http://www.w3.org/1999/xlink" width="113" height="113" viewBox="0 0 113 113">
  <defs>
    <filter id="Trazado_982547" x="0" y="0" width="113" height="113" filterUnits="userSpaceOnUse">
      <feOffset dy="3" input="SourceAlpha"/>
      <feGaussianBlur stdDeviation="3" result="blur"/>
      <feFlood flood-opacity="0.161"/>
      <feComposite operator="in" in2="blur"/>
      <feComposite in="SourceGraphic"/>
    </filter>
  </defs>
  <g id="Grupo_1177880" data-name="Grupo 1177880" transform="translate(-743 -5961.302)">
    <g id="Grupo_1177748" data-name="Grupo 1177748" transform="translate(-0.5 3999.127)">
      <g id="Grupo_1173869" data-name="Grupo 1173869" transform="translate(752.5 1968.175)">
        <g id="Grupo_1172010" data-name="Grupo 1172010">
          <g id="Grupo_1171046" data-name="Grupo 1171046">
            <g id="Grupo_1148525" data-name="Grupo 1148525">
              <g transform="matrix(1, 0, 0, 1, -9, -6)" filter="url(#Trazado_982547)">
                <g id="Trazado_982547-2" data-name="Trazado 982547" transform="translate(9 6)" fill="#fbecfd">
                  <path d="M 47.5 93.5 C 41.28937149047852 93.5 35.26533508300781 92.28397369384766 29.59518623352051 89.88570404052734 C 24.11771965026855 87.56893157958984 19.19813346862793 84.25196075439453 14.97309303283691 80.02691650390625 C 10.74804019927979 75.80186462402344 7.431066513061523 70.88229370117188 5.114293098449707 65.40481567382812 C 2.716026782989502 59.73468017578125 1.5 53.71062850952148 1.5 47.5 C 1.5 41.28937149047852 2.716026782989502 35.26533508300781 5.114293098449707 29.59518623352051 C 7.431066513061523 24.11771965026855 10.74804019927979 19.19813346862793 14.97309303283691 14.97309303283691 C 19.19813346862793 10.74804019927979 24.11771965026855 7.431066513061523 29.59518623352051 5.114293098449707 C 35.26533508300781 2.716026782989502 41.28937149047852 1.5 47.5 1.5 C 53.71062850952148 1.5 59.73468017578125 2.716026782989502 65.40481567382812 5.114293098449707 C 70.88229370117188 7.431066513061523 75.80186462402344 10.74804019927979 80.02691650390625 14.97309303283691 C 84.25196075439453 19.19813346862793 87.56893157958984 24.11771965026855 89.88570404052734 29.59518623352051 C 92.28397369384766 35.26533508300781 93.5 41.28937149047852 93.5 47.5 C 93.5 53.71062850952148 92.28397369384766 59.73468017578125 89.88570404052734 65.40481567382812 C 87.56893157958984 70.88229370117188 84.25196075439453 75.80186462402344 80.02691650390625 80.02691650390625 C 75.80186462402344 84.25196075439453 70.88229370117188 87.56893157958984 65.40481567382812 89.88570404052734 C 59.73468017578125 92.28397369384766 53.71062850952148 93.5 47.5 93.5 Z" stroke="none"/>
                  <path d="M 47.5 3 C 41.49121475219727 3 35.66376876831055 4.176155090332031 30.17950439453125 6.495796203613281 C 24.88084411621094 8.736953735351562 20.12152099609375 11.94598388671875 16.03375244140625 16.03375244140625 C 11.94598388671875 20.12152099609375 8.736953735351562 24.88084411621094 6.495796203613281 30.17950439453125 C 4.176155090332031 35.66376876831055 3 41.49121475219727 3 47.5 C 3 53.50878524780273 4.176155090332031 59.33623123168945 6.495796203613281 64.82049560546875 C 8.736953735351562 70.11915588378906 11.94598388671875 74.87847900390625 16.03375244140625 78.96624755859375 C 20.12152099609375 83.05401611328125 24.88084411621094 86.26304626464844 30.17950439453125 88.50419616699219 C 35.66376876831055 90.82384490966797 41.49121475219727 92 47.5 92 C 53.50878524780273 92 59.33623123168945 90.82384490966797 64.82049560546875 88.50419616699219 C 70.11915588378906 86.26304626464844 74.87847900390625 83.05401611328125 78.96624755859375 78.96624755859375 C 83.05401611328125 74.87847900390625 86.26304626464844 70.11915588378906 88.50419616699219 64.82049560546875 C 90.82384490966797 59.33623123168945 92 53.50878524780273 92 47.5 C 92 41.49121475219727 90.82384490966797 35.66376876831055 88.50419616699219 30.17950439453125 C 86.26304626464844 24.88084411621094 83.05401611328125 20.12152099609375 78.96624755859375 16.03375244140625 C 74.87847900390625 11.94598388671875 70.11915588378906 8.736953735351562 64.82049560546875 6.495796203613281 C 59.33623123168945 4.176155090332031 53.50878524780273 3 47.5 3 M 47.5 0 C 73.7335205078125 0 95 21.2664794921875 95 47.5 C 95 73.7335205078125 73.7335205078125 95 47.5 95 C 21.2664794921875 95 0 73.7335205078125 0 47.5 C 0 21.2664794921875 21.2664794921875 0 47.5 0 Z" stroke="none" fill="#da53f2"/>
                </g>
              </g>
            </g>
          </g>
        </g>
      </g>
    </g>
    <g id="methodology_14602359" transform="translate(766.925 5971.438)">
      <path id="Trazado_1037574" data-name="Trazado 1037574" d="M108.479,99.628h6.68V85.016h1.386v15.306a.693.693,0,0,1-.693.693h-7.373Zm-3.057,8.763,6.418,6.418a.7.7,0,0,1,.2.49v6.029h-1.383v-5.744l-6.216-6.216.978-.978Zm-8.357,4.035v10.757H95.683V112.426Zm-8.76-3.057-6.216,6.216v5.744H80.7V115.3a.7.7,0,0,1,.2-.49l6.418-6.418.98.978Zm-4.379-8.289H76.253a.693.693,0,0,1-.693-.693V84.46h1.386V99.694h6.981Z" transform="translate(-63.297 -57.883)" fill="#ff9b0d"/>
      <path id="Trazado_1037575" data-name="Trazado 1037575" d="M163.547,115.87a10.339,10.339,0,0,1,2.24.929l1.609-.929a.975.975,0,0,1,1.19.157l1.01,1.01,1.01,1.01a.975.975,0,0,1,.157,1.187l-.929,1.609a10.749,10.749,0,0,1,.929,2.24l1.791.481a.977.977,0,0,1,.729.952v2.857a.977.977,0,0,1-.729.952l-1.791.481a10.774,10.774,0,0,1-.929,2.24l.929,1.609a.975.975,0,0,1-.157,1.187l-1.01,1.01-1.01,1.01a.975.975,0,0,1-1.19.157l-1.609-.929a10.34,10.34,0,0,1-2.24.929l-.481,1.791a.966.966,0,0,1-.948.729h-2.861a.966.966,0,0,1-.948-.729l-.481-1.791a10.34,10.34,0,0,1-2.24-.929l-1.609.929a.969.969,0,0,1-1.187-.157l-1.014-1.01-1.01-1.01a.97.97,0,0,1-.153-1.187l.929-1.609a10.388,10.388,0,0,1-.929-2.24l-1.795-.481a.977.977,0,0,1-.729-.952v-2.857a.977.977,0,0,1,.729-.952l1.795-.481a10.412,10.412,0,0,1,.929-2.24l-.929-1.609a.975.975,0,0,1,.153-1.187l1.01-1.01,1.014-1.01a.969.969,0,0,1,1.187-.157l1.609.929a10.34,10.34,0,0,1,2.24-.929l.481-1.791a.969.969,0,0,1,.948-.729h2.861a.966.966,0,0,1,.948.729Z" transform="translate(-127.46 -83.44)" fill="#574e66" fill-rule="evenodd"/>
      <path id="Trazado_1037576" data-name="Trazado 1037576" d="M238.229,115.888a10.34,10.34,0,0,1,2.24.929l1.609-.929a.975.975,0,0,1,1.19.157l1.01,1.01,1.01,1.01a.975.975,0,0,1,.157,1.187l-.929,1.609a10.749,10.749,0,0,1,.929,2.24l1.791.481a.977.977,0,0,1,.729.952v2.857a.977.977,0,0,1-.729.952l-1.791.481a10.776,10.776,0,0,1-.929,2.24l.929,1.609a.975.975,0,0,1-.157,1.187l-1.01,1.01-1.01,1.01a.975.975,0,0,1-1.19.157l-1.609-.929a10.341,10.341,0,0,1-2.24.929l-.481,1.791a.966.966,0,0,1-.948.729h-2.861a.966.966,0,0,1-.948-.729l-.481-1.791a10.081,10.081,0,1,0,0-20.148l.481-1.791a.969.969,0,0,1,.948-.729H236.8a.966.966,0,0,1,.948.729l.481,1.791Z" transform="translate(-202.143 -83.458)" fill="#4b4359" fill-rule="evenodd"/>
      <path id="Trazado_1037577" data-name="Trazado 1037577" d="M208.1,179.736a6.418,6.418,0,1,0-6.418-6.418A6.429,6.429,0,0,0,208.1,179.736Z" transform="translate(-174.869 -130.813)" fill="#e1dae7" fill-rule="evenodd"/>
      <path id="Trazado_1037578" data-name="Trazado 1037578" d="M206.539,181a6.422,6.422,0,0,1,0-12.458,6.421,6.421,0,0,1,0,12.458Z" transform="translate(-174.869 -132.264)" fill="#ebe6ef" fill-rule="evenodd"/>
      <path id="Trazado_1037579" data-name="Trazado 1037579" d="M230.537,217.176a.692.692,0,1,1-1.383,0v-.013a.692.692,0,1,1,1.383,0Zm-6.644,0a.692.692,0,1,1-1.383,0v-.013a.692.692,0,1,1,1.383,0Zm3.322,0a.692.692,0,1,1-1.383,0v-.013a.692.692,0,1,1,1.383,0Z" transform="translate(-193.296 -174.665)" fill="#4b4359"/>
      <g id="Grupo_1177879" data-name="Grupo 1177879" transform="translate(4.701 19.723)">
        <path id="Trazado_1037580" data-name="Trazado 1037580" d="M11.811,37.028H25.985a1.815,1.815,0,0,0,1.809-1.809V26.849a1.815,1.815,0,0,0-1.809-1.809H11.811A1.814,1.814,0,0,0,10,26.849V35.22a1.815,1.815,0,0,0,1.811,1.809Z" transform="translate(-10 -25.04)" fill="#e1dae7" fill-rule="evenodd"/>
        <path id="Trazado_1037581" data-name="Trazado 1037581" d="M11.811,37.028H22.294A1.815,1.815,0,0,0,24.1,35.22V26.849a1.815,1.815,0,0,0-1.809-1.809H11.811A1.814,1.814,0,0,0,10,26.849V35.22a1.815,1.815,0,0,0,1.811,1.809Z" transform="translate(-10 -25.04)" fill="#ebe6ef" fill-rule="evenodd"/>
        <path id="Trazado_1037582" data-name="Trazado 1037582" d="M37.2,46.613a.692.692,0,1,1,0-1.383h6.245a.692.692,0,1,1,0,1.383Zm-5.265,0a.692.692,0,0,1,0-1.383h2.452a.692.692,0,1,1,0,1.383Zm0,5.947a.692.692,0,0,1,0-1.383h11.51a.692.692,0,1,1,0,1.383H31.941Zm0-2.973a.692.692,0,0,1,0-1.383h11.51a.692.692,0,1,1,0,1.383H31.941Z" transform="translate(-28.799 -42.901)" fill="#574e66" fill-rule="evenodd"/>
        <path id="Trazado_1037583" data-name="Trazado 1037583" d="M363.735,37.028H349.561a1.814,1.814,0,0,1-1.811-1.809V26.849a1.815,1.815,0,0,1,1.811-1.809h14.174a1.815,1.815,0,0,1,1.809,1.809V35.22A1.815,1.815,0,0,1,363.735,37.028Z" transform="translate(-308.791 -25.04)" fill="#e1dae7" fill-rule="evenodd"/>
        <path id="Trazado_1037584" data-name="Trazado 1037584" d="M85.935,396.05a5.245,5.245,0,1,0,5.245,5.245A5.244,5.244,0,0,0,85.935,396.05Zm14.978,0a5.245,5.245,0,1,0,5.245,5.245A5.245,5.245,0,0,0,100.913,396.05Zm14.976,0a5.245,5.245,0,1,0,5.245,5.245A5.243,5.243,0,0,0,115.889,396.05Z" transform="translate(-72.536 -353.254)" fill="#058b6a" fill-rule="evenodd"/>
        <path id="Trazado_1037585" data-name="Trazado 1037585" d="M84.434,397.94a5.245,5.245,0,0,0,0,10.051,5.244,5.244,0,0,0,0-10.051Zm14.978,10.051a5.245,5.245,0,0,0,0-10.051,5.245,5.245,0,0,0,0,10.051Zm14.979,0a5.245,5.245,0,0,0,0-10.051,5.245,5.245,0,0,0,0,10.051Z" transform="translate(-72.536 -354.926)" fill="#08a88a" fill-rule="evenodd"/>
      </g>
      <path id="Trazado_1037586" data-name="Trazado 1037586" d="M102.761,424.775a.689.689,0,1,1,1.193-.69l.6,1.043,2.347-2.347a.692.692,0,1,1,.978.978l-2.985,2.985a.726.726,0,0,1-.144.108.687.687,0,0,1-.941-.251l-1.053-1.825Zm14.976,0a.69.69,0,0,1,1.2-.69l.6,1.043,2.351-2.347a.692.692,0,1,1,.978.978l-2.985,2.985a.8.8,0,0,1-.144.108.686.686,0,0,1-.941-.251l-1.057-1.825Zm14.978,0a.69.69,0,0,1,1.2-.69l.6,1.043,2.347-2.347a.692.692,0,0,1,.98.978l-2.985,2.985h0a.7.7,0,0,1-.141.108.691.691,0,0,1-.945-.251l-1.053-1.825Z" transform="translate(-87.277 -356.999)" fill="#ebe6ef"/>
      <path id="Trazado_1037587" data-name="Trazado 1037587" d="M349.561,37.028h10.483a1.815,1.815,0,0,0,1.809-1.809V26.849a1.815,1.815,0,0,0-1.809-1.809H349.561a1.814,1.814,0,0,0-1.811,1.809V35.22A1.815,1.815,0,0,0,349.561,37.028Z" transform="translate(-304.09 -5.317)" fill="#ebe6ef" fill-rule="evenodd"/>
      <path id="Trazado_1037588" data-name="Trazado 1037588" d="M405.385,53.417a.692.692,0,1,1,.978.978L404.8,55.959l1.563,1.563a.692.692,0,1,1-.978.978l-1.563-1.56-1.563,1.56a.692.692,0,0,1-.978-.978l1.563-1.563L401.281,54.4a.692.692,0,0,1,.978-.978l1.563,1.563Z" transform="translate(-351.266 -30.241)" fill="#f24c00"/>
      <path id="Trazado_1037589" data-name="Trazado 1037589" d="M55.1,24.152l-1.563,1.566,1.563,1.56a.7.7,0,0,1,0,.98.689.689,0,0,1-.487.2.7.7,0,0,1-.49-.2l-1.563-1.563-1.563,1.563a.692.692,0,0,1-.978-.98l1.563-1.56-1.563-1.566a.692.692,0,1,1,.978-.978l1.563,1.563,1.563-1.563a.692.692,0,0,1,.978.978ZM17.282,68.126l2.347-2.344a.692.692,0,0,1,.978.978l-2.985,2.985a.688.688,0,0,1-.487.2.772.772,0,0,1-.091,0,.686.686,0,0,1-.506-.34l-1.057-1.825a.693.693,0,0,1,1.2-.693l.6,1.043Zm29.954,0,2.347-2.344a.692.692,0,0,1,.978.978l-2.985,2.985a.688.688,0,0,1-.487.2.8.8,0,0,1-.091,0,.7.7,0,0,1-.51-.34l-1.053-1.825a.693.693,0,0,1,1.2-.693l.6,1.043Zm-14.976,0,2.347-2.344a.692.692,0,0,1,.978.978L32.6,69.746a.684.684,0,0,1-.487.2.8.8,0,0,1-.091,0,.693.693,0,0,1-.506-.34l-1.053-1.825a.691.691,0,0,1,1.2-.693l.6,1.043ZM60.763,29.9a1.119,1.119,0,0,1-1.118,1.118H45.471A1.119,1.119,0,0,1,44.353,29.9V21.532a1.12,1.12,0,0,1,1.118-1.115H59.645a1.119,1.119,0,0,1,1.118,1.115ZM45.131,43.933a.283.283,0,0,1-.216.285l-1.791.478a.688.688,0,0,0-.487.481,9.694,9.694,0,0,1-.866,2.092.687.687,0,0,0,.007.683l.925,1.6a.284.284,0,0,1-.046.356l-2.021,2.021a.28.28,0,0,1-.35.05l-1.611-.929a.691.691,0,0,0-.681-.007,9.89,9.89,0,0,1-2.092.87.68.68,0,0,0-.478.484l-.484,1.791a.284.284,0,0,1-.281.219H31.8a.286.286,0,0,1-.285-.219L31.035,52.4a.688.688,0,0,0-.478-.484,10.169,10.169,0,0,1-2.1-.87.675.675,0,0,0-.679.006l-1.609.929a.281.281,0,0,1-.353-.05L23.8,49.909a.284.284,0,0,1-.046-.353l.929-1.606a.687.687,0,0,0,0-.683,9.821,9.821,0,0,1-.866-2.092.684.684,0,0,0-.487-.481l-1.795-.484a.278.278,0,0,1-.216-.278V41.08a.292.292,0,0,1,.223-.291l1.789-.481a.682.682,0,0,0,.487-.481,9.684,9.684,0,0,1,.866-2.087.694.694,0,0,0,0-.686l-.929-1.606A.282.282,0,0,1,23.8,35.1l2.021-2.021a.284.284,0,0,1,.353-.05l1.609.929a.687.687,0,0,0,.683.007,9.619,9.619,0,0,1,2.089-.866.69.69,0,0,0,.481-.487l.481-1.795A.282.282,0,0,1,31.8,30.6h2.857a.281.281,0,0,1,.281.216l.484,1.795a.689.689,0,0,0,.478.487A9.646,9.646,0,0,1,38,33.961a.683.683,0,0,0,.681-.007l1.611-.929a.277.277,0,0,1,.35.05L42.661,35.1a.279.279,0,0,1,.046.35l-.929,1.609a.694.694,0,0,0-.007.686,9.6,9.6,0,0,1,.866,2.087.69.69,0,0,0,.487.481l1.791.481a.281.281,0,0,1,.216.285v2.857Zm7.478,23.83a4.553,4.553,0,1,1-4.552-4.552A4.557,4.557,0,0,1,52.609,67.763Zm-14.979,0a4.553,4.553,0,1,1-4.552-4.552A4.555,4.555,0,0,1,37.63,67.763Zm-14.978,0A4.552,4.552,0,1,1,18.1,63.211,4.555,4.555,0,0,1,22.652,67.763ZM5.393,29.9V21.532a1.12,1.12,0,0,1,1.118-1.115H20.685A1.117,1.117,0,0,1,21.8,21.532V29.9a1.117,1.117,0,0,1-1.118,1.118H6.512A1.119,1.119,0,0,1,5.394,29.9ZM59.645,19.031H45.471a2.5,2.5,0,0,0-2.5,2.5V29.9a2.5,2.5,0,0,0,2.5,2.5h6.4v9.342H46.515v-.67a1.657,1.657,0,0,0-1.239-1.618l-1.422-.383a10.98,10.98,0,0,0-.686-1.658l.736-1.276a1.648,1.648,0,0,0-.268-2.021L41.615,32.1a1.655,1.655,0,0,0-2.021-.265l-1.276.736a11.16,11.16,0,0,0-1.658-.686l-.383-1.426a1.66,1.66,0,0,0-1.618-1.242H31.8a1.66,1.66,0,0,0-1.618,1.242L29.8,31.882a11.13,11.13,0,0,0-1.658.686l-1.276-.736a1.66,1.66,0,0,0-2.024.265l-2.017,2.021a1.649,1.649,0,0,0-.268,2.024l.736,1.276a11.24,11.24,0,0,0-.69,1.658l-1.419.383a1.667,1.667,0,0,0-1.246,1.618v.736H13.649V32.407h7.04a2.5,2.5,0,0,0,2.5-2.5V21.532a2.5,2.5,0,0,0-2.5-2.5H6.512a2.5,2.5,0,0,0-2.5,2.5V29.9a2.5,2.5,0,0,0,2.5,2.5h5.751V42.5a.693.693,0,0,0,.693.693h6.981v.736a1.65,1.65,0,0,0,1.246,1.615l1.419.383a10.83,10.83,0,0,0,.69,1.661l-.739,1.276a1.665,1.665,0,0,0,.268,2.024l.412.412-5.624,5.624a.693.693,0,0,0-.2.49v4.45a5.936,5.936,0,1,0,1.383,0V57.708l5.425-5.425.628.631a1.655,1.655,0,0,0,2.021.265l1.278-.736a11.541,11.541,0,0,0,1.658.686l.383,1.422A1.66,1.66,0,0,0,31.8,55.794h.585v6.075a5.936,5.936,0,1,0,1.383,0V55.794h.889a1.66,1.66,0,0,0,1.618-1.242l.383-1.422a11.577,11.577,0,0,0,1.658-.686l1.276.736a1.655,1.655,0,0,0,2.021-.265l.481-.481,5.27,5.274v4.162a5.936,5.936,0,1,0,1.383,0v-4.45a.688.688,0,0,0-.2-.49l-5.473-5.473.563-.563a1.663,1.663,0,0,0,.268-2.027l-.736-1.272a11.048,11.048,0,0,0,.686-1.661l1.422-.379a1.657,1.657,0,0,0,1.239-1.618v-.8h6.045a.687.687,0,0,0,.69-.69V32.4h6.4a2.5,2.5,0,0,0,2.5-2.5V21.532a2.5,2.5,0,0,0-2.5-2.5ZM7.152,22.742a.693.693,0,0,1,.693-.693H10.3a.692.692,0,0,1,0,1.383H7.845a.69.69,0,0,1-.693-.69Zm12.893,5.947a.691.691,0,0,1-.69.693H7.845a.692.692,0,1,1,0-1.383h11.51A.687.687,0,0,1,20.045,28.689Zm0-2.973a.691.691,0,0,1-.69.693H7.845a.692.692,0,1,1,0-1.383h11.51A.687.687,0,0,1,20.045,25.717Zm0-2.976a.688.688,0,0,1-.69.69H13.106a.692.692,0,1,1,0-1.383h6.248a.69.69,0,0,1,.69.693ZM37.24,42.5v.013a.692.692,0,1,1-1.383,0V42.5a.692.692,0,1,1,1.383,0Zm-3.322,0v.013a.692.692,0,1,1-1.383,0V42.5a.692.692,0,1,1,1.383,0Zm-3.322,0v.013a.692.692,0,1,1-1.383,0V42.5a.692.692,0,1,1,1.383,0Zm2.632,5.732A5.725,5.725,0,1,1,38.953,42.5,5.732,5.732,0,0,1,33.228,48.228Zm0-12.834A7.108,7.108,0,1,0,40.337,42.5,7.118,7.118,0,0,0,33.228,35.395Z" fill="#070202"/>
    </g>
  </g>
</svg>
