<svg xmlns="http://www.w3.org/2000/svg" xmlns:xlink="http://www.w3.org/1999/xlink" width="113" height="113" viewBox="0 0 113 113">
  <defs>
    <filter id="Trazado_982547" x="0" y="0" width="113" height="113" filterUnits="userSpaceOnUse">
      <feOffset dy="3" input="SourceAlpha"/>
      <feGaussianBlur stdDeviation="3" result="blur"/>
      <feFlood flood-opacity="0.161"/>
      <feComposite operator="in" in2="blur"/>
      <feComposite in="SourceGraphic"/>
    </filter>
  </defs>
  <g id="Grupo_1177881" data-name="Grupo 1177881" transform="translate(-1163.5 -5961.302)">
    <g id="Grupo_1177749" data-name="Grupo 1177749" transform="translate(1172.5 5967.302)">
      <g id="Grupo_1172010" data-name="Grupo 1172010">
        <g id="Grupo_1171046" data-name="Grupo 1171046">
          <g id="Grupo_1148525" data-name="Grupo 1148525">
            <g transform="matrix(1, 0, 0, 1, -9, -6)" filter="url(#Trazado_982547)">
              <g id="Trazado_982547-2" data-name="Trazado 982547" transform="translate(9 6)" fill="#fbecfd">
                <path d="M 47.5 93.5 C 41.28937149047852 93.5 35.26533508300781 92.28397369384766 29.59518623352051 89.88570404052734 C 24.11771965026855 87.56893157958984 19.19813346862793 84.25196075439453 14.97309303283691 80.02691650390625 C 10.74804019927979 75.80186462402344 7.431066513061523 70.88229370117188 5.114293098449707 65.40481567382812 C 2.716026782989502 59.73468017578125 1.5 53.71062850952148 1.5 47.5 C 1.5 41.28937149047852 2.716026782989502 35.26533508300781 5.114293098449707 29.59518623352051 C 7.431066513061523 24.11771965026855 10.74804019927979 19.19813346862793 14.97309303283691 14.97309303283691 C 19.19813346862793 10.74804019927979 24.11771965026855 7.431066513061523 29.59518623352051 5.114293098449707 C 35.26533508300781 2.716026782989502 41.28937149047852 1.5 47.5 1.5 C 53.71062850952148 1.5 59.73468017578125 2.716026782989502 65.40481567382812 5.114293098449707 C 70.88229370117188 7.431066513061523 75.80186462402344 10.74804019927979 80.02691650390625 14.97309303283691 C 84.25196075439453 19.19813346862793 87.56893157958984 24.11771965026855 89.88570404052734 29.59518623352051 C 92.28397369384766 35.26533508300781 93.5 41.28937149047852 93.5 47.5 C 93.5 53.71062850952148 92.28397369384766 59.73468017578125 89.88570404052734 65.40481567382812 C 87.56893157958984 70.88229370117188 84.25196075439453 75.80186462402344 80.02691650390625 80.02691650390625 C 75.80186462402344 84.25196075439453 70.88229370117188 87.56893157958984 65.40481567382812 89.88570404052734 C 59.73468017578125 92.28397369384766 53.71062850952148 93.5 47.5 93.5 Z" stroke="none"/>
                <path d="M 47.5 3 C 41.49121475219727 3 35.66376876831055 4.176155090332031 30.17950439453125 6.495796203613281 C 24.88084411621094 8.736953735351562 20.12152099609375 11.94598388671875 16.03375244140625 16.03375244140625 C 11.94598388671875 20.12152099609375 8.736953735351562 24.88084411621094 6.495796203613281 30.17950439453125 C 4.176155090332031 35.66376876831055 3 41.49121475219727 3 47.5 C 3 53.50878524780273 4.176155090332031 59.33623123168945 6.495796203613281 64.82049560546875 C 8.736953735351562 70.11915588378906 11.94598388671875 74.87847900390625 16.03375244140625 78.96624755859375 C 20.12152099609375 83.05401611328125 24.88084411621094 86.26304626464844 30.17950439453125 88.50419616699219 C 35.66376876831055 90.82384490966797 41.49121475219727 92 47.5 92 C 53.50878524780273 92 59.33623123168945 90.82384490966797 64.82049560546875 88.50419616699219 C 70.11915588378906 86.26304626464844 74.87847900390625 83.05401611328125 78.96624755859375 78.96624755859375 C 83.05401611328125 74.87847900390625 86.26304626464844 70.11915588378906 88.50419616699219 64.82049560546875 C 90.82384490966797 59.33623123168945 92 53.50878524780273 92 47.5 C 92 41.49121475219727 90.82384490966797 35.66376876831055 88.50419616699219 30.17950439453125 C 86.26304626464844 24.88084411621094 83.05401611328125 20.12152099609375 78.96624755859375 16.03375244140625 C 74.87847900390625 11.94598388671875 70.11915588378906 8.736953735351562 64.82049560546875 6.495796203613281 C 59.33623123168945 4.176155090332031 53.50878524780273 3 47.5 3 M 47.5 0 C 73.7335205078125 0 95 21.2664794921875 95 47.5 C 95 73.7335205078125 73.7335205078125 95 47.5 95 C 21.2664794921875 95 0 73.7335205078125 0 47.5 C 0 21.2664794921875 21.2664794921875 0 47.5 0 Z" stroke="none" fill="#da53f2"/>
              </g>
            </g>
          </g>
        </g>
      </g>
    </g>
    <g id="code_1733826" transform="translate(1192.302 5987.104)">
      <path id="Trazado_1037590" data-name="Trazado 1037590" d="M86.462,164.592H40v-26.8A1.787,1.787,0,0,1,41.787,136H84.675a1.787,1.787,0,0,1,1.787,1.787Zm0,0" transform="translate(-35.533 -120.811)" fill="#999"/>
      <path id="Trazado_1037591" data-name="Trazado 1037591" d="M72,168h39.314v21.444H72Zm0,0" transform="translate(-63.959 -149.237)" fill="#78adbf"/>
      <path id="Trazado_1037592" data-name="Trazado 1037592" d="M72,168h36.633v21.444H72Zm0,0" transform="translate(-63.959 -149.237)" fill="#a0e6ff"/>
      <path id="Trazado_1037593" data-name="Trazado 1037593" d="M120,72h28.592V88.083H120Zm0,0" transform="translate(-106.598 -63.959)" fill="#b2b0b2"/>
      <path id="Trazado_1037594" data-name="Trazado 1037594" d="M120,72h25.911V88.083H120Zm0,0" transform="translate(-106.598 -63.959)" fill="#edebed"/>
      <path id="Trazado_1037595" data-name="Trazado 1037595" d="M120,8h28.592v7.148H120Zm0,0" transform="translate(-106.598 -7.107)" fill="#8ead51"/>
      <path id="Trazado_1037596" data-name="Trazado 1037596" d="M120,8h25.911v7.148H120Zm0,0" transform="translate(-106.598 -7.107)" fill="#bde66c"/>
      <path id="Trazado_1037597" data-name="Trazado 1037597" d="M8,399.148v-3.574L11.574,392H58.036l3.574,3.574v3.574a3.574,3.574,0,0,1-3.574,3.574H11.574A3.574,3.574,0,0,1,8,399.148Zm0,0" transform="translate(-7.107 -348.219)" fill="gray"/>
      <path id="Trazado_1037598" data-name="Trazado 1037598" d="M58.929,399.148v-3.574L55.355,392H11.574L8,395.574v3.574a3.574,3.574,0,0,0,3.574,3.574H55.355A3.574,3.574,0,0,0,58.929,399.148Zm0,0" transform="translate(-7.107 -348.219)" fill="#999"/>
      <path id="Trazado_1037599" data-name="Trazado 1037599" d="M8,395.574H61.61L58.036,392H11.574Zm0,0" transform="translate(-7.107 -348.219)" fill="#b3b3b3"/>
      <path id="Trazado_1037600" data-name="Trazado 1037600" d="M11.574,392,8,395.574H58.929L55.355,392Zm0,0" transform="translate(-7.107 -348.219)" fill="#ccc"/>
      <path id="Trazado_1037601" data-name="Trazado 1037601" d="M50.929,396.509H4.467A4.473,4.473,0,0,1,0,392.041v-3.574a.889.889,0,0,1,.262-.632l3.574-3.574A.891.891,0,0,1,4.467,384H50.929a.891.891,0,0,1,.632.262l3.574,3.574a.889.889,0,0,1,.262.632v3.574A4.473,4.473,0,0,1,50.929,396.509ZM1.787,388.837v3.2a2.684,2.684,0,0,0,2.68,2.68H50.929a2.684,2.684,0,0,0,2.68-2.68v-3.2l-3.05-3.05H4.837Zm0,0" transform="translate(0 -341.112)"/>
      <path id="Trazado_1037602" data-name="Trazado 1037602" d="M8,416H61.61v1.787H8Zm0,0" transform="translate(-7.107 -369.538)"/>
      <path id="Trazado_1037603" data-name="Trazado 1037603" d="M33.787,157.485H32V131.574A3.578,3.578,0,0,1,35.574,128h6.254v1.787H35.574a1.789,1.789,0,0,0-1.787,1.787Zm0,0" transform="translate(-28.426 -113.704)"/>
      <path id="Trazado_1037604" data-name="Trazado 1037604" d="M385.828,157.485h-1.787V131.574a1.789,1.789,0,0,0-1.787-1.787H376V128h6.254a3.577,3.577,0,0,1,3.574,3.574Zm0,0" transform="translate(-334.006 -113.704)"/>
      <path id="Trazado_1037605" data-name="Trazado 1037605" d="M104.207,183.231H64.893a.893.893,0,0,1-.893-.893V160.893a.894.894,0,0,1,.893-.893h5.361v1.787H65.787v19.657h37.527V161.787H98.846V160h5.361a.894.894,0,0,1,.893.893v21.444A.893.893,0,0,1,104.207,183.231Zm0,0" transform="translate(-56.852 -142.13)"/>
      <path id="Trazado_1037606" data-name="Trazado 1037606" d="M448,448h1.787v1.787H448Zm0,0" transform="translate(-397.964 -397.964)"/>
      <path id="Trazado_1037607" data-name="Trazado 1037607" d="M416,448h1.787v1.787H416Zm0,0" transform="translate(-369.538 -397.964)"/>
      <path id="Trazado_1037608" data-name="Trazado 1037608" d="M384,448h1.787v1.787H384Zm0,0" transform="translate(-341.112 -397.964)"/>
      <path id="Trazado_1037609" data-name="Trazado 1037609" d="M32,448h7.148v1.787H32Zm0,0" transform="translate(-28.426 -397.964)"/>
      <path id="Trazado_1037610" data-name="Trazado 1037610" d="M141.485,25.018H112.893a.894.894,0,0,1-.893-.893V.893A.894.894,0,0,1,112.893,0h28.592a.894.894,0,0,1,.893.893V24.124A.894.894,0,0,1,141.485,25.018Zm-27.7-1.787h26.8V1.787h-26.8Zm0,0" transform="translate(-99.491 0)"/>
      <path id="Trazado_1037611" data-name="Trazado 1037611" d="M120,64h28.592v1.787H120Zm0,0" transform="translate(-106.598 -56.852)"/>
      <path id="Trazado_1037612" data-name="Trazado 1037612" d="M336,32h1.787v1.787H336Zm0,0" transform="translate(-298.473 -28.426)"/>
      <path id="Trazado_1037613" data-name="Trazado 1037613" d="M304,32h1.787v1.787H304Zm0,0" transform="translate(-270.047 -28.426)"/>
      <path id="Trazado_1037614" data-name="Trazado 1037614" d="M272,32h1.787v1.787H272Zm0,0" transform="translate(-241.621 -28.426)"/>
      <path id="Trazado_1037615" data-name="Trazado 1037615" d="M144,32h7.148v1.787H144Zm0,0" transform="translate(-127.917 -28.426)"/>
      <path id="Trazado_1037616" data-name="Trazado 1037616" d="M163.833,114.755l-3.574-3.574a.892.892,0,0,1,0-1.263l3.574-3.574,1.263,1.263-2.942,2.942,2.942,2.942Zm0,0" transform="translate(-142.128 -94.466)"/>
      <path id="Trazado_1037617" data-name="Trazado 1037617" d="M291.607,114.755l-1.263-1.263,2.942-2.942-2.942-2.942,1.263-1.263,3.574,3.574a.892.892,0,0,1,0,1.263Zm0,0" transform="translate(-257.916 -94.466)"/>
      <path id="Trazado_1037618" data-name="Trazado 1037618" d="M224.57,109.981l3.575-8.934,1.66.664-3.575,8.934Zm0,0" transform="translate(-199.489 -89.761)"/>
      <path id="Trazado_1037619" data-name="Trazado 1037619" d="M97.787,259.574H96v-2.68a.893.893,0,0,1,.893-.893h2.68v1.787H97.787Zm0,0" transform="translate(-85.278 -227.408)"/>
      <path id="Trazado_1037620" data-name="Trazado 1037620" d="M99.574,307.574h-2.68A.893.893,0,0,1,96,306.68V304h1.787v1.787h1.787Zm0,0" transform="translate(-85.278 -270.047)"/>
      <path id="Trazado_1037621" data-name="Trazado 1037621" d="M147.574,259.574h-1.787v-1.787H144V256h2.68a.893.893,0,0,1,.893.893Zm0,0" transform="translate(-127.917 -227.408)"/>
      <path id="Trazado_1037622" data-name="Trazado 1037622" d="M146.68,307.574H144v-1.787h1.787V304h1.787v2.68A.893.893,0,0,1,146.68,307.574Zm0,0" transform="translate(-127.917 -270.047)"/>
      <path id="Trazado_1037623" data-name="Trazado 1037623" d="M209.787,259.574H208v-2.68a.893.893,0,0,1,.893-.893h2.68v1.787h-1.787Zm0,0" transform="translate(-184.769 -227.408)"/>
      <path id="Trazado_1037624" data-name="Trazado 1037624" d="M211.574,307.574h-2.68a.893.893,0,0,1-.893-.893V304h1.787v1.787h1.787Zm0,0" transform="translate(-184.769 -270.047)"/>
      <path id="Trazado_1037625" data-name="Trazado 1037625" d="M259.574,259.574h-1.787v-1.787H256V256h2.68a.893.893,0,0,1,.893.893Zm0,0" transform="translate(-227.408 -227.408)"/>
      <path id="Trazado_1037626" data-name="Trazado 1037626" d="M258.68,307.574H256v-1.787h1.787V304h1.787v2.68A.893.893,0,0,1,258.68,307.574Zm0,0" transform="translate(-227.408 -270.047)"/>
      <path id="Trazado_1037627" data-name="Trazado 1037627" d="M321.787,259.574H320v-2.68a.893.893,0,0,1,.893-.893h2.68v1.787h-1.787Zm0,0" transform="translate(-284.26 -227.408)"/>
      <path id="Trazado_1037628" data-name="Trazado 1037628" d="M323.574,307.574h-2.68a.893.893,0,0,1-.893-.893V304h1.787v1.787h1.787Zm0,0" transform="translate(-284.26 -270.047)"/>
      <path id="Trazado_1037629" data-name="Trazado 1037629" d="M371.574,259.574h-1.787v-1.787H368V256h2.68a.893.893,0,0,1,.893.893Zm0,0" transform="translate(-326.899 -227.408)"/>
      <path id="Trazado_1037630" data-name="Trazado 1037630" d="M370.68,307.574H368v-1.787h1.787V304h1.787v2.68A.893.893,0,0,1,370.68,307.574Zm0,0" transform="translate(-326.899 -270.047)"/>
    </g>
  </g>
</svg>
