<svg xmlns="http://www.w3.org/2000/svg" xmlns:xlink="http://www.w3.org/1999/xlink" width="113" height="113" viewBox="0 0 113 113">
  <defs>
    <filter id="Trazado_982547" x="0" y="0" width="113" height="113" filterUnits="userSpaceOnUse">
      <feOffset dy="3" input="SourceAlpha"/>
      <feGaussianBlur stdDeviation="3" result="blur"/>
      <feFlood flood-opacity="0.161"/>
      <feComposite operator="in" in2="blur"/>
      <feComposite in="SourceGraphic"/>
    </filter>
  </defs>
  <g id="Grupo_1177822" data-name="Grupo 1177822" transform="translate(-587 -696.802)">
    <g id="Grupo_1177724" data-name="Grupo 1177724" transform="translate(596 702.802)">
      <g id="Grupo_1173868" data-name="Grupo 1173868">
        <g id="Grupo_1172010" data-name="Grupo 1172010">
          <g id="Grupo_1171046" data-name="Grupo 1171046">
            <g id="Grupo_1148525" data-name="Grupo 1148525">
              <g transform="matrix(1, 0, 0, 1, -9, -6)" filter="url(#Trazado_982547)">
                <g id="Trazado_982547-2" data-name="Trazado 982547" transform="translate(9 6)" fill="#fbecfd">
                  <path d="M 47.5 93.5 C 41.28937149047852 93.5 35.26533508300781 92.28397369384766 29.59518623352051 89.88570404052734 C 24.11771965026855 87.56893157958984 19.19813346862793 84.25196075439453 14.97309303283691 80.02691650390625 C 10.74804019927979 75.80186462402344 7.431066513061523 70.88229370117188 5.114293098449707 65.40481567382812 C 2.716026782989502 59.73468017578125 1.5 53.71062850952148 1.5 47.5 C 1.5 41.28937149047852 2.716026782989502 35.26533508300781 5.114293098449707 29.59518623352051 C 7.431066513061523 24.11771965026855 10.74804019927979 19.19813346862793 14.97309303283691 14.97309303283691 C 19.19813346862793 10.74804019927979 24.11771965026855 7.431066513061523 29.59518623352051 5.114293098449707 C 35.26533508300781 2.716026782989502 41.28937149047852 1.5 47.5 1.5 C 53.71062850952148 1.5 59.73468017578125 2.716026782989502 65.40481567382812 5.114293098449707 C 70.88229370117188 7.431066513061523 75.80186462402344 10.74804019927979 80.02691650390625 14.97309303283691 C 84.25196075439453 19.19813346862793 87.56893157958984 24.11771965026855 89.88570404052734 29.59518623352051 C 92.28397369384766 35.26533508300781 93.5 41.28937149047852 93.5 47.5 C 93.5 53.71062850952148 92.28397369384766 59.73468017578125 89.88570404052734 65.40481567382812 C 87.56893157958984 70.88229370117188 84.25196075439453 75.80186462402344 80.02691650390625 80.02691650390625 C 75.80186462402344 84.25196075439453 70.88229370117188 87.56893157958984 65.40481567382812 89.88570404052734 C 59.73468017578125 92.28397369384766 53.71062850952148 93.5 47.5 93.5 Z" stroke="none"/>
                  <path d="M 47.5 3 C 41.49121475219727 3 35.66376876831055 4.176155090332031 30.17950439453125 6.495796203613281 C 24.88084411621094 8.736953735351562 20.12152099609375 11.94598388671875 16.03375244140625 16.03375244140625 C 11.94598388671875 20.12152099609375 8.736953735351562 24.88084411621094 6.495796203613281 30.17950439453125 C 4.176155090332031 35.66376876831055 3 41.49121475219727 3 47.5 C 3 53.50878524780273 4.176155090332031 59.33623123168945 6.495796203613281 64.82049560546875 C 8.736953735351562 70.11915588378906 11.94598388671875 74.87847900390625 16.03375244140625 78.96624755859375 C 20.12152099609375 83.05401611328125 24.88084411621094 86.26304626464844 30.17950439453125 88.50419616699219 C 35.66376876831055 90.82384490966797 41.49121475219727 92 47.5 92 C 53.50878524780273 92 59.33623123168945 90.82384490966797 64.82049560546875 88.50419616699219 C 70.11915588378906 86.26304626464844 74.87847900390625 83.05401611328125 78.96624755859375 78.96624755859375 C 83.05401611328125 74.87847900390625 86.26304626464844 70.11915588378906 88.50419616699219 64.82049560546875 C 90.82384490966797 59.33623123168945 92 53.50878524780273 92 47.5 C 92 41.49121475219727 90.82384490966797 35.66376876831055 88.50419616699219 30.17950439453125 C 86.26304626464844 24.88084411621094 83.05401611328125 20.12152099609375 78.96624755859375 16.03375244140625 C 74.87847900390625 11.94598388671875 70.11915588378906 8.736953735351562 64.82049560546875 6.495796203613281 C 59.33623123168945 4.176155090332031 53.50878524780273 3 47.5 3 M 47.5 0 C 73.7335205078125 0 95 21.2664794921875 95 47.5 C 95 73.7335205078125 73.7335205078125 95 47.5 95 C 21.2664794921875 95 0 73.7335205078125 0 47.5 C 0 21.2664794921875 21.2664794921875 0 47.5 0 Z" stroke="none" fill="#da53f2"/>
                </g>
              </g>
            </g>
          </g>
        </g>
      </g>
    </g>
    <g id="control_12062183" transform="translate(611.359 681.293)">
      <g id="Shadow" transform="translate(0.493 47.238)">
        <g id="Grupo_1177820" data-name="Grupo 1177820" transform="translate(0 0)">
          <g id="Grupo_1177813" data-name="Grupo 1177813" transform="translate(26.574 20.753)">
            <path id="Trazado_1037380" data-name="Trazado 1037380" d="M249.488,232.354l-2.94-1.262a12.179,12.179,0,0,0-1.294-3.119L246.441,225a14.964,14.964,0,0,0-2.571-2.571l-2.972,1.187a12.213,12.213,0,0,0-3.118-1.294l-1.262-2.94a14.964,14.964,0,0,0-3.636,0l-1.262,2.94a12.207,12.207,0,0,0-3.118,1.294l-2.973-1.187A14.965,14.965,0,0,0,222.958,225l1.187,2.972a12.2,12.2,0,0,0-1.293,3.119l-2.94,1.262a14.962,14.962,0,0,0,0,3.635l2.94,1.262a12.2,12.2,0,0,0,1.293,3.119l-1.187,2.973a14.956,14.956,0,0,0,2.571,2.571l2.973-1.187a12.167,12.167,0,0,0,3.118,1.293l1.262,2.941a14.966,14.966,0,0,0,3.636,0l1.262-2.941a12.173,12.173,0,0,0,3.118-1.293l2.972,1.187a14.955,14.955,0,0,0,2.571-2.571l-1.187-2.973a12.181,12.181,0,0,0,1.294-3.119l2.94-1.262a14.964,14.964,0,0,0,0-3.635ZM234.7,243.017a8.845,8.845,0,1,1,8.845-8.845A8.845,8.845,0,0,1,234.7,243.017Z" transform="translate(-219.801 -219.273)" fill="#3a313a"/>
          </g>
          <g id="Grupo_1177819" data-name="Grupo 1177819">
            <g id="Grupo_1177815" data-name="Grupo 1177815" transform="translate(0 0.169)">
              <path id="Trazado_1037381" data-name="Trazado 1037381" d="M42.269,182.24H58.293v16.024H42.269Z" transform="translate(-37.556 -166.216)" fill="#ffcebf"/>
              <path id="Trazado_1037382" data-name="Trazado 1037382" d="M94.575,186.978l-2.084-1.223-2.084,1.223V182.24h4.168Z" transform="translate(-79.767 -166.216)" fill="#935b50"/>
              <path id="Trazado_1037383" data-name="Trazado 1037383" d="M172.395,182.24h16.024v16.024H172.395Z" transform="translate(-151.659 -166.216)" fill="#ffcebf"/>
              <path id="Trazado_1037384" data-name="Trazado 1037384" d="M224.7,186.978l-2.084-1.223-2.084,1.223V182.24H224.7Z" transform="translate(-193.87 -166.216)" fill="#935b50"/>
              <path id="Trazado_1037385" data-name="Trazado 1037385" d="M107.332,52.114h16.024V68.138H107.332Z" transform="translate(-94.608 -52.114)" fill="#ffcebf"/>
              <path id="Trazado_1037386" data-name="Trazado 1037386" d="M159.639,56.852l-2.084-1.223-2.084,1.223V52.114h4.168Z" transform="translate(-136.819 -52.114)" fill="#935b50"/>
              <g id="Grupo_1177814" data-name="Grupo 1177814" transform="translate(0 32.048)">
                <path id="Trazado_1037387" data-name="Trazado 1037387" d="M4,312.365H45.473v4.647H4Z" transform="translate(-4 -312.365)" fill="#3a313a"/>
                <path id="Trazado_1037388" data-name="Trazado 1037388" d="M4,350.1H8.713V353H4Z" transform="translate(-4 -345.457)" fill="#3a313a"/>
                <path id="Trazado_1037389" data-name="Trazado 1037389" d="M153.261,350.1h4.713V353h-4.713Z" transform="translate(-134.881 -345.457)" fill="#3a313a"/>
                <path id="Trazado_1037390" data-name="Trazado 1037390" d="M302.521,350.1h4.712V353h-4.712Z" transform="translate(-265.761 -345.457)" fill="#3a313a"/>
              </g>
            </g>
            <g id="Grupo_1177817" data-name="Grupo 1177817" transform="translate(41.626)">
              <path id="Trazado_1037391" data-name="Trazado 1037391" d="M362.472,93.37a1.384,1.384,0,0,1-1.38,1.38H343.415a1.384,1.384,0,0,1-1.38-1.38V69.4a1.384,1.384,0,0,1,1.38-1.38h17.678a1.384,1.384,0,0,1,1.38,1.38Z" transform="translate(-342.035 -65.891)" fill="#935b50"/>
              <path id="Trazado_1037392" data-name="Trazado 1037392" d="M353.589,81.673h17.592v23.369H353.589Z" transform="translate(-352.166 -77.864)" fill="#dedbee"/>
              <path id="Trazado_1037393" data-name="Trazado 1037393" d="M403.052,52.11a1.365,1.365,0,1,0-2.731,0H398.41v3.162h6.553V52.11Z" transform="translate(-391.468 -50.745)" fill="#01d0fb"/>
              <g id="Grupo_1177816" data-name="Grupo 1177816" transform="translate(3.553 7.416)">
                <path id="Trazado_1037394" data-name="Trazado 1037394" d="M372.77,110.972H375v2.234H372.77Z" transform="translate(-372.539 -110.972)" fill="#6fd7a3"/>
                <path id="Trazado_1037395" data-name="Trazado 1037395" d="M370.891,161.8h2.234v2.234h-2.234Z" transform="translate(-370.891 -155.544)" fill="#6fd7a3"/>
                <path id="Trazado_1037396" data-name="Trazado 1037396" d="M370.891,218.32h2.234v2.234h-2.234Z" transform="translate(-370.891 -205.101)" fill="#6fd7a3"/>
              </g>
            </g>
            <g id="Grupo_1177818" data-name="Grupo 1177818" transform="translate(48.354 18.201)">
              <path id="Trazado_1037397" data-name="Trazado 1037397" d="M407.143,204.806a1.272,1.272,0,0,0-1.2,1.327v-.888a1.2,1.2,0,1,0-2.4,0v-.713a1.2,1.2,0,1,0-2.4,0v-4.656a1.2,1.2,0,1,0-2.4,0v7.82A2.424,2.424,0,0,0,397,208.855a4.408,4.408,0,0,0-.283,2.321,2.527,2.527,0,0,0,2.58,1.91v4.072h6.786v-4.072s2.262-.541,2.262-4.523v-2.43A1.271,1.271,0,0,0,407.143,204.806Z" transform="translate(-396.668 -198.551)" fill="#ffcebf"/>
              <path id="Trazado_1037398" data-name="Trazado 1037398" d="M414.355,344.373a.738.738,0,0,0,.736-.736V341a.738.738,0,0,0-.736-.736h-8.478a.738.738,0,0,0-.736.736v2.639a.738.738,0,0,0,.736.736Z" transform="translate(-404.098 -322.811)" fill="#6fd7a3"/>
              <circle id="Elipse_12519" data-name="Elipse 12519" cx="0.932" cy="0.932" r="0.932" transform="translate(2.334 18.574)" fill="#3a313a"/>
            </g>
          </g>
        </g>
      </g>
      <g id="Base" transform="translate(2.217 47.73)">
        <path id="Trazado_1037399" data-name="Trazado 1037399" d="M418.949,315.366v-.019h-.006Z" transform="translate(-369.57 -283.255)" fill="#685e68"/>
        <path id="Trazado_1037400" data-name="Trazado 1037400" d="M316.521,226.77c.268-.092.537-.174.8-.243a1.1,1.1,0,0,0,.739-.635l1-2.338.1-.007V227.4a9.8,9.8,0,0,0-2.649.63Z" transform="translate(-279.761 -202.76)" fill="#685e68"/>
        <path id="Trazado_1037401" data-name="Trazado 1037401" d="M267.158,365.575c-.349,0-.7-.014-1.057-.041l-1-2.339a1.116,1.116,0,0,0-.741-.636,11.061,11.061,0,0,1-2.834-1.175,1.107,1.107,0,0,0-.973-.074l-2.365.944a13.9,13.9,0,0,1-1.495-1.5l.945-2.365a1.116,1.116,0,0,0-.074-.973,11.1,11.1,0,0,1-1.176-2.835,1.11,1.11,0,0,0-.267-.481h1.365A9.949,9.949,0,0,0,275.635,357q.091.009.184.009h1.172q-.113.212-.233.417a1.116,1.116,0,0,0-.074.973l.945,2.365a13.891,13.891,0,0,1-1.495,1.495l-2.365-.945a1.108,1.108,0,0,0-.973.074,11.069,11.069,0,0,1-2.835,1.175,1.115,1.115,0,0,0-.74.636l-1,2.34C267.862,365.562,267.508,365.575,267.158,365.575Z" transform="translate(-226.794 -317.241)" fill="#685e68"/>
        <path id="Trazado_1037402" data-name="Trazado 1037402" d="M56.269,200.047V186.24H59.98v3.629a1.108,1.108,0,0,0,1.67.956l1.523-.894,1.523.894a1.108,1.108,0,0,0,1.669-.956V186.24h3.711v13.807Z" transform="translate(-51.556 -170.047)" fill="#ffdfcf"/>
        <path id="Trazado_1037403" data-name="Trazado 1037403" d="M104.407,186.24h1.952v1.694l-.415-.243a1.109,1.109,0,0,0-1.122,0l-.415.244Z" transform="translate(-93.767 -170.047)" fill="#ab695d"/>
        <path id="Trazado_1037404" data-name="Trazado 1037404" d="M186.4,200.047V186.24h3.711v3.629a1.108,1.108,0,0,0,1.67.956l1.523-.894,1.523.894a1.108,1.108,0,0,0,1.669-.956V186.24H200.2v13.807Z" transform="translate(-165.659 -170.047)" fill="#ffdfcf"/>
        <path id="Trazado_1037405" data-name="Trazado 1037405" d="M236.071,187.69a1.108,1.108,0,0,0-1.122,0l-.415.244V186.24h1.952v1.694Z" transform="translate(-207.87 -170.047)" fill="#ab695d"/>
        <path id="Trazado_1037406" data-name="Trazado 1037406" d="M121.332,69.921V56.114h3.711v3.629a1.108,1.108,0,0,0,1.67.956l1.523-.894,1.523.894a1.108,1.108,0,0,0,1.669-.956V56.114h3.711V69.921Z" transform="translate(-108.608 -55.945)" fill="#ffdfcf"/>
        <path id="Trazado_1037407" data-name="Trazado 1037407" d="M169.471,56.114h1.952v1.694l-.415-.243a1.108,1.108,0,0,0-1.122,0l-.415.244Z" transform="translate(-150.819 -55.945)" fill="#ab695d"/>
        <g id="Grupo_1177821" data-name="Grupo 1177821" transform="translate(0 32.216)">
          <path id="Trazado_1037408" data-name="Trazado 1037408" d="M18,316.365H57.256V318.8H18Z" transform="translate(-18 -316.365)" fill="#685e68"/>
          <path id="Trazado_1037409" data-name="Trazado 1037409" d="M18,354.1h2.5v.683H18Z" transform="translate(-18 -349.457)" fill="#685e68"/>
          <path id="Trazado_1037410" data-name="Trazado 1037410" d="M167.261,354.1h2.5v.683h-2.5Z" transform="translate(-148.881 -349.457)" fill="#685e68"/>
          <path id="Trazado_1037411" data-name="Trazado 1037411" d="M316.521,354.1h2.5v.683h-2.5Z" transform="translate(-279.761 -349.457)" fill="#685e68"/>
        </g>
        <path id="Trazado_1037412" data-name="Trazado 1037412" d="M465.7,67.018h-5.07v.7h5.026a.493.493,0,0,1,.493.493V91.576a.493.493,0,0,1-.493.493h-.121v.543c0,.052,0,.1,0,.153h.167a.888.888,0,0,0,.887-.887V67.905A.888.888,0,0,0,465.7,67.018Z" transform="translate(-406.123 -65.507)" fill="#ab695d"/>
        <path id="Trazado_1037413" data-name="Trazado 1037413" d="M351.035,91.878a.888.888,0,0,0,.887.887h5.2c.013-.029.027-.058.042-.086a2.387,2.387,0,0,1,.448-.61h-5.644a.493.493,0,0,1-.493-.493V68.207a.493.493,0,0,1,.493-.493h5.027v-.7h-5.07a.888.888,0,0,0-.887.887Z" transform="translate(-310.025 -65.507)" fill="#ab695d"/>
        <path id="Trazado_1037414" data-name="Trazado 1037414" d="M367.588,106.826v-2.772a1.11,1.11,0,0,0,1.022.68h2.234a1.11,1.11,0,0,0,1.108-1.108v-.387a1.107,1.107,0,0,0,.809.378v3.209h-5.173Zm15.375-2.607a2.2,2.2,0,0,0-1.264-.043,2.345,2.345,0,0,0-.565-.559h.517a1.108,1.108,0,1,0,0-2.217h-4.276v-1.118a2.31,2.31,0,1,0-4.614,0V101.4a1.106,1.106,0,0,0-.809.378v-.387a1.11,1.11,0,0,0-1.108-1.108H368.61a1.11,1.11,0,0,0-1.022.68V97.095a1.11,1.11,0,0,0,1.022.68h2.234a1.11,1.11,0,0,0,1.108-1.108V96.28a1.106,1.106,0,0,0,.833.378h8.865a1.108,1.108,0,1,0,0-2.217h-8.865a1.106,1.106,0,0,0-.833.378v-.387a1.11,1.11,0,0,0-1.108-1.108H368.61a1.11,1.11,0,0,0-1.022.68V85.673h3.373a1.11,1.11,0,0,0,1.038.719h6.553a1.11,1.11,0,0,0,1.038-.719h3.373v3.372a1.11,1.11,0,0,0-1.081-.863h-8.865a1.106,1.106,0,0,0-.833.378v-.387a1.11,1.11,0,0,0-1.108-1.108h-2.234a1.11,1.11,0,0,0-1.108,1.108v2.234a1.11,1.11,0,0,0,1.108,1.108h2.234a1.11,1.11,0,0,0,1.108-1.108V90.02a1.106,1.106,0,0,0,.833.378h8.865a1.11,1.11,0,0,0,1.081-.863Z" transform="translate(-324.539 -81.864)" fill="#f9f7f8"/>
        <path id="Trazado_1037415" data-name="Trazado 1037415" d="M412.409,57.056V56.11h.8A1.11,1.11,0,0,0,414.32,55a.257.257,0,1,1,.514,0,1.11,1.11,0,0,0,1.108,1.108h.8v.945Z" transform="translate(-363.841 -54.745)" fill="#62dbfb"/>
        <path id="Trazado_1037416" data-name="Trazado 1037416" d="M381.77,109.972h1.249v1.249H381.77Z" transform="translate(-336.975 -103.171)" fill="#9be69d"/>
        <path id="Trazado_1037417" data-name="Trazado 1037417" d="M379.891,160.8h1.249v1.249h-1.249Z" transform="translate(-335.327 -147.744)" fill="#9be69d"/>
        <path id="Trazado_1037418" data-name="Trazado 1037418" d="M379.891,217.32h1.249v1.249h-1.249Z" transform="translate(-335.327 -197.3)" fill="#9be69d"/>
        <path id="Trazado_1037419" data-name="Trazado 1037419" d="M413.29,217.812v-1.807a1.11,1.11,0,0,0-1.108-1.108h-.04a1.383,1.383,0,0,1-1.448-1,3.99,3.99,0,0,1-.014-.852,1.108,1.108,0,0,0,2.069-.552v-9.7a.126.126,0,1,1,.18,0v4.656a1.108,1.108,0,0,0,2.217,0,.277.277,0,0,1,.09-.215.273.273,0,0,1,.09.215v.713a1.108,1.108,0,1,0,2.217,0,.126.126,0,1,1,.181,0v.888a1.108,1.108,0,0,0,2.217,0,.126.126,0,1,1,.18,0v2.43c0,2.925-1.326,3.416-1.43,3.45a1.1,1.1,0,0,0-.832,1.073v1.807H413.29Z" transform="translate(-362.311 -184.377)" fill="#ffdfcf"/>
        <path id="Trazado_1037420" data-name="Trazado 1037420" d="M442.869,346.159a2.038,2.038,0,0,0,0-1.895h4.812v1.895h-4.812Z" transform="translate(-390.55 -308.612)" fill="#9be69d"/>
        <path id="Trazado_1037421" data-name="Trazado 1037421" d="M424.623,348.825a.44.44,0,1,0,.44-.44A.44.44,0,0,0,424.623,348.825Z" transform="translate(-374.551 -312.226)" fill="#685e68"/>
      </g>
      <g id="Outline" transform="translate(0 46.745)">
        <path id="Trazado_1037422" data-name="Trazado 1037422" d="M61.176,48.872H56.107V48.6a.493.493,0,0,0-.493-.493H54.129a1.858,1.858,0,0,0-3.583,0H49.061a.493.493,0,0,0-.493.493v.269H43.5a1.875,1.875,0,0,0-1.872,1.872V67.5c-.51.011-1.026.047-1.538.109a.492.492,0,0,0-.393.295l-1.168,2.721q-.395.111-.781.248V63.43a.493.493,0,0,0-.493-.493H29.734V47.406a.493.493,0,0,0-.493-.493H13.217a.493.493,0,0,0-.493.493V62.938H5.205a.493.493,0,0,0-.493.493V78.961H.493A.493.493,0,0,0,0,79.454V87a.493.493,0,0,0,.493.493H5.205A.493.493,0,0,0,5.7,87V84.594H18.38V87a.493.493,0,0,0,.493.493h4.713A.493.493,0,0,0,24.078,87V84.594H26.67c.006.058.011.115.018.173a.492.492,0,0,0,.295.393l2.72,1.168a12.693,12.693,0,0,0,1.161,2.8l-1.1,2.751a.493.493,0,0,0,.069.486,15.458,15.458,0,0,0,2.655,2.655.493.493,0,0,0,.486.069l2.751-1.1a12.665,12.665,0,0,0,2.8,1.161L39.7,97.872a.492.492,0,0,0,.393.295,15.447,15.447,0,0,0,3.754,0,.493.493,0,0,0,.393-.295L45.4,95.15a12.667,12.667,0,0,0,2.8-1.161l2.751,1.1a.494.494,0,0,0,.486-.069A15.454,15.454,0,0,0,54.1,92.364a.493.493,0,0,0,.069-.486l-1.1-2.751a12.688,12.688,0,0,0,.772-1.634H59.1a1.23,1.23,0,0,0,1.229-1.229V83.625A1.23,1.23,0,0,0,59.1,82.4h-.354V80.308c.642-.311,1.9-1.23,2.2-3.719h.229a1.874,1.874,0,0,0,1.872-1.872V50.744a1.875,1.875,0,0,0-1.872-1.872Zm.887,25.845a.888.888,0,0,1-.887.887H61.01c0-.051,0-.1,0-.153v-.543h.121a.493.493,0,0,0,.493-.493V51.046a.493.493,0,0,0-.493-.493H56.107v-.7h5.069a.888.888,0,0,1,.887.887V74.717ZM58.143,79.5a.492.492,0,0,0-.378.479V82.4h-5.8V79.974a.494.494,0,0,0-.508-.492h-.018a2,2,0,0,1-2.061-1.5,3.836,3.836,0,0,1,.236-2.011,1.641,1.641,0,0,1,.825-.731v1.23a.493.493,0,1,0,.985,0v-9.7a.716.716,0,1,1,1.412,0v4.656a.493.493,0,1,0,.985,0,.716.716,0,1,1,1.412,0v.713a.493.493,0,1,0,.985,0,.716.716,0,1,1,1.412,0v.888a.493.493,0,0,0,.985,0,.716.716,0,1,1,1.412,0v2.43c0,3.5-1.813,4.025-1.884,4.044Zm1.2,4.13v2.639a.247.247,0,0,1-.244.244H50.626a.247.247,0,0,1-.244-.244V83.625a.247.247,0,0,1,.244-.244H59.1A.247.247,0,0,1,59.348,83.625Zm-7.285,5.645,1.081,2.707a14.475,14.475,0,0,1-2.09,2.09l-2.706-1.081a.492.492,0,0,0-.432.033,11.683,11.683,0,0,1-2.992,1.241.492.492,0,0,0-.329.282L43.444,97.22a14.474,14.474,0,0,1-2.957,0l-1.149-2.677a.492.492,0,0,0-.329-.282,11.675,11.675,0,0,1-2.992-1.241.492.492,0,0,0-.432-.033l-2.707,1.081a14.481,14.481,0,0,1-2.09-2.09l1.081-2.707a.493.493,0,0,0-.033-.432,11.717,11.717,0,0,1-1.241-2.993.492.492,0,0,0-.282-.329l-2.149-.923h4.624a9.334,9.334,0,0,0,17.355,2.8,1.222,1.222,0,0,0,.484.1h2.147a11.759,11.759,0,0,1-.678,1.345A.494.494,0,0,0,52.062,89.271Zm-32.7-2.763V84.594h3.727v1.914Zm-18.38-2.9V79.946H41.473v3.662Zm0,2.9V84.594H4.712v1.914ZM22.82,47.9v3.385L21.478,50.5a.493.493,0,0,0-.5,0l-1.342.788V47.9Zm-4.168,0v4.245a.493.493,0,0,0,.742.425l1.835-1.077,1.835,1.077a.493.493,0,0,0,.742-.425V47.9h4.943V62.938H13.71V47.9ZM36.76,78.961H21.722V63.923h4.943v4.245a.493.493,0,0,0,.742.425l1.835-1.077,1.835,1.077a.493.493,0,0,0,.742-.425V63.923H36.76Zm2.578-7.726,1.149-2.676q.571-.058,1.139-.071v5.073a9.271,9.271,0,0,0-3.881,1V71.926a11.686,11.686,0,0,1,1.264-.408A.492.492,0,0,0,39.338,71.235ZM43.5,49.857h5.069v.7H43.542a.493.493,0,0,0-.493.493V74.415a.493.493,0,0,0,.493.493h5.644a2.386,2.386,0,0,0-.448.61c-.015.028-.028.057-.042.086H43.5a.888.888,0,0,1-.887-.887V50.744a.888.888,0,0,1,.887-.887Zm7.473-.762a.493.493,0,0,0,.493-.493.873.873,0,0,1,1.746,0,.493.493,0,0,0,.493.493h1.419v2.177H49.553V49.1ZM10.888,68.6a.493.493,0,0,0,.494,0l1.835-1.077,1.835,1.077a.493.493,0,0,0,.742-.425V63.923h4.943V78.961H5.7V63.923H10.64v4.245A.493.493,0,0,0,10.888,68.6Zm37.518,9.546,0,.018a2.676,2.676,0,0,0,1.421,1.922,8.294,8.294,0,0,1,.475,2.36,1.23,1.23,0,0,0-.908,1.185v2.639a1.221,1.221,0,0,0,.048.336,8.351,8.351,0,0,1-15.656-2.007H36.76V87a.493.493,0,0,0,.493.493h4.713A.493.493,0,0,0,42.458,87V79.454a.493.493,0,0,0-.493-.493h-4.22V75.686a8.294,8.294,0,0,1,3.881-1.14v.171A1.875,1.875,0,0,0,43.5,76.59H47.44a8.435,8.435,0,0,1,.916.93A5.119,5.119,0,0,0,48.406,78.141Zm2.573,2.316-.006-.02h.006Zm-9.507,6.051H37.745V84.594h3.727ZM60.641,71.886a1.647,1.647,0,0,0-1.32-.685,1.589,1.589,0,0,0-.834.237,1.7,1.7,0,0,0-1.563-1.125,1.594,1.594,0,0,0-.893.275,1.683,1.683,0,0,0-1.5-.988,1.582,1.582,0,0,0-.706.166v-.283h4.892a.493.493,0,0,0,0-.985H53.821V66.764a1.7,1.7,0,1,0-3.382,0V68.5h-.591a.493.493,0,0,0,0,.985h.591v4.44h-6.4V51.539h4.534v.226a.493.493,0,0,0,.493.493h6.553a.493.493,0,0,0,.493-.493v-.226h4.534V71.886ZM30.833,67.307,29.49,66.52a.493.493,0,0,0-.5,0l-1.342.788V63.923h3.183ZM14.809,63.923v3.385l-1.342-.788a.493.493,0,0,0-.5,0l-1.342.788V63.923Z" transform="translate(0 -46.745)"/>
        <path id="Trazado_1037423" data-name="Trazado 1037423" d="M369.263,110.191H371.5a.493.493,0,0,0,.492-.493v-2.234a.493.493,0,0,0-.492-.493h-2.234a.493.493,0,0,0-.493.493V109.7A.493.493,0,0,0,369.263,110.191Zm.493-2.234H371v1.249h-1.249Z" transform="translate(-323.359 -99.555)"/>
        <path id="Trazado_1037424" data-name="Trazado 1037424" d="M403.174,116.044a.493.493,0,0,0,0,.985h8.865a.493.493,0,1,0,0-.985Z" transform="translate(-353.094 -107.51)"/>
        <path id="Trazado_1037425" data-name="Trazado 1037425" d="M367.384,161.023h2.234a.493.493,0,0,0,.493-.493V158.3a.493.493,0,0,0-.493-.493h-2.234a.493.493,0,0,0-.493.493v2.234A.493.493,0,0,0,367.384,161.023Zm.493-2.234h1.249v1.249h-1.249Z" transform="translate(-321.711 -144.127)"/>
        <path id="Trazado_1037426" data-name="Trazado 1037426" d="M410.157,166.876h-8.865a.493.493,0,1,0,0,.985h8.865a.493.493,0,0,0,0-.985Z" transform="translate(-351.445 -152.083)"/>
        <path id="Trazado_1037427" data-name="Trazado 1037427" d="M366.891,217.047a.493.493,0,0,0,.493.493h2.234a.493.493,0,0,0,.493-.493v-2.234a.493.493,0,0,0-.493-.493h-2.234a.493.493,0,0,0-.493.493Zm.985-1.742h1.249v1.249h-1.249Z" transform="translate(-321.711 -193.685)"/>
        <path id="Trazado_1037428" data-name="Trazado 1037428" d="M413.047,345.385a1.425,1.425,0,1,0,1.425,1.425A1.427,1.427,0,0,0,413.047,345.385Zm.44,1.425a.44.44,0,1,1-.44-.44A.44.44,0,0,1,413.487,346.81Z" transform="translate(-360.934 -308.61)"/>
      </g>
    </g>
  </g>
</svg>
