<svg xmlns="http://www.w3.org/2000/svg" xmlns:xlink="http://www.w3.org/1999/xlink" width="113" height="113" viewBox="0 0 113 113">
  <defs>
    <filter id="Trazado_982547" x="0" y="0" width="113" height="113" filterUnits="userSpaceOnUse">
      <feOffset dy="3" input="SourceAlpha"/>
      <feGaussianBlur stdDeviation="3" result="blur"/>
      <feFlood flood-opacity="0.161"/>
      <feComposite operator="in" in2="blur"/>
      <feComposite in="SourceGraphic"/>
    </filter>
  </defs>
  <g id="Grupo_1177839" data-name="Grupo 1177839" transform="translate(-902 -696.802)">
    <g id="Grupo_1177725" data-name="Grupo 1177725" transform="translate(911 702.802)">
      <g id="Grupo_1173868" data-name="Grupo 1173868">
        <g id="Grupo_1172010" data-name="Grupo 1172010">
          <g id="Grupo_1171046" data-name="Grupo 1171046">
            <g id="Grupo_1148525" data-name="Grupo 1148525">
              <g transform="matrix(1, 0, 0, 1, -9, -6)" filter="url(#Trazado_982547)">
                <g id="Trazado_982547-2" data-name="Trazado 982547" transform="translate(9 6)" fill="#fbecfd">
                  <path d="M 47.5 93.5 C 41.28937149047852 93.5 35.26533508300781 92.28397369384766 29.59518623352051 89.88570404052734 C 24.11771965026855 87.56893157958984 19.19813346862793 84.25196075439453 14.97309303283691 80.02691650390625 C 10.74804019927979 75.80186462402344 7.431066513061523 70.88229370117188 5.114293098449707 65.40481567382812 C 2.716026782989502 59.73468017578125 1.5 53.71062850952148 1.5 47.5 C 1.5 41.28937149047852 2.716026782989502 35.26533508300781 5.114293098449707 29.59518623352051 C 7.431066513061523 24.11771965026855 10.74804019927979 19.19813346862793 14.97309303283691 14.97309303283691 C 19.19813346862793 10.74804019927979 24.11771965026855 7.431066513061523 29.59518623352051 5.114293098449707 C 35.26533508300781 2.716026782989502 41.28937149047852 1.5 47.5 1.5 C 53.71062850952148 1.5 59.73468017578125 2.716026782989502 65.40481567382812 5.114293098449707 C 70.88229370117188 7.431066513061523 75.80186462402344 10.74804019927979 80.02691650390625 14.97309303283691 C 84.25196075439453 19.19813346862793 87.56893157958984 24.11771965026855 89.88570404052734 29.59518623352051 C 92.28397369384766 35.26533508300781 93.5 41.28937149047852 93.5 47.5 C 93.5 53.71062850952148 92.28397369384766 59.73468017578125 89.88570404052734 65.40481567382812 C 87.56893157958984 70.88229370117188 84.25196075439453 75.80186462402344 80.02691650390625 80.02691650390625 C 75.80186462402344 84.25196075439453 70.88229370117188 87.56893157958984 65.40481567382812 89.88570404052734 C 59.73468017578125 92.28397369384766 53.71062850952148 93.5 47.5 93.5 Z" stroke="none"/>
                  <path d="M 47.5 3 C 41.49121475219727 3 35.66376876831055 4.176155090332031 30.17950439453125 6.495796203613281 C 24.88084411621094 8.736953735351562 20.12152099609375 11.94598388671875 16.03375244140625 16.03375244140625 C 11.94598388671875 20.12152099609375 8.736953735351562 24.88084411621094 6.495796203613281 30.17950439453125 C 4.176155090332031 35.66376876831055 3 41.49121475219727 3 47.5 C 3 53.50878524780273 4.176155090332031 59.33623123168945 6.495796203613281 64.82049560546875 C 8.736953735351562 70.11915588378906 11.94598388671875 74.87847900390625 16.03375244140625 78.96624755859375 C 20.12152099609375 83.05401611328125 24.88084411621094 86.26304626464844 30.17950439453125 88.50419616699219 C 35.66376876831055 90.82384490966797 41.49121475219727 92 47.5 92 C 53.50878524780273 92 59.33623123168945 90.82384490966797 64.82049560546875 88.50419616699219 C 70.11915588378906 86.26304626464844 74.87847900390625 83.05401611328125 78.96624755859375 78.96624755859375 C 83.05401611328125 74.87847900390625 86.26304626464844 70.11915588378906 88.50419616699219 64.82049560546875 C 90.82384490966797 59.33623123168945 92 53.50878524780273 92 47.5 C 92 41.49121475219727 90.82384490966797 35.66376876831055 88.50419616699219 30.17950439453125 C 86.26304626464844 24.88084411621094 83.05401611328125 20.12152099609375 78.96624755859375 16.03375244140625 C 74.87847900390625 11.94598388671875 70.11915588378906 8.736953735351562 64.82049560546875 6.495796203613281 C 59.33623123168945 4.176155090332031 53.50878524780273 3 47.5 3 M 47.5 0 C 73.7335205078125 0 95 21.2664794921875 95 47.5 C 95 73.7335205078125 73.7335205078125 95 47.5 95 C 21.2664794921875 95 0 73.7335205078125 0 47.5 C 0 21.2664794921875 21.2664794921875 0 47.5 0 Z" stroke="none" fill="#da53f2"/>
                </g>
              </g>
            </g>
          </g>
        </g>
      </g>
    </g>
    <g id="serialization_12062348" transform="translate(931.5 720.089)">
      <g id="Shadow" transform="translate(0.422 4.013)">
        <g id="Grupo_1177837" data-name="Grupo 1177837">
          <g id="Grupo_1177829" data-name="Grupo 1177829">
            <g id="Grupo_1177824" data-name="Grupo 1177824" transform="translate(0 18.467)">
              <g id="Grupo_1177823" data-name="Grupo 1177823">
                <path id="Trazado_1037429" data-name="Trazado 1037429" d="M4,182.684H19.465V198.15H4Z" transform="translate(-4 -182.684)" fill="#ffcebf"/>
                <path id="Trazado_1037430" data-name="Trazado 1037430" d="M62.268,187.256l-2.012-1.18-2.012,1.18v-4.572h4.023Z" transform="translate(-52.524 -182.684)" fill="#935b50"/>
              </g>
            </g>
            <g id="Grupo_1177826" data-name="Grupo 1177826">
              <g id="Grupo_1177825" data-name="Grupo 1177825">
                <path id="Trazado_1037431" data-name="Trazado 1037431" d="M4,7.591H19.465V23.057H4Z" transform="translate(-4 -7.591)" fill="#ffcebf"/>
                <path id="Trazado_1037432" data-name="Trazado 1037432" d="M62.268,12.163l-2.012-1.181-2.012,1.181V7.591h4.023Z" transform="translate(-52.524 -7.591)" fill="#935b50"/>
              </g>
            </g>
            <g id="Grupo_1177828" data-name="Grupo 1177828" transform="translate(0 36.934)">
              <g id="Grupo_1177827" data-name="Grupo 1177827" transform="translate(0 0)">
                <path id="Trazado_1037433" data-name="Trazado 1037433" d="M4,357.776H19.465v15.465H4Z" transform="translate(-4 -357.776)" fill="#ffcebf"/>
                <path id="Trazado_1037434" data-name="Trazado 1037434" d="M62.268,362.348l-2.012-1.18-2.012,1.18v-4.572h4.023Z" transform="translate(-52.524 -357.776)" fill="#935b50"/>
              </g>
            </g>
          </g>
          <g id="Grupo_1177831" data-name="Grupo 1177831" transform="translate(19.041 8.44)">
            <path id="Trazado_1037435" data-name="Trazado 1037435" d="M215.662,156.946a2.108,2.108,0,0,1-2.1,2.1H186.633a2.108,2.108,0,0,1-2.1-2.1V120.429a2.108,2.108,0,0,1,2.1-2.1h26.928a2.108,2.108,0,0,1,2.1,2.1Z" transform="translate(-184.531 -115.087)" fill="#935b50"/>
            <path id="Trazado_1037436" data-name="Trazado 1037436" d="M205.079,142.611h26.8v35.6h-26.8Z" transform="translate(-202.912 -136.81)" fill="#dedbee"/>
            <path id="Trazado_1037437" data-name="Trazado 1037437" d="M291.861,89.689a2.08,2.08,0,0,0-4.16,0H284.79V94.5h9.983V89.689Z" transform="translate(-274.216 -87.609)" fill="#01d0fb"/>
            <g id="Grupo_1177830" data-name="Grupo 1177830" transform="translate(5.413 11.297)">
              <path id="Trazado_1037438" data-name="Trazado 1037438" d="M239.191,194.722h3.4v3.4h-3.4Z" transform="translate(-238.839 -194.722)" fill="#6fd7a3"/>
              <path id="Trazado_1037439" data-name="Trazado 1037439" d="M235.85,285.123h3.4v3.4h-3.4Z" transform="translate(-235.85 -275.588)" fill="#6fd7a3"/>
              <path id="Trazado_1037440" data-name="Trazado 1037440" d="M235.85,385.639h3.4v3.4h-3.4Z" transform="translate(-235.85 -365.503)" fill="#6fd7a3"/>
            </g>
          </g>
          <g id="Grupo_1177836" data-name="Grupo 1177836" transform="translate(26.427 24.834)">
            <g id="Grupo_1177834" data-name="Grupo 1177834">
              <g id="XMLID_14_">
                <g id="Grupo_1177833" data-name="Grupo 1177833">
                  <path id="Trazado_1037441" data-name="Trazado 1037441" d="M381.76,243.8a.932.932,0,0,1,.047,1.311l-1.6,1.6L378.4,244.9l1.6-1.6a.931.931,0,0,1,1.311.047Z" transform="translate(-365.339 -243.052)" fill="#fd4755"/>
                  <path id="Trazado_1037442" data-name="Trazado 1037442" d="M257.613,374.392l-3.053,1.244,1.243-3.054Z" transform="translate(-254.56 -358.92)" fill="#935b50"/>
                  <path id="Trazado_1037443" data-name="Trazado 1037443" d="M270.885,340.1l-2.728,2.727-1.81-1.81,3.59-3.589.038-.037.1-.1a1.7,1.7,0,0,0-.44,1.133A1.8,1.8,0,0,0,270.885,340.1Z" transform="translate(-265.104 -327.36)" fill="#dedbee"/>
                  <path id="Trazado_1037444" data-name="Trazado 1037444" d="M310.935,260.538l1.809,1.81-1.269,1.27-4.367,4.366h-2.788a1.992,1.992,0,0,0-1.339.508l4.849-4.849Z" transform="translate(-297.873 -258.694)" fill="#dedbee"/>
                  <g id="Grupo_1177832" data-name="Grupo 1177832" transform="translate(0.513 4.924)">
                    <path id="Trazado_1037445" data-name="Trazado 1037445" d="M344.27,364.939V367a1.368,1.368,0,1,1-2.728,0v-2.057Z" transform="translate(-332.881 -357.008)" fill="#ffcebf"/>
                    <path id="Trazado_1037446" data-name="Trazado 1037446" d="M318.4,364.939V367a1.368,1.368,0,1,1-2.728,0v-2.057Z" transform="translate(-309.743 -357.008)" fill="#ffcebf"/>
                    <path id="Trazado_1037447" data-name="Trazado 1037447" d="M268.87,289.765l-4.849,4.849-.006,0c-.039.036-.075.072-.109.11a.036.036,0,0,0-.011.011l-.111.111-.038.037c-2.406,2.382-3.776,1.235-4.229.79l-.09-.09,5.025-5.025C264.954,290.062,266.652,289.627,268.87,289.765Z" transform="translate(-259.428 -289.739)" fill="#ffcebf"/>
                    <path id="Trazado_1037448" data-name="Trazado 1037448" d="M302.183,294.108l4.367-4.366h2.065l6.626,1.791,2.532.145v6.429l-2.532.145c-2.72,3.2-8,1.56-9.411-.58h-6.436a2.044,2.044,0,0,1-.665-.111,1.8,1.8,0,0,1-1.255-1.672,1.7,1.7,0,0,1,.44-1.133l.015-.016a.037.037,0,0,1,.011-.011l.115-.115a1.992,1.992,0,0,1,1.339-.508h2.789Z" transform="translate(-293.462 -289.742)" fill="#ffcebf"/>
                  </g>
                </g>
              </g>
            </g>
            <g id="Grupo_1177835" data-name="Grupo 1177835" transform="translate(22.393 4.884)">
              <path id="Trazado_1037449" data-name="Trazado 1037449" d="M471.211,290.135a.779.779,0,0,0-.777-.777H467.65a.779.779,0,0,0-.777.777v8.945a.779.779,0,0,0,.777.777h2.784a.779.779,0,0,0,.777-.777Z" transform="translate(-466.873 -289.358)" fill="#6fd7a3"/>
              <circle id="Elipse_12520" data-name="Elipse 12520" cx="0.984" cy="0.984" r="0.984" transform="translate(1.185 7.169)" fill="#3a313a"/>
            </g>
          </g>
        </g>
      </g>
      <g id="Base" transform="translate(1.898 4.435)">
        <path id="Trazado_1037450" data-name="Trazado 1037450" d="M18,200.251V186.684h3.823v3.623a.949.949,0,0,0,1.429.819l1.532-.9,1.531.9a.949.949,0,0,0,1.43-.819v-3.623h3.823v13.567H18Zm5.248-4.826a2.051,2.051,0,0,0-.523,1.37.95.95,0,0,0,.949.949h2.219a.949.949,0,0,0,.426-1.8,2.058,2.058,0,1,0-3.593-1.37A.951.951,0,0,0,23.248,195.425Zm1.36-.681a.951.951,0,0,0,.015-.167.16.16,0,1,1,.16.16C24.725,194.737,24.666,194.739,24.609,194.744Z" transform="translate(-18 -168.217)" fill="#ffdfcf"/>
        <path id="Trazado_1037451" data-name="Trazado 1037451" d="M72.245,186.684H74.37v1.965l-.582-.341a.95.95,0,0,0-.961,0l-.582.342Z" transform="translate(-66.524 -168.217)" fill="#ab695d"/>
        <path id="Trazado_1037452" data-name="Trazado 1037452" d="M18,25.158V11.591h3.823v3.623a.949.949,0,0,0,1.43.819l1.531-.9,1.531.9a.949.949,0,0,0,1.43-.819V11.591h3.823V25.158ZM23.834,20.8a.949.949,0,0,0,.285,1.855h1.328a.949.949,0,0,0,.285-1.855V18.374a.949.949,0,0,0-1.621-.671l-.533.533a.95.95,0,0,0,.255,1.525V20.8Z" transform="translate(-18 -11.591)" fill="#ffdfcf"/>
        <path id="Trazado_1037453" data-name="Trazado 1037453" d="M72.245,11.591H74.37v1.966l-.582-.342a.95.95,0,0,0-.961,0l-.582.342Z" transform="translate(-66.524 -11.591)" fill="#ab695d"/>
        <path id="Trazado_1037454" data-name="Trazado 1037454" d="M18,375.343V361.776h3.823V365.4a.949.949,0,0,0,1.429.819l1.532-.9,1.531.9a.949.949,0,0,0,1.43-.819v-3.623h3.823v13.567H18Zm5.217-5.12a.95.95,0,0,0-.492.832,1.914,1.914,0,0,0,2.059,1.781,1.914,1.914,0,0,0,2.058-1.781,1.612,1.612,0,0,1,0-1.664,1.914,1.914,0,0,0-2.058-1.781,1.914,1.914,0,0,0-2.059,1.781A.95.95,0,0,0,23.217,370.223Z" transform="translate(-18 -324.842)" fill="#ffdfcf"/>
        <path id="Trazado_1037455" data-name="Trazado 1037455" d="M72.245,361.776H74.37v1.965l-.582-.341a.951.951,0,0,0-.961,0l-.582.342Z" transform="translate(-66.524 -324.842)" fill="#ab695d"/>
        <path id="Trazado_1037456" data-name="Trazado 1037456" d="M199.684,161.149A1.154,1.154,0,0,1,198.531,160V123.48a1.154,1.154,0,0,1,1.153-1.153h7.523v.663h-7.458a.95.95,0,0,0-.949.949v35.6a.95.95,0,0,0,.949.949h26.8a.95.95,0,0,0,.949-.949v-8.8a1.715,1.715,0,0,0,.269.084V160a1.154,1.154,0,0,1-1.152,1.153Z" transform="translate(-179.49 -110.648)" fill="#ab695d"/>
        <path id="Trazado_1037457" data-name="Trazado 1037457" d="M401.846,123.939a.95.95,0,0,0-.949-.949h-7.458v-.663h7.523a1.154,1.154,0,0,1,1.152,1.153v15.029a1.715,1.715,0,0,0-.269.084Z" transform="translate(-353.841 -110.648)" fill="#ab695d"/>
        <path id="Trazado_1037458" data-name="Trazado 1037458" d="M219.079,180.31v-33.7h6.509v.146a.95.95,0,0,0,.949.949h9.983a.95.95,0,0,0,.949-.949v-.146h6.508v14.927l-4.714-1.275-.044-.011,1.269-1.268a1.88,1.88,0,0,0-.047-2.653l-.453-.453a1.926,1.926,0,0,0-1.369-.573,1.8,1.8,0,0,0-1.284.526l-4.406,4.406c-.145,0-.291-.007-.434-.007-1.989,0-3.589.411-4.279,1.1l-.114.114h-.366a.95.95,0,0,0-.949.949.94.94,0,0,0,.053.313l-1.112,1.112v-3.127a.95.95,0,0,0-.949-.949h-3.4a.95.95,0,0,0-.949.949v3.4a.95.95,0,0,0,.949.949H224.5l-1.311,1.311a.95.95,0,0,0,0,1.342l.093.093a3.319,3.319,0,0,0,1.29.8l-.652.652a.938.938,0,0,0-.121.147.955.955,0,0,0-.09.171l-.318.781h-2.018a.95.95,0,0,0-.949.949v3.4a.95.95,0,0,0,.949.949h3.4a.95.95,0,0,0,.949-.949v-1.67l1.031-.42a.262.262,0,1,1,.028.389.95.95,0,0,0,.949.949h13.5a.949.949,0,0,0,.754-1.525,6.614,6.614,0,0,0,1.984-.425v8.316h-24.9Zm2.649-30.1a.95.95,0,0,0-.949.949v3.4a.95.95,0,0,0,.949.949h3.4a.95.95,0,0,0,.949-.949v-3.4a.95.95,0,0,0-.949-.949Zm6.361,1.7a.949.949,0,0,0,0,1.9h13.5a.949.949,0,1,0,0-1.9Zm.757,18.717v.542a2.5,2.5,0,0,0,.159.878h-1.269a.943.943,0,0,0-.4.087Zm7.2,1.42a2.5,2.5,0,0,0,.159-.878v-.662a7.589,7.589,0,0,0,2.816,1.54h-2.975Z" transform="translate(-197.871 -132.37)" fill="#f9f7f8"/>
        <path id="Trazado_1037459" data-name="Trazado 1037459" d="M345.078,391a1.851,1.851,0,0,1-.173.187h.345A1.861,1.861,0,0,1,345.078,391Z" transform="translate(-310.426 -350.981)" fill="#f9f7f8"/>
        <path id="Trazado_1037460" data-name="Trazado 1037460" d="M298.79,96.606V93.689h1.962a.95.95,0,0,0,.949-.949,1.131,1.131,0,0,1,2.261,0,.95.95,0,0,0,.949.949h1.962v2.918Z" transform="translate(-269.175 -83.169)" fill="#62dbfb"/>
        <path id="Trazado_1037461" data-name="Trazado 1037461" d="M253.191,198.722h1.5v1.5h-1.5Z" transform="translate(-228.385 -178.985)" fill="#9be69d"/>
        <path id="Trazado_1037462" data-name="Trazado 1037462" d="M249.85,289.123h1.5v1.505h-1.5Z" transform="translate(-225.397 -259.851)" fill="#9be69d"/>
        <path id="Trazado_1037463" data-name="Trazado 1037463" d="M249.85,391.143v-1.5h.3l-.151.37a.947.947,0,0,0,.208,1.029.961.961,0,0,0,.124.105Z" transform="translate(-225.397 -349.765)" fill="#9be69d"/>
        <path id="Trazado_1037464" data-name="Trazado 1037464" d="M396.126,248.029l.886-.886.008.007.453.453.007.008-.886.886Z" transform="translate(-356.245 -222.299)" fill="#fe646f"/>
        <path id="Trazado_1037465" data-name="Trazado 1037465" d="M268.382,375.583l-.911-.911-.626,1.538Z" transform="translate(-240.599 -336.378)" fill="#ab695d"/>
        <path id="Trazado_1037466" data-name="Trazado 1037466" d="M284.076,356.364l1.323-1.323a2.764,2.764,0,0,0,.393.543l-1.248,1.248Z" transform="translate(-256.013 -318.817)" fill="#f9f7f8"/>
        <path id="Trazado_1037467" data-name="Trazado 1037467" d="M334.527,273.422l5.154-5.154.467.467-4.687,4.687Z" transform="translate(-301.143 -241.196)" fill="#f9f7f8"/>
        <g id="Grupo_1177838" data-name="Grupo 1177838" transform="translate(27.531 29.759)">
          <path id="Trazado_1037468" data-name="Trazado 1037468" d="M355.958,370.568a.483.483,0,0,1-.415-.521v-1.108h.83v1.108A.483.483,0,0,1,355.958,370.568Z" transform="translate(-347.473 -361.008)" fill="#ffdfcf"/>
          <path id="Trazado_1037469" data-name="Trazado 1037469" d="M330.091,370.568a.483.483,0,0,1-.415-.521v-1.108h.83v1.108A.483.483,0,0,1,330.091,370.568Z" transform="translate(-324.334 -361.008)" fill="#ffdfcf"/>
          <path id="Trazado_1037470" data-name="Trazado 1037470" d="M279.1,299.4l-.074,0,4.156-4.156a3.264,3.264,0,0,1,1.369-.433l-3.123,3.122-.027.026-.046.046-.062.062-.021.022-.074.075-.059.058A3.33,3.33,0,0,1,279.1,299.4Z" transform="translate(-279.029 -294.694)" fill="#ffdfcf"/>
          <path id="Trazado_1037471" data-name="Trazado 1037471" d="M324.179,302.148c-.123,0-.248,0-.373-.011a5.736,5.736,0,0,1-4.132-1.937h0l-.012-.017a.966.966,0,0,0-.095-.115.825.825,0,0,0-.066-.061l-.009-.008a.8.8,0,0,0-.083-.065.708.708,0,0,0-.078-.045.718.718,0,0,0-.086-.043.752.752,0,0,0-.084-.028l.009,0a.951.951,0,0,0-.127-.032.924.924,0,0,0-.141-.015h-6.459a1.092,1.092,0,0,1-.356-.059.856.856,0,0,1-.615-.774.739.739,0,0,1,.191-.492l.089-.089a1.042,1.042,0,0,1,.69-.253h6.436a.949.949,0,1,0,0-1.9h-1.356l2.468-2.468h1.547l5.9,1.6v5.493a4.256,4.256,0,0,1-3.263,1.318Z" transform="translate(-308.052 -293.741)" fill="#ffdfcf"/>
        </g>
        <path id="Trazado_1037472" data-name="Trazado 1037472" d="M480.873,293.357h2.439v5.7a1.929,1.929,0,0,0-2.439,0Z" transform="translate(-432.053 -263.639)" fill="#9be69d"/>
        <path id="Trazado_1037473" data-name="Trazado 1037473" d="M492.145,361.4a.034.034,0,1,1,.034-.034A.035.035,0,0,1,492.145,361.4Z" transform="translate(-442.106 -324.442)" fill="#685e68"/>
      </g>
      <g id="Outline" transform="translate(0 3.591)">
        <path id="Trazado_1037474" data-name="Trazado 1037474" d="M.422,194.993H15.887a.422.422,0,0,0,.422-.422V179.106a.422.422,0,0,0-.422-.422H.422a.422.422,0,0,0-.422.422v15.466A.422.422,0,0,0,.422,194.993Zm9.322-15.465v3.414l-1.376-.808a.423.423,0,0,0-.427,0l-1.376.808v-3.414Zm-8.9,0H5.721v4.151a.422.422,0,0,0,.635.364l1.8-1.055,1.8,1.055a.422.422,0,0,0,.635-.364v-4.151h4.877V194.15H.844Z" transform="translate(0 -160.217)"/>
        <path id="Trazado_1037475" data-name="Trazado 1037475" d="M64.329,255.062a1.531,1.531,0,1,0-1.531-1.531.422.422,0,1,0,.844,0,.687.687,0,1,1,.687.687A1.533,1.533,0,0,0,62.8,255.75a.422.422,0,0,0,.422.422h2.219a.422.422,0,1,0,0-.844H63.787A.687.687,0,0,1,64.329,255.062Z" transform="translate(-56.175 -225.8)"/>
        <path id="Trazado_1037476" data-name="Trazado 1037476" d="M.422,19.9H15.887a.422.422,0,0,0,.422-.422V4.013a.422.422,0,0,0-.422-.422H.422A.422.422,0,0,0,0,4.013V19.478A.422.422,0,0,0,.422,19.9ZM9.744,4.435V7.849L8.368,7.041a.423.423,0,0,0-.427,0l-1.376.808V4.435Zm-8.9,0H5.721V8.585a.422.422,0,0,0,.635.364l1.8-1.055,1.8,1.055a.422.422,0,0,0,.635-.364V4.435h4.877V19.057H.844Z" transform="translate(0 -3.591)"/>
        <path id="Trazado_1037477" data-name="Trazado 1037477" d="M68.77,80.235h-.242V77.329a.422.422,0,0,0-.72-.3l-.533.533a.422.422,0,0,0,.409.705v1.966h-.242a.422.422,0,0,0,0,.844H68.77a.422.422,0,0,0,0-.844Z" transform="translate(-59.951 -69.174)"/>
        <path id="Trazado_1037478" data-name="Trazado 1037478" d="M16.309,369.663V354.2a.422.422,0,0,0-.422-.422H.422A.422.422,0,0,0,0,354.2v15.465a.422.422,0,0,0,.422.422H15.887A.422.422,0,0,0,16.309,369.663ZM9.744,354.62v3.414l-1.376-.808a.423.423,0,0,0-.427,0l-1.376.808V354.62Zm-8.9,0H5.721v4.151a.422.422,0,0,0,.635.364l1.8-1.055,1.8,1.055a.422.422,0,0,0,.635-.364V354.62h4.877v14.622H.844Z" transform="translate(0 -316.842)"/>
        <path id="Trazado_1037479" data-name="Trazado 1037479" d="M64.329,427.093a1.4,1.4,0,0,0-1.531,1.254.422.422,0,0,0,.844,0c0-.194.294-.41.687-.41s.687.217.687.41-.294.41-.687.41a.422.422,0,0,0,0,.844c.393,0,.687.216.687.41s-.294.41-.687.41-.687-.217-.687-.41a.422.422,0,1,0-.844,0,1.562,1.562,0,0,0,3.062,0,1.107,1.107,0,0,1,0-1.664A1.4,1.4,0,0,0,64.329,427.093Z" transform="translate(-56.175 -382.426)"/>
        <path id="Trazado_1037480" data-name="Trazado 1037480" d="M239.016,190.722h-3.4a.422.422,0,0,0-.422.422v3.4a.422.422,0,0,0,.422.422h3.4a.422.422,0,0,0,.422-.422v-3.4A.422.422,0,0,0,239.016,190.722Zm-.422,3.4h-2.56v-2.56h2.56Z" transform="translate(-210.385 -170.985)"/>
        <path id="Trazado_1037481" data-name="Trazado 1037481" d="M295.922,207.7h13.5a.422.422,0,0,0,0-.844h-13.5a.422.422,0,1,0,0,.844Z" transform="translate(-264.333 -185.415)"/>
        <path id="Trazado_1037482" data-name="Trazado 1037482" d="M235.675,281.123h-3.4a.422.422,0,0,0-.422.422v3.4a.422.422,0,0,0,.422.422h3.4a.422.422,0,0,0,.422-.422v-3.4A.422.422,0,0,0,235.675,281.123Zm-.422,3.4h-2.56v-2.56h2.56v2.56Z" transform="translate(-207.397 -251.851)"/>
        <path id="Trazado_1037483" data-name="Trazado 1037483" d="M214.293,104.888h-1.787V89.373a2.526,2.526,0,0,0-2.523-2.524h-8.051v-.738a.422.422,0,0,0-.422-.422h-2.525a2.5,2.5,0,0,0-4.932,0h-2.525a.422.422,0,0,0-.422.422v.738h-8.051a2.527,2.527,0,0,0-2.524,2.524v36.517a2.527,2.527,0,0,0,2.524,2.524h26.928a2.526,2.526,0,0,0,2.523-2.524v-9.66h1.787a1.2,1.2,0,0,0,1.2-1.2v-8.945A1.2,1.2,0,0,0,214.293,104.888Zm.355,10.143a.355.355,0,0,1-.355.355h-2.784a.355.355,0,0,1-.355-.355v-8.945a.355.355,0,0,1,.355-.355h2.784a.355.355,0,0,1,.355.355Zm-4.665,12.538H183.055a1.682,1.682,0,0,1-1.68-1.68V89.373a1.682,1.682,0,0,1,1.68-1.68h8.051V89.41H183.12a.422.422,0,0,0-.422.422v35.6a.422.422,0,0,0,.422.422h26.8a.422.422,0,0,0,.422-.422V115.289a1.2,1.2,0,0,0,1.17.94h.154v9.66A1.682,1.682,0,0,1,209.983,127.569ZM194.439,86.532a.422.422,0,0,0,.422-.422,1.658,1.658,0,0,1,3.316,0,.422.422,0,0,0,.422.422h2.49V90.5h-9.139V86.532Zm17.223,18.355h-.154a1.2,1.2,0,0,0-1.17.94v-16a.422.422,0,0,0-.422-.422h-7.985V87.693h8.051a1.682,1.682,0,0,1,1.68,1.68ZM191.527,91.349h9.983a.422.422,0,0,0,.422-.422v-.673h7.563V106.4l-5.379-1.454a.422.422,0,0,0-.11-.015h-1.048l.55-.55,1.6-1.6a1.352,1.352,0,0,0-.047-1.907l-.453-.453a1.351,1.351,0,0,0-1.907-.047l-1.6,1.6-2.973,2.973c-2.042-.1-3.9.277-4.551.93l-.268.268h-.584a.421.421,0,0,0-.2.789l-3.968,3.968a.422.422,0,0,0,0,.6l.093.093a2.58,2.58,0,0,0,1.813.788c.081,0,.165-.005.25-.014l-1.425,1.425a.423.423,0,0,0-.094.142l-.453,1.113h-2.372a.422.422,0,0,0-.422.422v3.4a.422.422,0,0,0,.422.422h3.4a.422.422,0,0,0,.422-.422v-2.025l1.359-.554a.427.427,0,0,0,.076-.04.4.4,0,0,0,.066-.054l2.554-2.553c.039.009.078.018.117.025v1.672a1.936,1.936,0,0,0,.595,1.405h-2.232a.422.422,0,1,0,0,.844h13.5a.422.422,0,1,0,0-.844h-6.161a1.935,1.935,0,0,0,.595-1.405V113.7H201a7.167,7.167,0,0,0,5.058,2.36q.226.014.447.014a6.05,6.05,0,0,0,2.985-.742v9.673H183.542V90.254h7.563v.673A.422.422,0,0,0,191.527,91.349Zm7.35,25.038a1,1,0,0,1-.942-1.048V113.7h1.884v1.635A1,1,0,0,1,198.877,116.386Zm-3.67-1.048V113.7h1.884v1.635a.948.948,0,1,1-1.884,0Zm-7.259,1.644a.422.422,0,0,0,.55.55l.849-.346v1.259h-2.56v-2.559h1.607Zm1.159-.61.626-1.538.911.911Zm2.285-1.072-1.214-1.214,2.288-2.288a2.2,2.2,0,0,0,.946,1.481Zm5.909-9.529-4.144,4.144,0,0h0l-.011.011,0,0-.032.032c-.024.024-.049.047-.071.071l-.017.018-.083.083-.062.061c-1.355,1.341-2.5,1.67-3.411.985l4.711-4.711A5.5,5.5,0,0,1,197.3,105.772Zm4.1-2.906,1.213,1.214-5.214,5.214h-2.426l3.62-3.62Zm.6-.6,1.3-1.3a.515.515,0,0,1,.714.046l.453.453a.516.516,0,0,1,.047.714l-1.3,1.3Zm-4.484,14.287a1.849,1.849,0,0,0,.173.187h-.345A1.859,1.859,0,0,0,197.513,116.557Zm8.6-1.336a6.2,6.2,0,0,1-4.54-2.172v0a.431.431,0,0,0-.046-.057.4.4,0,0,0-.031-.028.42.42,0,0,0-.038-.031c-.01-.007-.022-.012-.032-.018a.43.43,0,0,0-.04-.021c-.012,0-.024-.007-.036-.011a.418.418,0,0,0-.053-.014.414.414,0,0,0-.071-.007h-6.438a1.621,1.621,0,0,1-.527-.088,1.382,1.382,0,0,1-.971-1.273,1.27,1.27,0,0,1,.328-.846l.009-.01h0l0,0h0l.005-.006.1-.1a1.566,1.566,0,0,1,1.053-.4h6.436a.422.422,0,0,0,0-.844h-2.629l3.522-3.522h1.835l6.36,1.719v6.1A4.933,4.933,0,0,1,206.114,115.221Z" transform="translate(-161.49 -75.169)"/>
        <path id="Trazado_1037484" data-name="Trazado 1037484" d="M475.517,353.329a1.406,1.406,0,1,0,1.405,1.406A1.407,1.407,0,0,0,475.517,353.329Zm.562,1.406a.562.562,0,1,1-.562-.562A.562.562,0,0,1,476.078,354.735Z" transform="translate(-424.106 -316.442)"/>
      </g>
    </g>
  </g>
</svg>
