<svg xmlns="http://www.w3.org/2000/svg" xmlns:xlink="http://www.w3.org/1999/xlink" width="113" height="113" viewBox="0 0 113 113">
  <defs>
    <filter id="Trazado_982547" x="0" y="0" width="113" height="113" filterUnits="userSpaceOnUse">
      <feOffset dy="3" input="SourceAlpha"/>
      <feGaussianBlur stdDeviation="3" result="blur"/>
      <feFlood flood-opacity="0.161"/>
      <feComposite operator="in" in2="blur"/>
      <feComposite in="SourceGraphic"/>
    </filter>
  </defs>
  <g id="Grupo_1177841" data-name="Grupo 1177841" transform="translate(-1217 -696.802)">
    <g id="Grupo_1177726" data-name="Grupo 1177726" transform="translate(1226 702.802)">
      <g id="Grupo_1173868" data-name="Grupo 1173868">
        <g id="Grupo_1172010" data-name="Grupo 1172010">
          <g id="Grupo_1171046" data-name="Grupo 1171046">
            <g id="Grupo_1148525" data-name="Grupo 1148525">
              <g transform="matrix(1, 0, 0, 1, -9, -6)" filter="url(#Trazado_982547)">
                <g id="Trazado_982547-2" data-name="Trazado 982547" transform="translate(9 6)" fill="#fbecfd">
                  <path d="M 47.5 93.5 C 41.28937149047852 93.5 35.26533508300781 92.28397369384766 29.59518623352051 89.88570404052734 C 24.11771965026855 87.56893157958984 19.19813346862793 84.25196075439453 14.97309303283691 80.02691650390625 C 10.74804019927979 75.80186462402344 7.431066513061523 70.88229370117188 5.114293098449707 65.40481567382812 C 2.716026782989502 59.73468017578125 1.5 53.71062850952148 1.5 47.5 C 1.5 41.28937149047852 2.716026782989502 35.26533508300781 5.114293098449707 29.59518623352051 C 7.431066513061523 24.11771965026855 10.74804019927979 19.19813346862793 14.97309303283691 14.97309303283691 C 19.19813346862793 10.74804019927979 24.11771965026855 7.431066513061523 29.59518623352051 5.114293098449707 C 35.26533508300781 2.716026782989502 41.28937149047852 1.5 47.5 1.5 C 53.71062850952148 1.5 59.73468017578125 2.716026782989502 65.40481567382812 5.114293098449707 C 70.88229370117188 7.431066513061523 75.80186462402344 10.74804019927979 80.02691650390625 14.97309303283691 C 84.25196075439453 19.19813346862793 87.56893157958984 24.11771965026855 89.88570404052734 29.59518623352051 C 92.28397369384766 35.26533508300781 93.5 41.28937149047852 93.5 47.5 C 93.5 53.71062850952148 92.28397369384766 59.73468017578125 89.88570404052734 65.40481567382812 C 87.56893157958984 70.88229370117188 84.25196075439453 75.80186462402344 80.02691650390625 80.02691650390625 C 75.80186462402344 84.25196075439453 70.88229370117188 87.56893157958984 65.40481567382812 89.88570404052734 C 59.73468017578125 92.28397369384766 53.71062850952148 93.5 47.5 93.5 Z" stroke="none"/>
                  <path d="M 47.5 3 C 41.49121475219727 3 35.66376876831055 4.176155090332031 30.17950439453125 6.495796203613281 C 24.88084411621094 8.736953735351562 20.12152099609375 11.94598388671875 16.03375244140625 16.03375244140625 C 11.94598388671875 20.12152099609375 8.736953735351562 24.88084411621094 6.495796203613281 30.17950439453125 C 4.176155090332031 35.66376876831055 3 41.49121475219727 3 47.5 C 3 53.50878524780273 4.176155090332031 59.33623123168945 6.495796203613281 64.82049560546875 C 8.736953735351562 70.11915588378906 11.94598388671875 74.87847900390625 16.03375244140625 78.96624755859375 C 20.12152099609375 83.05401611328125 24.88084411621094 86.26304626464844 30.17950439453125 88.50419616699219 C 35.66376876831055 90.82384490966797 41.49121475219727 92 47.5 92 C 53.50878524780273 92 59.33623123168945 90.82384490966797 64.82049560546875 88.50419616699219 C 70.11915588378906 86.26304626464844 74.87847900390625 83.05401611328125 78.96624755859375 78.96624755859375 C 83.05401611328125 74.87847900390625 86.26304626464844 70.11915588378906 88.50419616699219 64.82049560546875 C 90.82384490966797 59.33623123168945 92 53.50878524780273 92 47.5 C 92 41.49121475219727 90.82384490966797 35.66376876831055 88.50419616699219 30.17950439453125 C 86.26304626464844 24.88084411621094 83.05401611328125 20.12152099609375 78.96624755859375 16.03375244140625 C 74.87847900390625 11.94598388671875 70.11915588378906 8.736953735351562 64.82049560546875 6.495796203613281 C 59.33623123168945 4.176155090332031 53.50878524780273 3 47.5 3 M 47.5 0 C 73.7335205078125 0 95 21.2664794921875 95 47.5 C 95 73.7335205078125 73.7335205078125 95 47.5 95 C 21.2664794921875 95 0 73.7335205078125 0 47.5 C 0 21.2664794921875 21.2664794921875 0 47.5 0 Z" stroke="none" fill="#da53f2"/>
                </g>
              </g>
            </g>
          </g>
        </g>
      </g>
    </g>
    <g id="management_17087869" transform="translate(1215.293 649.27)">
      <g id="Grupo_1177840" data-name="Grupo 1177840" transform="translate(32.673 74.007)">
        <path id="Trazado_1037485" data-name="Trazado 1037485" d="M86.849,210.465c-2.655-5.789,1.053-21.445,12.7-21.445s15.355,15.656,12.7,21.445a3.284,3.284,0,0,1-.595,6.514H87.447a3.284,3.284,0,0,1-.6-6.514Z" transform="translate(-84.16 -172.553)" fill="#54aa55" fill-rule="evenodd"/>
        <path id="Trazado_1037486" data-name="Trazado 1037486" d="M117.44,195.114c2.217-3.482,5.648-6.094,10.4-6.094,11.648,0,15.355,15.656,12.7,21.445a3.3,3.3,0,0,1,2.688,3.231v.072a22.282,22.282,0,0,1-25.793-18.654Z" transform="translate(-112.454 -172.553)" fill="#6fac70" fill-rule="evenodd"/>
        <path id="Trazado_1037487" data-name="Trazado 1037487" d="M147.819,104.808a7.99,7.99,0,0,1,1.194,2.947,4.666,4.666,0,0,1,2.539-1.058,1.6,1.6,0,0,1,1.449.7,2.727,2.727,0,0,1,.539,1.864,8.128,8.128,0,0,1-1.6,4.532c-2.085,2.688-8.96,2.688-11.05,0a8.106,8.106,0,0,1-1.6-4.532,2.73,2.73,0,0,1,.544-1.864,1.6,1.6,0,0,1,1.449-.7,4.666,4.666,0,0,1,2.539,1.058,7.9,7.9,0,0,1,1.194-2.947,1.607,1.607,0,0,1,2.812,0Z" transform="translate(-131.019 -100.253)" fill="#6fac70" fill-rule="evenodd"/>
        <path id="Trazado_1037488" data-name="Trazado 1037488" d="M142.647,170.94h9.643a2.127,2.127,0,0,1,0,4.255h-9.643a2.127,2.127,0,1,1,0-4.255Z" transform="translate(-132.077 -157.182)" fill="#686868" fill-rule="evenodd"/>
        <path id="Trazado_1037489" data-name="Trazado 1037489" d="M154.428,185.14a2.135,2.135,0,0,1-2.127,2.127h-9.643a2.134,2.134,0,0,1-2.127-2.127Z" transform="translate(-132.085 -169.254)" fill="#555" fill-rule="evenodd"/>
        <path id="Trazado_1037490" data-name="Trazado 1037490" d="M135.751,231.49a9.011,9.011,0,1,1-9.011,9.011A9.011,9.011,0,0,1,135.751,231.49Z" transform="translate(-120.361 -208.661)" fill="#f7ec13" fill-rule="evenodd"/>
        <path id="Trazado_1037491" data-name="Trazado 1037491" d="M149.363,247.5a6.613,6.613,0,1,1-6.613,6.613A6.612,6.612,0,0,1,149.363,247.5Z" transform="translate(-133.973 -222.272)" fill="#fba919" fill-rule="evenodd"/>
        <path id="Trazado_1037492" data-name="Trazado 1037492" d="M264.658,214.08h2.752a.827.827,0,0,1,.824.824v1.622a9.923,9.923,0,0,1,5.062,2.926l1.405-.81a.822.822,0,0,1,1.125.3l1.375,2.382a.829.829,0,0,1-.3,1.125l-1.405.81a9.89,9.89,0,0,1,0,5.847l1.405.807a.834.834,0,0,1,.3,1.13l-1.375,2.382a.829.829,0,0,1-1.125.3l-1.405-.81a9.885,9.885,0,0,1-5.062,2.921v1.622a.825.825,0,0,1-.824.824h-2.752a.825.825,0,0,1-.824-.824v-1.622a9.877,9.877,0,0,1-5.062-2.921l-1.405.81a.827.827,0,0,1-1.125-.3l-1.375-2.382a.827.827,0,0,1,.3-1.13l1.4-.807a9.988,9.988,0,0,1,0-5.847l-1.4-.81a.821.821,0,0,1-.3-1.125l1.375-2.382a.82.82,0,0,1,1.125-.3l1.405.81a9.9,9.9,0,0,1,5.062-2.926V214.9a.827.827,0,0,1,.824-.824Z" transform="translate(-229.198 -193.859)" fill="#555" fill-rule="evenodd"/>
        <path id="Trazado_1037493" data-name="Trazado 1037493" d="M275.528,214.08h2.752a.827.827,0,0,1,.824.824v1.622a9.923,9.923,0,0,1,5.062,2.926l1.405-.81a.822.822,0,0,1,1.125.3l1.375,2.382a.829.829,0,0,1-.3,1.125l-1.405.81a9.891,9.891,0,0,1,0,5.847l1.405.807a.821.821,0,0,1,.34.382,16.529,16.529,0,0,1-20.57-11.717.824.824,0,0,1,.7.06l1.405.81a9.9,9.9,0,0,1,5.062-2.926V214.9A.827.827,0,0,1,275.528,214.08Z" transform="translate(-240.068 -193.859)" fill="#666766" fill-rule="evenodd"/>
        <path id="Trazado_1037494" data-name="Trazado 1037494" d="M295.794,254.59a6.034,6.034,0,1,1-6.034,6.034A6.034,6.034,0,0,1,295.794,254.59Z" transform="translate(-258.959 -228.3)" fill="#cccccb" fill-rule="evenodd"/>
        <path id="Trazado_1037495" data-name="Trazado 1037495" d="M278.9,79.1h2.148a.649.649,0,0,1,.646.646v1.27a7.724,7.724,0,0,1,3.958,2.285l1.1-.632a.645.645,0,0,1,.879.234l1.074,1.864a.644.644,0,0,1-.234.879l-1.1.637a7.747,7.747,0,0,1,0,4.569l1.1.632a.65.65,0,0,1,.234.884l-1.074,1.861a.643.643,0,0,1-.879.238l-1.1-.632a7.749,7.749,0,0,1-3.958,2.285v1.266a.646.646,0,0,1-.646.646H278.9a.646.646,0,0,1-.646-.646V96.118a7.755,7.755,0,0,1-3.958-2.285l-1.1.632a.648.648,0,0,1-.884-.238l-1.074-1.861a.647.647,0,0,1,.238-.884l1.1-.632a7.746,7.746,0,0,1,0-4.569l-1.1-.637a.642.642,0,0,1-.238-.879l1.074-1.864a.651.651,0,0,1,.884-.234l1.1.632a7.718,7.718,0,0,1,3.958-2.285V79.744A.647.647,0,0,1,278.9,79.1Z" transform="translate(-243.14 -79.1)" fill="#555" fill-rule="evenodd"/>
        <path id="Trazado_1037496" data-name="Trazado 1037496" d="M287.426,79.1h2.148a.649.649,0,0,1,.646.646v1.27a7.724,7.724,0,0,1,3.958,2.285l1.1-.632a.645.645,0,0,1,.879.234l1.074,1.864a.644.644,0,0,1-.234.879l-1.1.637a7.747,7.747,0,0,1,0,4.569l1.1.632a.636.636,0,0,1,.264.3,12.921,12.921,0,0,1-16.08-9.161.629.629,0,0,1,.544.046l1.1.632a7.718,7.718,0,0,1,3.958-2.285V79.744A.645.645,0,0,1,287.426,79.1Z" transform="translate(-251.665 -79.1)" fill="#666766" fill-rule="evenodd"/>
        <path id="Trazado_1037497" data-name="Trazado 1037497" d="M303.267,110.79a4.717,4.717,0,1,1-4.717,4.717A4.718,4.718,0,0,1,303.267,110.79Z" transform="translate(-266.433 -106.043)" fill="#cccccb" fill-rule="evenodd"/>
      </g>
      <path id="Trazado_1037498" data-name="Trazado 1037498" d="M30.457,95.791a.9.9,0,1,1,1.079,1.431,15.428,15.428,0,0,0,4.553,27l-2.9-3.07a.9.9,0,0,1,1.308-1.227l4.9,5.194a.9.9,0,0,1-.366,1.461l0,0L32.282,128.9a.9.9,0,0,1-.583-1.7l3.775-1.3a17.22,17.22,0,0,1-5.017-30.118Zm39.934,27.433a.9.9,0,1,1,.234-1.775A15.428,15.428,0,0,0,86.312,99.01l-.093,4.213a.894.894,0,1,1-1.787-.033l.148-7.075a.9.9,0,0,1,1.347-.824l6.379,3.049a.9.9,0,0,1-.773,1.615l-3.6-1.72a17.219,17.219,0,0,1-17.54,24.99Zm-.884-45.37a5.618,5.618,0,1,1-5.618,5.618A5.616,5.616,0,0,1,69.508,77.854Zm2.7,2.917a3.819,3.819,0,1,0,0,5.4A3.822,3.822,0,0,0,72.209,80.771ZM68.434,73.11h2.153a1.547,1.547,0,0,1,1.542,1.542v.586a8.605,8.605,0,0,1,3.206,1.852,1.993,1.993,0,0,1,1.673-.449,1.543,1.543,0,0,1,.963.769l1.044,1.813h0a1.537,1.537,0,0,1-.616,2.132l-.454.264a8.616,8.616,0,0,1,.1,3.146h0c-.03.187-.064.373-.106.56.556.322,1.037.53,1.222,1.227a1.517,1.517,0,0,1-.157,1.169l0,0L77.94,89.583a1.541,1.541,0,0,1-2.1.565l-.5-.294a8.679,8.679,0,0,1-3.206,1.852,1.974,1.974,0,0,1-.454,1.673h0a.893.893,0,0,1-.106.093,1.727,1.727,0,0,1,1.037,1.579v.935a10.724,10.724,0,0,1,4.31,2.493c.734-.424,1.278-.866,2.115-.641a1.717,1.717,0,0,1,1.074.854l1.347,2.331a1.712,1.712,0,0,1-.68,2.377l-.757.437c.067.289.127.581.169.879a10.793,10.793,0,0,1-.169,4.106c.683.4,1.38.662,1.609,1.512a1.7,1.7,0,0,1-.217,1.375l-1.333,2.31v0a1.719,1.719,0,0,1-2.4.6l-.76-.437a10.823,10.823,0,0,1-4.314,2.493c0,.849.111,1.533-.5,2.148a1.723,1.723,0,0,1-1.219.5H68.131a1.728,1.728,0,0,1-1.724-1.724v-.93a10.625,10.625,0,0,1-2.1-.884,4.2,4.2,0,0,1-4.136,3.537H35.96a4.182,4.182,0,0,1-1.762-7.97c-.9-2.863-.688-7.18.734-11.194A17.1,17.1,0,0,1,40.9,91.806a3.016,3.016,0,0,1,.5-4.314,9.233,9.233,0,0,1-1.368-4.433c-.1-1.835,1.121-3.664,2.965-3.5a5.386,5.386,0,0,1,1.907.535,5.549,5.549,0,0,1,1.928-2.921,2.49,2.49,0,0,1,3.38.884,8.808,8.808,0,0,1,1,2.039,3.821,3.821,0,0,1,3.159-.315,3.4,3.4,0,0,1,1.711,3.278,9.212,9.212,0,0,1-1.368,4.433,3.015,3.015,0,0,1,.5,4.314,15.937,15.937,0,0,1,4.969,5.988,2.918,2.918,0,0,1,1.9.683,10.754,10.754,0,0,1,4.31-2.493c0-.849-.111-1.533.509-2.148a1.7,1.7,0,0,1,.527-.366c-.616-.514-.556-1.088-.556-1.766a8.587,8.587,0,0,1-3.2-1.852,2,2,0,0,1-1.673.446,1.537,1.537,0,0,1-.935-.718h0L59.96,87.644a1.536,1.536,0,0,1,.6-2.034l.5-.289a8.6,8.6,0,0,1,0-3.708l-.5-.289A1.537,1.537,0,0,1,60,79.218l1.074-1.864a1.541,1.541,0,0,1,2.106-.56l.5.294a8.635,8.635,0,0,1,3.2-1.852c0-.65-.06-1.252.53-1.745A1.572,1.572,0,0,1,68.434,73.11Zm1.9,1.8H68.688v1.014h0a.9.9,0,0,1-.7.875,6.845,6.845,0,0,0-3.491,2.016.9.9,0,0,1-1.109.169l-.884-.509L61.676,79.9l.836.479a.9.9,0,0,1,.449,1.065,6.987,6.987,0,0,0,0,4.043.893.893,0,0,1-.407,1.04l-.879.5.824,1.431.861-.5a.9.9,0,0,1,1.125.157,6.872,6.872,0,0,0,3.432,2.009.9.9,0,0,1,.769.887v1.014h1.643V91.02a.9.9,0,0,1,.7-.875,6.847,6.847,0,0,0,3.5-2.021.9.9,0,0,1,1.1-.166l.884.509.828-1.431-.836-.484a.889.889,0,0,1-.454-1.062,6.643,6.643,0,0,0,.225-1,6.9,6.9,0,0,0-.225-3.044.9.9,0,0,1,.412-1.04l.879-.509-.824-1.426-.833.479a.9.9,0,0,1-1.155-.136,6.9,6.9,0,0,0-1.6-1.278,6.794,6.794,0,0,0-1.831-.731.9.9,0,0,1-.764-.887ZM69.508,99.4a6.932,6.932,0,1,1-6.93,6.93A6.933,6.933,0,0,1,69.508,99.4Zm3.636,3.3a5.136,5.136,0,1,0,0,7.261A5.141,5.141,0,0,0,73.144,102.7ZM62.476,114.528c-.127-.111-.255-.225-.378-.34l-.807.463v0a1.72,1.72,0,0,1-2.377-.68l-1.308-2.264a1.725,1.725,0,0,1,.662-2.463l.731-.424a10.864,10.864,0,0,1,0-4.986l-.8-.463h0a1.725,1.725,0,0,1-.629-2.352l1.2-2.072a16.211,16.211,0,0,0-2.315-3.618,11.842,11.842,0,0,0-2.9-2.484,3.044,3.044,0,0,1-.655.072h-9.64a3.055,3.055,0,0,1-.655-.072,14.833,14.833,0,0,0-5.967,7.92c-1.44,4.046-1.551,8.349-.458,10.756a.9.9,0,0,1-.641,1.278,2.389,2.389,0,0,0,.434,4.735H60.167A2.4,2.4,0,0,0,62.476,114.528Zm8.335-19.4h-2.6v1.546h0a.892.892,0,0,1-.7.875,9.01,9.01,0,0,0-4.595,2.658.9.9,0,0,1-1.109.166L60.452,99.6l-1.3,2.259,1.3.752a.891.891,0,0,1,.449,1.062,9.147,9.147,0,0,0,0,5.321.889.889,0,0,1-.407,1.037l-1.342.777,1.3,2.259,1.3-.748a.893.893,0,0,1,1.155.136,9.2,9.2,0,0,0,2.106,1.682,9.026,9.026,0,0,0,2.428.963.9.9,0,0,1,.769.887v1.551h2.6V115.99a.9.9,0,0,1,.7-.875,8.974,8.974,0,0,0,4.6-2.658h0a.9.9,0,0,1,1.1-.166l1.347.778,1.308-2.259-1.3-.752A.9.9,0,0,1,78.114,109a9.114,9.114,0,0,0,.3-4.009l-.3-1.312a.9.9,0,0,1,.412-1.041l1.342-.773-1.3-2.259-1.329.764a.9.9,0,0,1-1.125-.153A8.908,8.908,0,0,0,74,98.53a8.769,8.769,0,0,0-2.428-.963.9.9,0,0,1-.764-.891V95.129Zm-25.882,12.4a.9.9,0,0,1,1.8,0c0,.662,1.521,1.125,2.382.475a.629.629,0,0,0,.294-.475c0-.641-1.07-.68-1.627-.824-1.444-.264-2.849-.577-2.849-2.544a2.7,2.7,0,0,1,2.238-2.472v-.424a.9.9,0,0,1,1.8,0v.424a2.7,2.7,0,0,1,2.238,2.472.9.9,0,1,1-1.8,0c0-.658-1.521-1.121-2.382-.472a.629.629,0,0,0-.294.472c0,.607.947.676,1.576.819,1.465.268,2.9.565,2.9,2.548A2.7,2.7,0,0,1,48.967,110v.424h-1.8V110a2.7,2.7,0,0,1-2.238-2.476Zm3.138-11.592a9.911,9.911,0,1,1-9.911,9.911A9.907,9.907,0,0,1,48.067,95.936ZM53.8,100.11a8.113,8.113,0,1,0,0,11.474,8.113,8.113,0,0,0,0-11.474ZM43.248,86.865h9.64c.03,0,.06,0,.09,0a7.282,7.282,0,0,0,1.324-3.9,1.662,1.662,0,0,0-.7-1.567,2.234,2.234,0,0,0-1.372.208c-.785.331-.986.706-1.393.785a.9.9,0,0,1-1.049-.713,7.1,7.1,0,0,0-1.058-2.616.722.722,0,0,0-1.324,0,7.032,7.032,0,0,0-1.058,2.616.9.9,0,0,1-1.444.53,3.819,3.819,0,0,0-2.055-.866c-.479-.042-.828.509-.942.909a6.064,6.064,0,0,0,.361,2.917,6.717,6.717,0,0,0,.887,1.7C43.183,86.87,43.218,86.865,43.248,86.865Zm9.639,1.8h-9.64a1.229,1.229,0,1,0,0,2.458h9.64a1.229,1.229,0,0,0,.866-2.1A1.2,1.2,0,0,0,52.886,88.666Z"/>
    </g>
  </g>
</svg>
