<svg xmlns="http://www.w3.org/2000/svg" xmlns:xlink="http://www.w3.org/1999/xlink" width="113" height="113" viewBox="0 0 113 113">
  <defs>
    <filter id="Trazado_982547" x="0" y="0" width="113" height="113" filterUnits="userSpaceOnUse">
      <feOffset dy="3" input="SourceAlpha"/>
      <feGaussianBlur stdDeviation="3" result="blur"/>
      <feFlood flood-opacity="0.161"/>
      <feComposite operator="in" in2="blur"/>
      <feComposite in="SourceGraphic"/>
    </filter>
  </defs>
  <g id="Grupo_1177883" data-name="Grupo 1177883" transform="translate(-272 -2824.702)">
    <g id="Grupo_1177755" data-name="Grupo 1177755" transform="translate(281 2830.702)">
      <g id="Grupo_1173868" data-name="Grupo 1173868">
        <g id="Grupo_1172010" data-name="Grupo 1172010">
          <g id="Grupo_1171046" data-name="Grupo 1171046">
            <g id="Grupo_1148525" data-name="Grupo 1148525">
              <g transform="matrix(1, 0, 0, 1, -9, -6)" filter="url(#Trazado_982547)">
                <g id="Trazado_982547-2" data-name="Trazado 982547" transform="translate(9 6)" fill="#fbecfd">
                  <path d="M 47.5 93.5 C 41.28937149047852 93.5 35.26533508300781 92.28397369384766 29.59518623352051 89.88570404052734 C 24.11771965026855 87.56893157958984 19.19813346862793 84.25196075439453 14.97309303283691 80.02691650390625 C 10.74804019927979 75.80186462402344 7.431066513061523 70.88229370117188 5.114293098449707 65.40481567382812 C 2.716026782989502 59.73468017578125 1.5 53.71062850952148 1.5 47.5 C 1.5 41.28937149047852 2.716026782989502 35.26533508300781 5.114293098449707 29.59518623352051 C 7.431066513061523 24.11771965026855 10.74804019927979 19.19813346862793 14.97309303283691 14.97309303283691 C 19.19813346862793 10.74804019927979 24.11771965026855 7.431066513061523 29.59518623352051 5.114293098449707 C 35.26533508300781 2.716026782989502 41.28937149047852 1.5 47.5 1.5 C 53.71062850952148 1.5 59.73468017578125 2.716026782989502 65.40481567382812 5.114293098449707 C 70.88229370117188 7.431066513061523 75.80186462402344 10.74804019927979 80.02691650390625 14.97309303283691 C 84.25196075439453 19.19813346862793 87.56893157958984 24.11771965026855 89.88570404052734 29.59518623352051 C 92.28397369384766 35.26533508300781 93.5 41.28937149047852 93.5 47.5 C 93.5 53.71062850952148 92.28397369384766 59.73468017578125 89.88570404052734 65.40481567382812 C 87.56893157958984 70.88229370117188 84.25196075439453 75.80186462402344 80.02691650390625 80.02691650390625 C 75.80186462402344 84.25196075439453 70.88229370117188 87.56893157958984 65.40481567382812 89.88570404052734 C 59.73468017578125 92.28397369384766 53.71062850952148 93.5 47.5 93.5 Z" stroke="none"/>
                  <path d="M 47.5 3 C 41.49121475219727 3 35.66376876831055 4.176155090332031 30.17950439453125 6.495796203613281 C 24.88084411621094 8.736953735351562 20.12152099609375 11.94598388671875 16.03375244140625 16.03375244140625 C 11.94598388671875 20.12152099609375 8.736953735351562 24.88084411621094 6.495796203613281 30.17950439453125 C 4.176155090332031 35.66376876831055 3 41.49121475219727 3 47.5 C 3 53.50878524780273 4.176155090332031 59.33623123168945 6.495796203613281 64.82049560546875 C 8.736953735351562 70.11915588378906 11.94598388671875 74.87847900390625 16.03375244140625 78.96624755859375 C 20.12152099609375 83.05401611328125 24.88084411621094 86.26304626464844 30.17950439453125 88.50419616699219 C 35.66376876831055 90.82384490966797 41.49121475219727 92 47.5 92 C 53.50878524780273 92 59.33623123168945 90.82384490966797 64.82049560546875 88.50419616699219 C 70.11915588378906 86.26304626464844 74.87847900390625 83.05401611328125 78.96624755859375 78.96624755859375 C 83.05401611328125 74.87847900390625 86.26304626464844 70.11915588378906 88.50419616699219 64.82049560546875 C 90.82384490966797 59.33623123168945 92 53.50878524780273 92 47.5 C 92 41.49121475219727 90.82384490966797 35.66376876831055 88.50419616699219 30.17950439453125 C 86.26304626464844 24.88084411621094 83.05401611328125 20.12152099609375 78.96624755859375 16.03375244140625 C 74.87847900390625 11.94598388671875 70.11915588378906 8.736953735351562 64.82049560546875 6.495796203613281 C 59.33623123168945 4.176155090332031 53.50878524780273 3 47.5 3 M 47.5 0 C 73.7335205078125 0 95 21.2664794921875 95 47.5 C 95 73.7335205078125 73.7335205078125 95 47.5 95 C 21.2664794921875 95 0 73.7335205078125 0 47.5 C 0 21.2664794921875 21.2664794921875 0 47.5 0 Z" stroke="none" fill="#da53f2"/>
                </g>
              </g>
            </g>
          </g>
        </g>
      </g>
    </g>
    <g id="Layer_x0020_1" transform="translate(302.5 2819.237)">
      <path id="Trazado_1037677" data-name="Trazado 1037677" d="M12.033,78.08H3.686A3.725,3.725,0,0,1,0,74.363V37.686A3.725,3.725,0,0,1,3.716,34H18.064c.426,0,.762.762,1.158,1.34H48.436A3.589,3.589,0,0,1,52,38.9V74.363a3.731,3.731,0,0,1-3.716,3.716H42.252v.579a5.265,5.265,0,0,1-5.24,5.27H17.3a5.291,5.291,0,0,1-5.27-5.27ZM24.4,52.613a.506.506,0,0,1,.975-.274,7.1,7.1,0,0,1-.7,5.392.512.512,0,0,1-.883-.518A5.94,5.94,0,0,0,24.4,52.613Zm-2.376-1.279-3.2,8.834a.5.5,0,0,1-.944,0l-1.432-3.9-3.93-1.432a.525.525,0,0,1,.03-.975l8.834-3.168A.5.5,0,0,1,22.025,51.333Zm-3.686,7.189L20.684,52,14.2,54.38,17,55.415a.458.458,0,0,1,.3.274Zm6.428-10.571a8.754,8.754,0,0,1,2.589,5.727h9.657a5.265,5.265,0,0,1,5.24,5.27V77.074h6.032a2.691,2.691,0,0,0,2.681-2.711V43.931H1.005V74.363a2.711,2.711,0,0,0,2.681,2.711h8.347V60.107A8.8,8.8,0,0,1,24.766,47.952Zm2.559,6.763a8.825,8.825,0,0,1-14.287,6.367V71.226A16.589,16.589,0,0,0,29.579,54.715Zm-1.005-.548a7.789,7.789,0,1,0-7.8,7.8A7.789,7.789,0,0,0,26.32,54.166Zm4.265.548A17.564,17.564,0,0,1,13.038,72.231v2.681a9.639,9.639,0,0,1,2.315-.274c.579-.061.944.944-.061,1.036l-1.889.122a.653.653,0,0,1-.366-.122v2.681A23.72,23.72,0,0,0,36.677,54.715H34.118l-.03,1.554c-.061.609-1.066.7-1.005-.213l.03-1.34ZM18.521,75.064c-.579.152-1.005-.762-.152-1.005l1.767-.579c.548-.213,1.219.64.152,1.036Zm4.813-1.95c-.487.274-1.249-.457-.335-.975l1.523-.975c.457-.335,1.279.366.426.944Zm4.173-3.077c-.4.366-1.34-.122-.548-.883l1.219-1.279c.4-.457,1.31.03.67.792Zm3.32-4.021c-.335.548-1.279.122-.822-.609l.944-1.645c.274-.548,1.279-.244.853.579Zm2.224-4.661c-.183.548-1.219.487-.914-.487l.487-1.736c.122-.579,1.188-.579.944.366Zm4.63-6.58A24.689,24.689,0,0,1,13.1,79.359a4.258,4.258,0,0,0,4.2,3.534v.03H30.737A5.458,5.458,0,0,1,36.586,75a5.458,5.458,0,0,1,4.265-2.559c.122-.152.244-.366.4-.548V58.949A4.253,4.253,0,0,0,37.682,54.776Zm3.564,18.674a4.452,4.452,0,0,0-2.346.64c-1.706,1.036-1.462,2.163-2.193,1.98a4.451,4.451,0,0,0-4.783,6.854h5.087v-.03a4.245,4.245,0,0,0,4.234-4.234ZM29.854,36.376l3.991,6.549h17.12V38.9a2.522,2.522,0,0,0-2.528-2.528Zm2.8,6.549-3.991-6.549H24.492l3.96,6.549Zm-5.392,0L23.3,36.376H19.892l4.265,6.549Zm-11.606-2.1c-2.224,0-2.985-3.747.518-3.747C18.369,37.077,19.161,40.824,15.658,40.824Zm-.792-1.554c.457,1.005,2.62.518,2.1-.609C16.48,37.625,14.318,38.112,14.866,39.27ZM9.718,40.824c-2.224,0-2.985-3.747.518-3.747C12.429,37.077,13.221,40.824,9.718,40.824ZM8.926,39.27c.457,1.005,2.62.518,2.1-.609C10.54,37.625,8.408,38.112,8.926,39.27ZM3.777,40.824c-2.193,0-2.985-3.747.518-3.747C6.489,37.077,7.281,40.824,3.777,40.824ZM2.985,39.27c.457,1.005,2.62.518,2.1-.609C4.6,37.625,2.467,38.112,2.985,39.27Zm15.6-3.046-.792-1.219H3.716a2.731,2.731,0,0,0-2.711,2.681v5.24H22.938Z"/>
      <path id="Trazado_1037678" data-name="Trazado 1037678" d="M354.88,442.138a7.789,7.789,0,1,0,13.282,5.514A7.8,7.8,0,0,0,354.88,442.138Zm4.844,11.515-1.432-3.9-3.93-1.432a.525.525,0,0,1,.03-.975l8.834-3.168a.5.5,0,0,1,.64.64l-3.2,8.834A.5.5,0,0,1,359.723,453.653Zm6.519-7.555a.506.506,0,0,1,.975-.274,7.1,7.1,0,0,1-.7,5.392.512.512,0,0,1-.883-.518A5.94,5.94,0,0,0,366.242,446.1Z" transform="translate(-341.842 -393.486)" fill="#d73d3f" fill-rule="evenodd"/>
      <path id="Trazado_1037679" data-name="Trazado 1037679" d="M442.287,714A8.825,8.825,0,0,1,428,720.367v10.144A16.589,16.589,0,0,0,444.541,714Z" transform="translate(-414.962 -659.285)" fill="#2bd373" fill-rule="evenodd"/>
      <path id="Trazado_1037680" data-name="Trazado 1037680" d="M445.547,714A17.564,17.564,0,0,1,428,731.516V734.2a9.64,9.64,0,0,1,2.315-.274c.579-.061.944.944-.061,1.036l-1.889.122a.653.653,0,0,1-.366-.122v2.681A23.72,23.72,0,0,0,451.639,714H449.08l-.03,1.554c-.061.609-1.066.7-1.005-.213l.03-1.34Zm-12.216,19.344,1.767-.579c.548-.213,1.219.64.152,1.036l-1.767.548C432.9,734.5,432.478,733.588,433.331,733.344Zm4.63-1.919,1.523-.975c.457-.335,1.279.366.426.944L438.3,732.4C437.809,732.674,437.047,731.943,437.961,731.425Zm4.508-2.1c-.4.366-1.34-.122-.548-.883l1.219-1.279c.4-.457,1.31.03.67.792Zm3.32-4.021c-.335.548-1.279.122-.823-.609l.944-1.645c.274-.548,1.279-.244.853.579Zm2.224-4.661c-.183.548-1.219.487-.914-.487l.487-1.736c.122-.579,1.188-.579.944.366Z" transform="translate(-414.962 -659.285)" fill="#607586" fill-rule="evenodd"/>
      <path id="Trazado_1037681" data-name="Trazado 1037681" d="M1026.493,1331.62a4.451,4.451,0,0,0-4.783,6.854h5.087v-.031a4.245,4.245,0,0,0,4.234-4.234V1329a4.452,4.452,0,0,0-2.346.64C1026.98,1330.675,1027.224,1331.8,1026.493,1331.62Z" transform="translate(-989.785 -1255.551)" fill="#00c3f3" fill-rule="evenodd"/>
      <path id="Trazado_1037682" data-name="Trazado 1037682" d="M447.638,744.148a5.458,5.458,0,0,1,5.849-7.92,5.458,5.458,0,0,1,4.265-2.559c.122-.152.244-.366.4-.548V720.173A4.253,4.253,0,0,0,454.583,716,24.689,24.689,0,0,1,430,740.583a4.258,4.258,0,0,0,4.2,3.534v.03Z" transform="translate(-416.901 -661.224)" fill="#2bd373" fill-rule="evenodd"/>
      <path id="Trazado_1037683" data-name="Trazado 1037683" d="M470.143,631.519,472.489,625,466,627.376l2.8,1.036a.458.458,0,0,1,.3.274Z" transform="translate(-451.804 -572.996)" fill="#fff" fill-rule="evenodd"/>
      <path id="Trazado_1037684" data-name="Trazado 1037684" d="M56.761,364.021a8.754,8.754,0,0,1,2.589,5.727h9.657a5.265,5.265,0,0,1,5.24,5.27v18.125h6.032a2.691,2.691,0,0,0,2.681-2.711V360H33v30.432a2.711,2.711,0,0,0,2.681,2.711h8.347V376.176a8.8,8.8,0,0,1,12.733-12.155Z" transform="translate(-31.995 -316.069)" fill="#bcffff" fill-rule="evenodd"/>
      <path id="Trazado_1037685" data-name="Trazado 1037685" d="M980,112l3.991,6.549h17.12v-4.021A2.522,2.522,0,0,0,998.582,112Z" transform="translate(-950.146 -75.624)" fill="#41398c" fill-rule="evenodd"/>
      <path id="Trazado_1037686" data-name="Trazado 1037686" d="M812.164,118.549,808.173,112H804l3.96,6.549Z" transform="translate(-779.508 -75.624)" fill="#352e71" fill-rule="evenodd"/>
      <path id="Trazado_1037687" data-name="Trazado 1037687" d="M660.372,118.549,656.412,112H653l4.265,6.549Z" transform="translate(-633.108 -75.624)" fill="#41398c" fill-rule="evenodd"/>
      <path id="Trazado_1037688" data-name="Trazado 1037688" d="M54.933,74.92l-4.356-6.7L49.785,67H35.711A2.731,2.731,0,0,0,33,69.681v5.24Zm-7.281-2.1c-2.224,0-2.985-3.747.518-3.747C50.364,69.071,51.156,72.818,47.653,72.818ZM42.23,69.071c2.193,0,2.985,3.747-.518,3.747C39.489,72.818,38.727,69.071,42.23,69.071Zm-5.94,0c2.193,0,2.985,3.747-.518,3.747C33.579,72.818,32.787,69.071,36.29,69.071Z" transform="translate(-31.995 -31.995)" fill="#352e71" fill-rule="evenodd"/>
      <path id="Trazado_1037689" data-name="Trazado 1037689" d="M485.187,169.541c.457,1.005,2.62.518,2.1-.609C486.8,167.9,484.639,168.383,485.187,169.541Z" transform="translate(-470.321 -130.27)" fill="#2bd373" fill-rule="evenodd"/>
      <path id="Trazado_1037690" data-name="Trazado 1037690" d="M290.439,169.541c.457,1.005,2.62.518,2.1-.609C292.053,167.9,289.921,168.383,290.439,169.541Z" transform="translate(-281.513 -130.27)" fill="#fccf1e" fill-rule="evenodd"/>
      <path id="Trazado_1037691" data-name="Trazado 1037691" d="M95.439,169.541c.457,1.005,2.62.518,2.1-.609C97.053,167.9,94.921,168.383,95.439,169.541Z" transform="translate(-92.454 -130.27)" fill="#d73d3f" fill-rule="evenodd"/>
    </g>
  </g>
</svg>
