<svg xmlns="http://www.w3.org/2000/svg" xmlns:xlink="http://www.w3.org/1999/xlink" width="113" height="113" viewBox="0 0 113 113">
  <defs>
    <filter id="Trazado_982547" x="0" y="0" width="113" height="113" filterUnits="userSpaceOnUse">
      <feOffset dy="3" input="SourceAlpha"/>
      <feGaussianBlur stdDeviation="3" result="blur"/>
      <feFlood flood-opacity="0.161"/>
      <feComposite operator="in" in2="blur"/>
      <feComposite in="SourceGraphic"/>
    </filter>
  </defs>
  <g id="Grupo_1177853" data-name="Grupo 1177853" transform="translate(-199 -1521)">
    <g id="Grupo_1177627" data-name="Grupo 1177627" transform="translate(12.142 -176.871)">
      <g id="Grupo_1177427" data-name="Grupo 1177427" transform="translate(-1126.578 -1350.438)">
        <g id="Grupo_1177182" data-name="Grupo 1177182" transform="translate(1322.436 3054.308)">
          <g id="Grupo_1176922" data-name="Grupo 1176922" transform="translate(0 0)">
            <g id="Grupo_1172322" data-name="Grupo 1172322" transform="translate(0)">
              <g id="Grupo_1164700" data-name="Grupo 1164700">
                <g id="Grupo_1160931" data-name="Grupo 1160931">
                  <g id="Grupo_1160749" data-name="Grupo 1160749">
                    <g id="Grupo_1158891" data-name="Grupo 1158891">
                      <g id="Grupo_1157406" data-name="Grupo 1157406">
                        <g id="Grupo_1155793" data-name="Grupo 1155793">
                          <g id="Grupo_1154704" data-name="Grupo 1154704">
                            <g id="Grupo_1150790" data-name="Grupo 1150790">
                              <g id="Grupo_1154214" data-name="Grupo 1154214">
                                <g id="Grupo_1152583" data-name="Grupo 1152583">
                                  <g id="Grupo_1146973" data-name="Grupo 1146973">
                                    <g id="Grupo_1146954" data-name="Grupo 1146954">
                                      <g transform="matrix(1, 0, 0, 1, -9, -6)" filter="url(#Trazado_982547)">
                                        <g id="Trazado_982547-2" data-name="Trazado 982547" transform="translate(9 6)" fill="#fbf8f2">
                                          <path d="M 47.50000762939453 93.49986267089844 C 41.28937911987305 93.49986267089844 35.26534271240234 92.28383636474609 29.59519386291504 89.88558197021484 C 24.11772727966309 87.56880950927734 19.19814109802246 84.25183868408203 14.97310066223145 80.02679443359375 C 10.74804782867432 75.8017578125 7.431074142456055 70.88218688964844 5.114300727844238 65.40471649169922 C 2.716034412384033 59.73458480834961 1.500007629394531 53.71054458618164 1.500007629394531 47.49993133544922 C 1.500007629394531 41.2893180847168 2.716034412384033 35.26527786254883 5.114300727844238 29.59514427185059 C 7.431074142456055 24.11769104003906 10.74804782867432 19.19810485839844 14.97310066223145 14.97306442260742 C 19.19814109802246 10.74803829193115 24.11772727966309 7.431051254272461 29.59519386291504 5.114291191101074 C 35.26534271240234 2.71602463722229 41.28937911987305 1.499997973442078 47.50000762939453 1.499997973442078 C 53.71063613891602 1.499997973442078 59.73468780517578 2.71602463722229 65.40482330322266 5.114291191101074 C 70.88230133056641 7.431051254272461 75.80187225341797 10.74803829193115 80.02692413330078 14.97306442260742 C 84.25196838378906 19.19810485839844 87.56893920898438 24.11769104003906 89.88571166992188 29.59514427185059 C 92.28398132324219 35.26527786254883 93.50000762939453 41.2893180847168 93.50000762939453 47.49993133544922 C 93.50000762939453 53.71054458618164 92.28398132324219 59.73458480834961 89.88571166992188 65.40471649169922 C 87.56893920898438 70.88218688964844 84.25196838378906 75.8017578125 80.02692413330078 80.02679443359375 C 75.80187225341797 84.25183868408203 70.88230133056641 87.56880950927734 65.40482330322266 89.88558197021484 C 59.73468780517578 92.28383636474609 53.71063613891602 93.49986267089844 47.50000762939453 93.49986267089844 Z" stroke="none"/>
                                          <path d="M 47.50000762939453 2.999992370605469 C 41.4912223815918 2.999992370605469 35.66377639770508 4.1761474609375 30.17951202392578 6.495796203613281 C 24.88085174560547 8.736930847167969 20.12152862548828 11.94596099853516 16.03376007080078 16.03372955322266 C 11.94599151611328 20.12149810791016 8.736961364746094 24.88080596923828 6.495803833007812 30.17946624755859 C 4.176162719726562 35.66371536254883 3.000007629394531 41.49116134643555 3.000007629394531 47.49993133544922 C 3.000007629394531 53.50870132446289 4.176162719726562 59.33614730834961 6.495803833007812 64.82038879394531 C 8.736961364746094 70.11905670166016 11.94597625732422 74.87836456298828 16.03376007080078 78.96613311767578 C 20.12152862548828 83.05390167236328 24.88085174560547 86.26291656494141 30.17951202392578 88.50406646728516 C 35.66377639770508 90.82369995117188 41.4912223815918 91.99985504150391 47.50000762939453 91.99985504150391 C 53.50879287719727 91.99985504150391 59.33623886108398 90.82369995117188 64.82049560546875 88.50406646728516 C 70.11916351318359 86.26291656494141 74.87848663330078 83.05390167236328 78.96625518798828 78.96613311767578 C 83.05403900146484 74.87836456298828 86.26305389404297 70.11905670166016 88.50421142578125 64.82038879394531 C 90.8238525390625 59.33614730834961 92.00000762939453 53.50870132446289 92.00000762939453 47.49993133544922 C 92.00000762939453 41.49116134643555 90.8238525390625 35.66371536254883 88.50421142578125 30.17946624755859 C 86.26305389404297 24.88080596923828 83.05402374267578 20.12149810791016 78.96625518798828 16.03372955322266 C 74.87848663330078 11.94596099853516 70.11916351318359 8.736930847167969 64.82049560546875 6.495796203613281 C 59.33623886108398 4.1761474609375 53.50879287719727 2.999992370605469 47.50000762939453 2.999992370605469 M 47.50000762939453 -7.62939453125e-06 C 73.73352813720703 -7.62939453125e-06 95.00000762939453 21.26645660400391 95.00000762939453 47.49993133544922 C 95.00000762939453 73.73342132568359 73.73352813720703 94.99985504150391 47.50000762939453 94.99985504150391 C 21.26648712158203 94.99985504150391 7.62939453125e-06 73.73342132568359 7.62939453125e-06 47.49993133544922 C 7.62939453125e-06 21.26645660400391 21.26648712158203 -7.62939453125e-06 47.50000762939453 -7.62939453125e-06 Z" stroke="none" fill="#2777df"/>
                                        </g>
                                      </g>
                                    </g>
                                  </g>
                                </g>
                              </g>
                            </g>
                          </g>
                        </g>
                      </g>
                    </g>
                  </g>
                </g>
              </g>
            </g>
          </g>
        </g>
      </g>
    </g>
    <g id="think-question_14781837_1_" data-name="think-question_14781837 (1)" transform="translate(220.901 1538.701)">
      <g id="Grupo_1177845" data-name="Grupo 1177845" transform="translate(7.5 7.547)">
        <path id="Trazado_1037499" data-name="Trazado 1037499" d="M56.1,401.724s-1.61,2.672-2.318,3.966L42.554,410H18.33l-4.34-2.808v-5.67a49.621,49.621,0,0,1,6.821-2.148l2.916-.757,3.236-.761,14.29,1.4,2.89-1.26c.973.253,3.8.94,4.768,1.193C51.355,399.83,54,400.252,56.1,401.724Z" transform="translate(-13.251 -353.45)" fill="#8ac9fe"/>
        <path id="Trazado_1037500" data-name="Trazado 1037500" d="M12.579,436.785v1.744H7.842a.341.341,0,0,1-.342-.342v-7.439a.342.342,0,0,1,.133-.271c.082-.064.164-.125.228-.172.124-.089.251-.174.378-.255l.257.129A7.387,7.387,0,0,1,12.579,436.785Z" transform="translate(-7.5 -381.976)" fill="#60b7ff"/>
        <path id="Trazado_1037501" data-name="Trazado 1037501" d="M358.678,439.4v.343a.342.342,0,0,1-.342.342H350.51v-4.91a7.372,7.372,0,0,1,3.173-3.059l.616-.309.079.055.126.092A9.223,9.223,0,0,1,358.678,439.4Z" transform="translate(-311.448 -383.536)" fill="#60b7ff"/>
        <path id="Trazado_1037502" data-name="Trazado 1037502" d="M96.675,20.515C94.305,25,91.919,29.2,86.5,29.465l-16.758.049V20.832a10.912,10.912,0,0,1,1.7-5.864,15.45,15.45,0,0,1,5.447-5.184A14.51,14.51,0,0,1,84,7.91h.6a14.446,14.446,0,0,1,5.974,1.3C95.306,12.822,97.93,18.138,96.675,20.515Z" transform="translate(-62.652 -7.91)" fill="#73788c"/>
        <path id="Trazado_1037503" data-name="Trazado 1037503" d="M229.248,30.925v8.6l-12.358.035A15.516,15.516,0,0,0,220.964,19.3a15.337,15.337,0,0,1,6.589,5.761,10.738,10.738,0,0,1,1.263,2.8A11.035,11.035,0,0,1,229.248,30.925Z" transform="translate(-193.045 -18.003)" fill="#5e6577"/>
        <path id="Trazado_1037504" data-name="Trazado 1037504" d="M76.15,195.861a6.325,6.325,0,0,0,4.819-6.142h0a2.515,2.515,0,0,0-2.515-2.515H49.092a2.515,2.515,0,0,0-2.515,2.515h0a6.325,6.325,0,0,0,4.819,6.142Z" transform="translate(-42.127 -166.786)" fill="#ffb09e"/>
        <path id="Trazado_1037505" data-name="Trazado 1037505" d="M107.685,126.265a2.44,2.44,0,0,1,3.347,1.417l1.073,4.181a1.657,1.657,0,0,0,1.54,1.132v9.356a7.8,7.8,0,0,1-2.666,5.875l-4.847,4.242a5.2,5.2,0,0,1-3.426,1.287H99.83a5.2,5.2,0,0,1-3.426-1.287l-4.847-4.242a7.8,7.8,0,0,1-2.666-5.875v-9.356a1.657,1.657,0,0,0,1.54-1.132L91.5,127.7a2.44,2.44,0,0,1,3.361-1.41l.156.075,1.256.481a13.907,13.907,0,0,0,9.95,0l1.256-.481Z" transform="translate(-79.622 -112.58)" fill="#ffcebf"/>
        <g id="Grupo_1177842" data-name="Grupo 1177842" transform="translate(10.45 33.799)">
          <path id="Trazado_1037506" data-name="Trazado 1037506" d="M120.079,318.553l-.421.519-4.585,5.658-1.64-1.039a7.682,7.682,0,0,0-3.823-1.2,6.317,6.317,0,0,1-3.128-.977l-4.058-2.577a1.434,1.434,0,0,1-.667-1.213c0-.016,0-.031,0-.047,0,0,.2-.415.307-.609a5.442,5.442,0,0,1,.721-.434c.2.11.752-.4,1.192-.123l-.922-.585a1.484,1.484,0,0,1-.667-1.243c0-.015,0,.014,0,0,.044-.237.612-.331.714-.527.019-.039-.032-.051.17-.15,0,0,.894-.786,1.335-.506l-.589-.375a1.435,1.435,0,0,1-.668-1.215c0-.016,0-.031,0-.047.007-.207.317-.333.418-.527a1.813,1.813,0,0,1,.483-.426s.877-.491,1.319-.21l-5.639-3.582a1.433,1.433,0,0,1-.508-1.871c.568-.51.93-.638,1.168-.486l9.079,6.006c2.718,1.456,3.865.362,3.867.353.019-.093.324-.606.345-.695a1.713,1.713,0,0,0,.184-.482.178.178,0,0,0,.006-.026c.054-.256.109-.492.169-.712a7.21,7.21,0,0,1,1.242-2.558,3.17,3.17,0,0,1,.565-.624,2.155,2.155,0,0,1,.592-.327,4.3,4.3,0,0,1,1.317.09c.068.043-.854,3.323-.8,3.872,0,0,.156,4.356.183,4.68a3.326,3.326,0,0,0,1.828,2.879Z" transform="translate(-99.264 -304.7)" fill="#ffb09e"/>
        </g>
        <path id="Trazado_1037507" data-name="Trazado 1037507" d="M251.079,430.146H235.771a.1.1,0,0,1-.057-.018l-3.673-2.724a.1.1,0,0,1-.024-.126l4.22-6.687h1.548l13.161,8.662Z" transform="translate(-206.437 -373.594)" fill="#60b7ff"/>
        <path id="Trazado_1037508" data-name="Trazado 1037508" d="M286.295,421.213h-2.264l-14.841-9.556.7-1.1a.1.1,0,0,1,.132-.03l16.329,10.515A.1.1,0,0,1,286.295,421.213Z" transform="translate(-239.389 -364.661)" fill="#26a6fe"/>
        <path id="Trazado_1037509" data-name="Trazado 1037509" d="M223.053,405.511l-4.906,6.579a1,1,0,0,1-1.4.2l-1.7-1.261a1,1,0,0,1-.206-1.392l4.87-6.529c.635-.517,1.361-1.362,1.685-1.122l1.827,1.353C223.527,403.569,223.639,404.544,223.053,405.511Z" transform="translate(-191.057 -357.076)" fill="#eaf6ff"/>
        <path id="Trazado_1037510" data-name="Trazado 1037510" d="M263.406,400.041l-.937,1.256a1.091,1.091,0,0,0-.449-.9l-1.827-1.353a1.088,1.088,0,0,0-1.065-.141l.974-1.305a1,1,0,0,1,1.4-.2l1.7,1.259A1,1,0,0,1,263.406,400.041Z" transform="translate(-230.473 -352.863)" fill="#d8ecfe"/>
        <g id="Grupo_1177844" data-name="Grupo 1177844" transform="translate(30.618 0.181)">
          <g id="Grupo_1177843" data-name="Grupo 1177843">
            <path id="Trazado_1037511" data-name="Trazado 1037511" d="M297.171,12.143c-.1-.011-.207-.019-.312-.023a.353.353,0,0,1-.274-.148c-.1-.143-.21-.282-.325-.416a5.892,5.892,0,0,0-6.893-1.537.35.35,0,0,1-.311-.011,4.3,4.3,0,0,0-6.12,2.467.337.337,0,0,1-.32.236,5.252,5.252,0,0,0-4.684,7.657.345.345,0,0,1-.105.445,3.353,3.353,0,0,0-.344,5.275.343.343,0,0,1,.1.319,4.849,4.849,0,0,0,.1,2.15c2.274,2.95,6.844,3.712,9.432,3.712,7.4,0,12.08-3.826,12.08-11.229C299.195,19.265,299.195,14.486,297.171,12.143Z" transform="translate(-276.36 -9.5)" fill="#eaf6ff"/>
            <path id="Trazado_1037512" data-name="Trazado 1037512" d="M312.022,43.778a.335.335,0,0,0-.019.348,5.244,5.244,0,0,1-2.121,7.119c-.044.024-.121.062-.194.1a.336.336,0,0,0-.189.27,4.624,4.624,0,0,1-.164.876,0,0,0,0,0,0,0,4.6,4.6,0,0,1-6.451,2.825.337.337,0,0,0-.383.061,5.554,5.554,0,0,1-9.177-2.405.338.338,0,0,0-.342-.242,4.929,4.929,0,0,1-5-3.608,13.408,13.408,0,0,0,19.487-16.414,4.728,4.728,0,0,1,4,6.184.337.337,0,0,0,.088.347,3.535,3.535,0,0,1,.462,4.537Z" transform="translate(-286.658 -30.068)" fill="#d8ecfe"/>
            <path id="Trazado_1037513" data-name="Trazado 1037513" d="M339.448,62.51c-1.182,9.442-6.131,9.312-10.455,9.312a7.99,7.99,0,1,1,10.455-9.312Z" transform="translate(-318.238 -50.97)" fill="#73788c"/>
            <path id="Trazado_1037514" data-name="Trazado 1037514" d="M381.453,112.6a8.022,8.022,0,0,1-10.654,7.539,13.419,13.419,0,0,0,10.455-9.312A7.981,7.981,0,0,1,381.453,112.6Z" transform="translate(-360.045 -99.29)" fill="#5e6577"/>
          </g>
          <path id="Trazado_1037515" data-name="Trazado 1037515" d="M427.058,272.614c0,1.269-1.522,1.828-2.794,1.828-.6,0-1.071-.6-1.49-1.21a2.379,2.379,0,0,1-.055-.512,2.463,2.463,0,0,1,3.72-2.107A3.121,3.121,0,0,1,427.058,272.614Z" transform="translate(-406.052 -240.572)" fill="#eaf6ff"/>
          <path id="Trazado_1037516" data-name="Trazado 1037516" d="M428.07,275.406a2.463,2.463,0,0,1-4.87.512,2.306,2.306,0,0,0,3.863-1.691,2.275,2.275,0,0,0-.2-.928A2.446,2.446,0,0,1,428.07,275.406Z" transform="translate(-406.478 -243.257)" fill="#d8ecfe"/>
          <path id="Trazado_1037517" data-name="Trazado 1037517" d="M401.257,335.381a1.633,1.633,0,0,1-1.75,1.459c-.464,0-.836-.235-1.322-1.031a1.79,1.79,0,0,1,2.558-1.84A1.979,1.979,0,0,1,401.257,335.381Z" transform="translate(-384.298 -296.859)" fill="#eaf6ff"/>
          <path id="Trazado_1037518" data-name="Trazado 1037518" d="M401.872,336.972a1.789,1.789,0,0,1-3.562.237,1.589,1.589,0,0,0,2.759-1.068,1.566,1.566,0,0,0-.2-.772A1.782,1.782,0,0,1,401.872,336.972Z" transform="translate(-384.422 -298.259)" fill="#d8ecfe"/>
        </g>
      </g>
      <g id="Grupo_1177852" data-name="Grupo 1177852" transform="translate(7.5 7.5)">
        <path id="Trazado_1037519" data-name="Trazado 1037519" d="M214.69,8.741a14.858,14.858,0,0,1,9.24,4.781" transform="translate(-191.095 -8.6)" fill="none" stroke="#000" stroke-linecap="round" stroke-linejoin="round" stroke-miterlimit="10" stroke-width="1.5"/>
        <path id="Trazado_1037520" data-name="Trazado 1037520" d="M69.741,22.146v-.5a10.919,10.919,0,0,1,1.7-5.863h0A15.046,15.046,0,0,1,82.261,8.834" transform="translate(-62.653 -8.682)" fill="none" stroke="#000" stroke-linecap="round" stroke-linejoin="round" stroke-miterlimit="10" stroke-width="1.5"/>
        <line id="Línea_827" data-name="Línea 827" y1="2.934" transform="translate(7.088 17.449)" fill="none" stroke="#000" stroke-linecap="round" stroke-linejoin="round" stroke-miterlimit="10" stroke-width="1.5"/>
        <path id="Trazado_1037521" data-name="Trazado 1037521" d="M51.4,195.861a6.325,6.325,0,0,1-4.819-6.142h0a2.515,2.515,0,0,1,2.515-2.515h2.3" transform="translate(-42.127 -166.739)" fill="none" stroke="#000" stroke-linecap="round" stroke-linejoin="round" stroke-miterlimit="10" stroke-width="1.5"/>
        <path id="Trazado_1037522" data-name="Trazado 1037522" d="M310.661,229.131a6.336,6.336,0,0,1-4.4,3.883" transform="translate(-272.235 -203.892)" fill="none" stroke="#000" stroke-linecap="round" stroke-linejoin="round" stroke-miterlimit="10" stroke-width="1.5"/>
        <path id="Trazado_1037523" data-name="Trazado 1037523" d="M90.32,146.854a7.806,7.806,0,0,1-1.429-4.5V133a1.657,1.657,0,0,0,1.54-1.132L91.5,127.7a2.44,2.44,0,0,1,3.361-1.41l.156.075,1.256.481a13.907,13.907,0,0,0,9.95,0l1.256-.481.208-.1a2.437,2.437,0,0,1,2.428.2" transform="translate(-79.622 -112.535)" fill="none" stroke="#000" stroke-linecap="round" stroke-linejoin="round" stroke-miterlimit="10" stroke-width="1.5"/>
        <path id="Trazado_1037524" data-name="Trazado 1037524" d="M266.617,201.93v7.675a7.8,7.8,0,0,1-2.666,5.875l-2.428,2.125" transform="translate(-232.595 -179.788)" fill="none" stroke="#000" stroke-linecap="round" stroke-linejoin="round" stroke-miterlimit="10" stroke-width="1.5"/>
        <g id="Grupo_1177847" data-name="Grupo 1177847" transform="translate(0 44.129)">
          <g id="Grupo_1177846" data-name="Grupo 1177846" transform="translate(0 0)">
            <path id="Trazado_1037525" data-name="Trazado 1037525" d="M93.711,396.1l.729-.19,3.075-.9" transform="translate(-83.893 -395.006)" fill="none" stroke="#000" stroke-linecap="round" stroke-linejoin="round" stroke-miterlimit="10" stroke-width="1.5"/>
            <path id="Trazado_1037526" data-name="Trazado 1037526" d="M7.5,415.675c.122-.1.262-.2.361-.275a15.675,15.675,0,0,1,5.589-2.171" transform="translate(-7.5 -411.153)" fill="none" stroke="#000" stroke-linecap="round" stroke-linejoin="round" stroke-miterlimit="10" stroke-width="1.5"/>
            <path id="Trazado_1037527" data-name="Trazado 1037527" d="M10.674,432.294l.836.418a6.437,6.437,0,0,1,3.558,5.757v2.048" transform="translate(-10.313 -428.048)" fill="none" stroke="#000" stroke-linecap="round" stroke-linejoin="round" stroke-miterlimit="10" stroke-width="1.5"/>
          </g>
        </g>
        <ellipse id="Elipse_12522" data-name="Elipse 12522" cx="2.462" cy="2.465" rx="2.462" ry="2.465" transform="translate(47.285 29.865)" fill="none" stroke="#000" stroke-linecap="round" stroke-linejoin="round" stroke-miterlimit="10" stroke-width="1.5"/>
        <ellipse id="Elipse_12523" data-name="Elipse 12523" cx="1.789" cy="1.791" rx="1.789" ry="1.791" transform="translate(44.49 37.136)" fill="none" stroke="#000" stroke-linecap="round" stroke-linejoin="round" stroke-miterlimit="10" stroke-width="1.5"/>
        <path id="Trazado_1037528" data-name="Trazado 1037528" d="M301.6,21.447a3.564,3.564,0,0,0-.5-4.874,4.745,4.745,0,0,0-4.418-6.443,5.57,5.57,0,0,0-.424-.563,5.871,5.871,0,0,0-7.051-1.47h0a4.291,4.291,0,0,0-6.342,2.636,5.28,5.28,0,0,0-4.777,7.973,3.38,3.38,0,0,0-.463,5.587,4.921,4.921,0,0,0,5.327,5.962,5.542,5.542,0,0,0,9.418,2.509,4.594,4.594,0,0,0,6.663-2.727,0,0,0,0,1,0,0,4.633,4.633,0,0,0,.176-1.067l.078-.035a5.284,5.284,0,0,0,2.31-7.485Z" transform="translate(-245.742 -7.5)" fill="none" stroke="#000" stroke-linecap="round" stroke-linejoin="round" stroke-miterlimit="10" stroke-width="1.5"/>
        <g id="Grupo_1177849" data-name="Grupo 1177849" transform="translate(35.979 5.356)">
          <path id="Trazado_1037529" data-name="Trazado 1037529" d="M338.924,59.612a8.028,8.028,0,1,1-2.363-3.249" transform="translate(-323.437 -54.531)" fill="none" stroke="#000" stroke-linecap="round" stroke-linejoin="round" stroke-miterlimit="10" stroke-width="1.5"/>
          <g id="Grupo_1177848" data-name="Grupo 1177848" transform="translate(5.892 3.864)">
            <path id="Trazado_1037530" data-name="Trazado 1037530" d="M375.179,90.593a2.129,2.129,0,1,1,2.129,2.129v1.772" transform="translate(-375.179 -88.463)" fill="none" stroke="#000" stroke-linecap="round" stroke-linejoin="round" stroke-miterlimit="10" stroke-width="1.5"/>
            <line id="Línea_828" data-name="Línea 828" transform="translate(2.129 8.548)" fill="none" stroke="#000" stroke-linecap="round" stroke-linejoin="round" stroke-miterlimit="10" stroke-width="1.5"/>
          </g>
        </g>
        <g id="Grupo_1177850" data-name="Grupo 1177850" transform="translate(14.509 18.861)">
          <path id="Trazado_1037531" data-name="Trazado 1037531" d="M191.091,269.751a2.683,2.683,0,0,1-2.436,0" transform="translate(-182.534 -258.746)" fill="none" stroke="#000" stroke-linecap="round" stroke-linejoin="round" stroke-miterlimit="10" stroke-width="1.5"/>
          <line id="Línea_829" data-name="Línea 829" x1="4.65" transform="translate(5.015 15.636)" fill="none" stroke="#000" stroke-linecap="round" stroke-linejoin="round" stroke-miterlimit="10" stroke-width="1.5"/>
          <path id="Trazado_1037532" data-name="Trazado 1037532" d="M139.36,173.688a4.629,4.629,0,0,0-4.456,0" transform="translate(-134.904 -173.116)" fill="none" stroke="#000" stroke-linecap="round" stroke-linejoin="round" stroke-miterlimit="10" stroke-width="1.5"/>
          <path id="Trazado_1037533" data-name="Trazado 1037533" d="M224.673,186.724a4.629,4.629,0,0,0,4.456,0" transform="translate(-214.45 -185.174)" fill="none" stroke="#000" stroke-linecap="round" stroke-linejoin="round" stroke-miterlimit="10" stroke-width="1.5"/>
          <line id="Línea_830" data-name="Línea 830" y1="1.977" transform="translate(12.451 5.186)" fill="none" stroke="#000" stroke-linecap="round" stroke-linejoin="round" stroke-miterlimit="10" stroke-width="1.5"/>
          <line id="Línea_831" data-name="Línea 831" y1="1.977" transform="translate(2.228 5.186)" fill="none" stroke="#000" stroke-linecap="round" stroke-linejoin="round" stroke-miterlimit="10" stroke-width="1.5"/>
        </g>
        <path id="Trazado_1037534" data-name="Trazado 1037534" d="M290.364,403.728l14.284,9.2v-.685a9.266,9.266,0,0,0-4.3-7.538c-2.115-1.516-4.795-1.941-7.269-2.584-.729-.189-2.361-.641-3.542-.962" transform="translate(-257.419 -356.326)" fill="none" stroke="#000" stroke-linecap="round" stroke-linejoin="round" stroke-miterlimit="10" stroke-width="1.5"/>
        <line id="Línea_832" data-name="Línea 832" x1="2.043" y1="1.501" transform="translate(27.295 55.098)" fill="none" stroke="#000" stroke-linecap="round" stroke-linejoin="round" stroke-miterlimit="10" stroke-width="1.5"/>
        <g id="Grupo_1177851" data-name="Grupo 1177851" transform="translate(39.325 48.378)">
          <path id="Trazado_1037535" data-name="Trazado 1037535" d="M356.421,432.314l-.831.416a6.433,6.433,0,0,0-2.769,2.669" transform="translate(-352.821 -432.314)" fill="none" stroke="#000" stroke-linecap="round" stroke-linejoin="round" stroke-miterlimit="10" stroke-width="1.5"/>
        </g>
        <path id="Trazado_1037536" data-name="Trazado 1037536" d="M118.761,314.22a4.61,4.61,0,0,1-.356-2.457,8.769,8.769,0,0,0-.008-2.052l-.169-1.889a2.858,2.858,0,0,1,.319-1.592l.562-1.064a.574.574,0,0,0-.053-.617.669.669,0,0,0-.176-.152,1.907,1.907,0,0,0-2.216.161,3.193,3.193,0,0,0-.565.628,7.565,7.565,0,0,0-1.41,3.285l-.006.027a1.73,1.73,0,0,1-2.621,1.08l-9.962-6.357a1.443,1.443,0,0,0-1.994.443h0a1.447,1.447,0,0,0,.441,2l8.056,5.14-2.417-1.542a1.443,1.443,0,0,0-1.994.443h0a1.447,1.447,0,0,0,.441,2l.59.376,1.827,1.166-1.827-1.166a1.443,1.443,0,0,0-1.993.443h0a1.447,1.447,0,0,0,.441,2l.922.588,1.237.789-1.237-.789a1.443,1.443,0,0,0-1.994.443h0a1.447,1.447,0,0,0,.44,2l4.057,2.589a6.285,6.285,0,0,0,3.128.982h0a7.646,7.646,0,0,1,2.934.715" transform="translate(-89.359 -269.344)" fill="none" stroke="#000" stroke-linecap="round" stroke-linejoin="round" stroke-miterlimit="10" stroke-width="1.5"/>
        <path id="Trazado_1037537" data-name="Trazado 1037537" d="M223.017,397.361l-6.249,8.421a1,1,0,0,1-1.391.205l-1.707-1.27a1,1,0,0,1-.205-1.394l6.249-8.421a1,1,0,0,1,1.391-.205l1.707,1.27A1,1,0,0,1,223.017,397.361Z" transform="translate(-189.835 -350.429)" fill="none" stroke="#000" stroke-linecap="round" stroke-linejoin="round" stroke-miterlimit="10" stroke-width="1.5"/>
      </g>
    </g>
  </g>
</svg>
