<svg xmlns="http://www.w3.org/2000/svg" xmlns:xlink="http://www.w3.org/1999/xlink" width="113" height="113" viewBox="0 0 113 113">
  <defs>
    <filter id="Trazado_982547" x="0" y="0" width="113" height="113" filterUnits="userSpaceOnUse">
      <feOffset dy="3" input="SourceAlpha"/>
      <feGaussianBlur stdDeviation="3" result="blur"/>
      <feFlood flood-opacity="0.161"/>
      <feComposite operator="in" in2="blur"/>
      <feComposite in="SourceGraphic"/>
    </filter>
  </defs>
  <g id="Grupo_1177885" data-name="Grupo 1177885" transform="translate(-902 -2824.702)">
    <g id="Grupo_1177757" data-name="Grupo 1177757" transform="translate(911 2830.702)">
      <g id="Grupo_1173868" data-name="Grupo 1173868">
        <g id="Grupo_1172010" data-name="Grupo 1172010">
          <g id="Grupo_1171046" data-name="Grupo 1171046">
            <g id="Grupo_1148525" data-name="Grupo 1148525">
              <g transform="matrix(1, 0, 0, 1, -9, -6)" filter="url(#Trazado_982547)">
                <g id="Trazado_982547-2" data-name="Trazado 982547" transform="translate(9 6)" fill="#fbecfd">
                  <path d="M 47.5 93.5 C 41.28937149047852 93.5 35.26533508300781 92.28397369384766 29.59518623352051 89.88570404052734 C 24.11771965026855 87.56893157958984 19.19813346862793 84.25196075439453 14.97309303283691 80.02691650390625 C 10.74804019927979 75.80186462402344 7.431066513061523 70.88229370117188 5.114293098449707 65.40481567382812 C 2.716026782989502 59.73468017578125 1.5 53.71062850952148 1.5 47.5 C 1.5 41.28937149047852 2.716026782989502 35.26533508300781 5.114293098449707 29.59518623352051 C 7.431066513061523 24.11771965026855 10.74804019927979 19.19813346862793 14.97309303283691 14.97309303283691 C 19.19813346862793 10.74804019927979 24.11771965026855 7.431066513061523 29.59518623352051 5.114293098449707 C 35.26533508300781 2.716026782989502 41.28937149047852 1.5 47.5 1.5 C 53.71062850952148 1.5 59.73468017578125 2.716026782989502 65.40481567382812 5.114293098449707 C 70.88229370117188 7.431066513061523 75.80186462402344 10.74804019927979 80.02691650390625 14.97309303283691 C 84.25196075439453 19.19813346862793 87.56893157958984 24.11771965026855 89.88570404052734 29.59518623352051 C 92.28397369384766 35.26533508300781 93.5 41.28937149047852 93.5 47.5 C 93.5 53.71062850952148 92.28397369384766 59.73468017578125 89.88570404052734 65.40481567382812 C 87.56893157958984 70.88229370117188 84.25196075439453 75.80186462402344 80.02691650390625 80.02691650390625 C 75.80186462402344 84.25196075439453 70.88229370117188 87.56893157958984 65.40481567382812 89.88570404052734 C 59.73468017578125 92.28397369384766 53.71062850952148 93.5 47.5 93.5 Z" stroke="none"/>
                  <path d="M 47.5 3 C 41.49121475219727 3 35.66376876831055 4.176155090332031 30.17950439453125 6.495796203613281 C 24.88084411621094 8.736953735351562 20.12152099609375 11.94598388671875 16.03375244140625 16.03375244140625 C 11.94598388671875 20.12152099609375 8.736953735351562 24.88084411621094 6.495796203613281 30.17950439453125 C 4.176155090332031 35.66376876831055 3 41.49121475219727 3 47.5 C 3 53.50878524780273 4.176155090332031 59.33623123168945 6.495796203613281 64.82049560546875 C 8.736953735351562 70.11915588378906 11.94598388671875 74.87847900390625 16.03375244140625 78.96624755859375 C 20.12152099609375 83.05401611328125 24.88084411621094 86.26304626464844 30.17950439453125 88.50419616699219 C 35.66376876831055 90.82384490966797 41.49121475219727 92 47.5 92 C 53.50878524780273 92 59.33623123168945 90.82384490966797 64.82049560546875 88.50419616699219 C 70.11915588378906 86.26304626464844 74.87847900390625 83.05401611328125 78.96624755859375 78.96624755859375 C 83.05401611328125 74.87847900390625 86.26304626464844 70.11915588378906 88.50419616699219 64.82049560546875 C 90.82384490966797 59.33623123168945 92 53.50878524780273 92 47.5 C 92 41.49121475219727 90.82384490966797 35.66376876831055 88.50419616699219 30.17950439453125 C 86.26304626464844 24.88084411621094 83.05401611328125 20.12152099609375 78.96624755859375 16.03375244140625 C 74.87847900390625 11.94598388671875 70.11915588378906 8.736953735351562 64.82049560546875 6.495796203613281 C 59.33623123168945 4.176155090332031 53.50878524780273 3 47.5 3 M 47.5 0 C 73.7335205078125 0 95 21.2664794921875 95 47.5 C 95 73.7335205078125 73.7335205078125 95 47.5 95 C 21.2664794921875 95 0 73.7335205078125 0 47.5 C 0 21.2664794921875 21.2664794921875 0 47.5 0 Z" stroke="none" fill="#da53f2"/>
                </g>
              </g>
            </g>
          </g>
        </g>
      </g>
    </g>
    <g id="Layer_x0020_1" transform="translate(888.011 2850.534)">
      <path id="Trazado_1037701" data-name="Trazado 1037701" d="M71.922,15.986H69.056a.648.648,0,0,1-.648-.648V13.365H66.893V18.8h7.191V13.365H72.57v1.972A.648.648,0,0,1,71.922,15.986ZM89.1,55.335H51.879a3.874,3.874,0,0,1-3.869-3.869V3.869A3.874,3.874,0,0,1,51.879,0H89.1a3.874,3.874,0,0,1,3.869,3.869v47.6A3.874,3.874,0,0,1,89.1,55.335ZM51.879,1.3a2.576,2.576,0,0,0-2.572,2.572v47.6a2.576,2.576,0,0,0,2.572,2.572H89.1a2.576,2.576,0,0,0,2.572-2.572V3.869A2.576,2.576,0,0,0,89.1,1.3H51.879ZM87.493,31.651H66.825a.648.648,0,0,1,0-1.3H87.493a.648.648,0,0,1,0,1.3Zm0,6.114H66.825a.648.648,0,0,1,0-1.3H87.493a.648.648,0,0,1,0,1.3Zm0,6.113H66.825a.648.648,0,0,1,0-1.3H87.493a.648.648,0,0,1,0,1.3Zm0,6.114H66.825a.648.648,0,0,1,0-1.3H87.493a.648.648,0,0,1,0,1.3ZM55.7,33.518a.645.645,0,0,1-.458-.19l-2.214-2.214a.648.648,0,1,1,.918-.916L55.7,31.952l3.274-3.274a.648.648,0,0,1,.918.916l-3.733,3.733A.645.645,0,0,1,55.7,33.518Zm0,6.113a.646.646,0,0,1-.458-.189l-2.214-2.214a.649.649,0,0,1,.918-.918L55.7,38.066l3.274-3.274a.648.648,0,0,1,.918.916l-3.733,3.733A.645.645,0,0,1,55.7,39.631Zm.022,6.114a.644.644,0,0,1-.459-.19l-2.213-2.213a.648.648,0,0,1,.916-.918L55.72,44.18,58.995,40.9a.648.648,0,0,1,.916.918L56.18,45.554a.643.643,0,0,1-.458.19Zm0,6.114a.648.648,0,0,1-.459-.19l-2.213-2.214a.648.648,0,0,1,.916-.916l1.755,1.755,3.275-3.274a.648.648,0,1,1,.916.918L56.18,51.668a.647.647,0,0,1-.458.19Zm15.72-21.934h-1.9a1.312,1.312,0,0,1-1.292-1.242l-.2-2.519a10.234,10.234,0,0,1-2.952-1.223l-1.925,1.64a1.385,1.385,0,0,1-.895.335,1.26,1.26,0,0,1-.9-.371L60.029,25.2a1.311,1.311,0,0,1-.036-1.791l1.64-1.926A10.241,10.241,0,0,1,60.41,18.53l-2.52-.2a1.312,1.312,0,0,1-1.241-1.292v-1.9A1.311,1.311,0,0,1,57.89,13.84l2.518-.2a10.252,10.252,0,0,1,1.223-2.952L59.994,8.762a1.313,1.313,0,0,1,.036-1.792l1.346-1.347a1.259,1.259,0,0,1,.9-.37,1.385,1.385,0,0,1,.895.335l1.925,1.638A10.234,10.234,0,0,1,68.043,6l.2-2.518a1.311,1.311,0,0,1,1.292-1.242h1.9a1.312,1.312,0,0,1,1.292,1.242L72.935,6a10.246,10.246,0,0,1,2.95,1.223l1.926-1.638a1.382,1.382,0,0,1,.894-.335,1.26,1.26,0,0,1,.9.371L80.949,6.97a1.314,1.314,0,0,1,.035,1.792l-1.638,1.926a10.252,10.252,0,0,1,1.223,2.949l2.519.2a1.312,1.312,0,0,1,1.242,1.292v1.9a1.313,1.313,0,0,1-1.242,1.292l-2.519.2a10.216,10.216,0,0,1-1.223,2.951l1.638,1.926a1.312,1.312,0,0,1-.035,1.791L79.6,26.544a1.26,1.26,0,0,1-.9.371,1.382,1.382,0,0,1-.894-.335l-1.926-1.64a10.271,10.271,0,0,1-2.95,1.223l-.2,2.519A1.313,1.313,0,0,1,71.441,29.924Zm-1.889-1.3h1.873a.111.111,0,0,0,.015-.049l.241-3a.649.649,0,0,1,.524-.586,8.966,8.966,0,0,0,3.37-1.4.65.65,0,0,1,.785.042l2.292,1.952a.1.1,0,0,0,.044.024l1.325-1.324A.118.118,0,0,0,80,24.247l-1.951-2.292A.649.649,0,0,1,78,21.17a8.985,8.985,0,0,0,1.4-3.37.648.648,0,0,1,.585-.524l3-.241a.111.111,0,0,0,.049-.015V15.147a.113.113,0,0,0-.049-.014l-3-.241a.65.65,0,0,1-.586-.524A8.966,8.966,0,0,0,78,11a.649.649,0,0,1,.042-.785L80,7.921a.136.136,0,0,0,.025-.044L78.7,6.552a.118.118,0,0,0-.044.025L76.36,8.527a.65.65,0,0,1-.785.043,8.95,8.95,0,0,0-3.37-1.4.65.65,0,0,1-.525-.586l-.24-3a.111.111,0,0,0-.015-.049H69.552a.113.113,0,0,0-.014.048l-.241,3a.65.65,0,0,1-.524.586,8.963,8.963,0,0,0-3.371,1.4.648.648,0,0,1-.785-.042L62.326,6.576a.118.118,0,0,0-.044-.025L60.957,7.877a.136.136,0,0,0,.025.044l1.951,2.291a.648.648,0,0,1,.042.785,8.983,8.983,0,0,0-1.4,3.371.646.646,0,0,1-.585.524l-3,.241a.125.125,0,0,0-.049.014v1.874a.147.147,0,0,0,.049.014l3,.241a.648.648,0,0,1,.585.524,8.968,8.968,0,0,0,1.4,3.37.649.649,0,0,1-.043.785L60.98,24.247a.105.105,0,0,0-.024.044l1.325,1.324a.1.1,0,0,0,.044-.024l2.292-1.952A.648.648,0,0,1,65.4,23.6a8.99,8.99,0,0,0,3.371,1.4.648.648,0,0,1,.524.585l.241,3A.114.114,0,0,0,69.552,28.627Zm.937-4.4a8.147,8.147,0,1,1,8.147-8.147A8.157,8.157,0,0,1,70.489,24.231Zm0-15a6.85,6.85,0,1,0,6.85,6.85A6.857,6.857,0,0,0,70.489,9.234Zm-1.433,2.834h5.677a.649.649,0,0,1,.648.648v6.734a.648.648,0,0,1-.648.648H66.245a.648.648,0,0,1-.648-.648V12.716a.648.648,0,0,1,.648-.648Zm.648,2.621h1.569V13.365H69.7Z" fill-rule="evenodd"/>
      <path id="Trazado_1037702" data-name="Trazado 1037702" d="M70.732,17.673l1.346-1.347a1.259,1.259,0,0,1,.9-.37,1.385,1.385,0,0,1,.895.335l1.925,1.638a10.234,10.234,0,0,1,2.952-1.223l.2-2.518a1.311,1.311,0,0,1,1.292-1.242h1.9a1.312,1.312,0,0,1,1.292,1.242l.2,2.518a10.246,10.246,0,0,1,2.951,1.223l1.926-1.638a1.382,1.382,0,0,1,.894-.335,1.26,1.26,0,0,1,.9.371l1.347,1.346a1.314,1.314,0,0,1,.035,1.792l-1.638,1.926a10.252,10.252,0,0,1,1.223,2.949l2.519.2a1.312,1.312,0,0,1,1.242,1.292v1.9a1.313,1.313,0,0,1-1.242,1.292l-2.519.2a10.215,10.215,0,0,1-1.223,2.95l1.638,1.926a1.312,1.312,0,0,1-.035,1.791l-1.347,1.347a1.26,1.26,0,0,1-.9.371,1.382,1.382,0,0,1-.894-.335l-1.926-1.64a10.271,10.271,0,0,1-2.951,1.223l-.2,2.519a1.313,1.313,0,0,1-1.292,1.242h-1.9a1.312,1.312,0,0,1-1.292-1.242l-.2-2.519a10.234,10.234,0,0,1-2.952-1.223l-1.925,1.64a1.385,1.385,0,0,1-.895.335,1.26,1.26,0,0,1-.9-.371L70.732,35.9a1.311,1.311,0,0,1-.036-1.791l1.64-1.926a10.24,10.24,0,0,1-1.223-2.95l-2.52-.2a1.312,1.312,0,0,1-1.241-1.292v-1.9a1.311,1.311,0,0,1,1.242-1.292l2.518-.2a10.252,10.252,0,0,1,1.223-2.952L70.7,19.465a1.313,1.313,0,0,1,.036-1.792ZM76.88,41.706a.649.649,0,0,1,.648-.648H98.2a.648.648,0,0,1,0,1.3H77.528A.649.649,0,0,1,76.88,41.706Zm.648,5.465H98.2a.648.648,0,0,1,0,1.3H77.528a.648.648,0,0,1,0-1.3Zm0,6.113H98.2a.648.648,0,0,1,0,1.3H77.528a.648.648,0,0,1,0-1.3Zm0,6.114H98.2a.648.648,0,0,1,0,1.3H77.528a.648.648,0,0,1,0-1.3ZM62.582,64.742H99.8a2.576,2.576,0,0,0,2.572-2.572v-47.6A2.576,2.576,0,0,0,99.8,12H62.582a2.576,2.576,0,0,0-2.572,2.572v47.6A2.576,2.576,0,0,0,62.582,64.742ZM66.4,42.655l3.274-3.274a.648.648,0,0,1,.918.916l-3.733,3.733a.647.647,0,0,1-.917,0L63.73,41.816a.648.648,0,1,1,.918-.916Zm-1.755,4.358L66.4,48.769,69.676,45.5a.648.648,0,1,1,.918.916l-3.733,3.733a.65.65,0,0,1-.917,0L63.73,47.93a.649.649,0,0,1,.918-.918Zm.021,6.114,1.755,1.756L69.7,51.608a.648.648,0,0,1,.916.918l-3.732,3.732a.648.648,0,0,1-.918,0l-2.213-2.213a.648.648,0,1,1,.916-.918Zm0,6.114L66.423,61,69.7,57.722a.648.648,0,1,1,.916.918l-3.732,3.732a.648.648,0,0,1-.918,0l-2.213-2.214a.648.648,0,1,1,.916-.916Z" transform="translate(-10.703 -10.703)" fill="#eaeaea" fill-rule="evenodd"/>
      <path id="Trazado_1037703" data-name="Trazado 1037703" d="M144.267,35.771,142.942,37.1a.136.136,0,0,0,.025.044l1.951,2.291a.648.648,0,0,1,.042.785,8.983,8.983,0,0,0-1.4,3.371.646.646,0,0,1-.585.524l-3,.241a.125.125,0,0,0-.049.014V46.24a.147.147,0,0,0,.049.014l3,.241a.648.648,0,0,1,.585.524,8.968,8.968,0,0,0,1.4,3.37.649.649,0,0,1-.043.785l-1.952,2.292a.1.1,0,0,0-.024.044l1.325,1.324a.1.1,0,0,0,.044-.024l2.292-1.952a.648.648,0,0,1,.784-.042,8.99,8.99,0,0,0,3.371,1.4.648.648,0,0,1,.524.585l.241,3a.114.114,0,0,0,.014.049h1.873a.111.111,0,0,0,.015-.049l.241-3a.649.649,0,0,1,.524-.586,8.966,8.966,0,0,0,3.37-1.4.649.649,0,0,1,.785.042l2.292,1.952a.1.1,0,0,0,.044.024l1.325-1.324a.117.117,0,0,0-.025-.044l-1.951-2.292a.649.649,0,0,1-.043-.785,8.985,8.985,0,0,0,1.4-3.37.648.648,0,0,1,.585-.524l3-.241a.111.111,0,0,0,.049-.015V44.366a.113.113,0,0,0-.049-.014l-3-.241a.65.65,0,0,1-.586-.524,8.966,8.966,0,0,0-1.4-3.37.649.649,0,0,1,.042-.785l1.952-2.292a.136.136,0,0,0,.025-.044l-1.325-1.325a.118.118,0,0,0-.044.025l-2.292,1.951a.649.649,0,0,1-.785.043,8.951,8.951,0,0,0-3.37-1.4.65.65,0,0,1-.525-.586l-.24-3a.111.111,0,0,0-.015-.049h-1.873a.113.113,0,0,0-.014.048l-.241,3a.65.65,0,0,1-.524.586,8.964,8.964,0,0,0-3.371,1.4.648.648,0,0,1-.785-.042L144.311,35.8a.118.118,0,0,0-.044-.025Zm.061,9.532a8.147,8.147,0,1,1,8.147,8.147A8.156,8.156,0,0,1,144.328,45.3Z" transform="translate(-81.986 -29.219)" fill="#d3d3d3" fill-rule="evenodd"/>
      <path id="Trazado_1037704" data-name="Trazado 1037704" d="M248.74,123.66v1.324h1.569V123.66Z" transform="translate(-179.036 -110.295)" fill="#e82b47" fill-rule="evenodd"/>
      <path id="Trazado_1037705" data-name="Trazado 1037705" d="M198.037,88.274h5.677a.649.649,0,0,1,.648.648v6.734a.648.648,0,0,1-.648.648h-8.488a.648.648,0,0,1-.648-.648V88.922a.648.648,0,0,1,.648-.648Zm1.433-2.834a6.85,6.85,0,1,0,6.85,6.85A6.857,6.857,0,0,0,199.47,85.44Z" transform="translate(-128.981 -76.206)" fill="#eaeaea" fill-rule="evenodd"/>
      <path id="Trazado_1037706" data-name="Trazado 1037706" d="M228.407,125.632a.648.648,0,0,1-.648.648h-2.866a.648.648,0,0,1-.648-.648V123.66H222.73V129.1h7.191V123.66h-1.514Z" transform="translate(-155.837 -110.295)" fill="#faa940" fill-rule="evenodd"/>
    </g>
  </g>
</svg>
