<svg xmlns="http://www.w3.org/2000/svg" xmlns:xlink="http://www.w3.org/1999/xlink" width="113" height="113" viewBox="0 0 113 113">
  <defs>
    <filter id="Trazado_982547" x="0" y="0" width="113" height="113" filterUnits="userSpaceOnUse">
      <feOffset dy="3" input="SourceAlpha"/>
      <feGaussianBlur stdDeviation="3" result="blur"/>
      <feFlood flood-opacity="0.161"/>
      <feComposite operator="in" in2="blur"/>
      <feComposite in="SourceGraphic"/>
    </filter>
  </defs>
  <g id="Grupo_1177765" data-name="Grupo 1177765" transform="translate(-324 -3309.802)">
    <g id="Grupo_1177666" data-name="Grupo 1177666" transform="translate(0 1347.627)">
      <g id="Grupo_1173868" data-name="Grupo 1173868" transform="translate(333 1968.175)">
        <g id="Grupo_1172010" data-name="Grupo 1172010">
          <g id="Grupo_1171046" data-name="Grupo 1171046">
            <g id="Grupo_1148525" data-name="Grupo 1148525">
              <g transform="matrix(1, 0, 0, 1, -9, -6)" filter="url(#Trazado_982547)">
                <g id="Trazado_982547-2" data-name="Trazado 982547" transform="translate(9 6)" fill="#fbecfd">
                  <path d="M 47.5 93.5 C 41.28937149047852 93.5 35.26533508300781 92.28397369384766 29.59518623352051 89.88570404052734 C 24.11771965026855 87.56893157958984 19.19813346862793 84.25196075439453 14.97309303283691 80.02691650390625 C 10.74804019927979 75.80186462402344 7.431066513061523 70.88229370117188 5.114293098449707 65.40481567382812 C 2.716026782989502 59.73468017578125 1.5 53.71062850952148 1.5 47.5 C 1.5 41.28937149047852 2.716026782989502 35.26533508300781 5.114293098449707 29.59518623352051 C 7.431066513061523 24.11771965026855 10.74804019927979 19.19813346862793 14.97309303283691 14.97309303283691 C 19.19813346862793 10.74804019927979 24.11771965026855 7.431066513061523 29.59518623352051 5.114293098449707 C 35.26533508300781 2.716026782989502 41.28937149047852 1.5 47.5 1.5 C 53.71062850952148 1.5 59.73468017578125 2.716026782989502 65.40481567382812 5.114293098449707 C 70.88229370117188 7.431066513061523 75.80186462402344 10.74804019927979 80.02691650390625 14.97309303283691 C 84.25196075439453 19.19813346862793 87.56893157958984 24.11771965026855 89.88570404052734 29.59518623352051 C 92.28397369384766 35.26533508300781 93.5 41.28937149047852 93.5 47.5 C 93.5 53.71062850952148 92.28397369384766 59.73468017578125 89.88570404052734 65.40481567382812 C 87.56893157958984 70.88229370117188 84.25196075439453 75.80186462402344 80.02691650390625 80.02691650390625 C 75.80186462402344 84.25196075439453 70.88229370117188 87.56893157958984 65.40481567382812 89.88570404052734 C 59.73468017578125 92.28397369384766 53.71062850952148 93.5 47.5 93.5 Z" stroke="none"/>
                  <path d="M 47.5 3 C 41.49121475219727 3 35.66376876831055 4.176155090332031 30.17950439453125 6.495796203613281 C 24.88084411621094 8.736953735351562 20.12152099609375 11.94598388671875 16.03375244140625 16.03375244140625 C 11.94598388671875 20.12152099609375 8.736953735351562 24.88084411621094 6.495796203613281 30.17950439453125 C 4.176155090332031 35.66376876831055 3 41.49121475219727 3 47.5 C 3 53.50878524780273 4.176155090332031 59.33623123168945 6.495796203613281 64.82049560546875 C 8.736953735351562 70.11915588378906 11.94598388671875 74.87847900390625 16.03375244140625 78.96624755859375 C 20.12152099609375 83.05401611328125 24.88084411621094 86.26304626464844 30.17950439453125 88.50419616699219 C 35.66376876831055 90.82384490966797 41.49121475219727 92 47.5 92 C 53.50878524780273 92 59.33623123168945 90.82384490966797 64.82049560546875 88.50419616699219 C 70.11915588378906 86.26304626464844 74.87847900390625 83.05401611328125 78.96624755859375 78.96624755859375 C 83.05401611328125 74.87847900390625 86.26304626464844 70.11915588378906 88.50419616699219 64.82049560546875 C 90.82384490966797 59.33623123168945 92 53.50878524780273 92 47.5 C 92 41.49121475219727 90.82384490966797 35.66376876831055 88.50419616699219 30.17950439453125 C 86.26304626464844 24.88084411621094 83.05401611328125 20.12152099609375 78.96624755859375 16.03375244140625 C 74.87847900390625 11.94598388671875 70.11915588378906 8.736953735351562 64.82049560546875 6.495796203613281 C 59.33623123168945 4.176155090332031 53.50878524780273 3 47.5 3 M 47.5 0 C 73.7335205078125 0 95 21.2664794921875 95 47.5 C 95 73.7335205078125 73.7335205078125 95 47.5 95 C 21.2664794921875 95 0 73.7335205078125 0 47.5 C 0 21.2664794921875 21.2664794921875 0 47.5 0 Z" stroke="none" fill="#da53f2"/>
                </g>
              </g>
            </g>
          </g>
        </g>
      </g>
    </g>
    <g id="market_13365987" transform="translate(352.683 3333.052)">
      <g id="Grupo_1177764" data-name="Grupo 1177764" transform="translate(1.789 6.743)">
        <g id="Grupo_1177761" data-name="Grupo 1177761" transform="translate(0 0)">
          <path id="Trazado_1037278" data-name="Trazado 1037278" d="M8.5,14.687a1.232,1.232,0,1,1,2.464,0V56.466H52.742a1.232,1.232,0,1,1,0,2.464H9.731A1.232,1.232,0,0,1,8.5,57.7V14.687Z" transform="translate(-8.499 -13.455)" fill="#7a7785" fill-rule="evenodd"/>
          <path id="Trazado_1037279" data-name="Trazado 1037279" d="M62.013,237.04h4.336a.422.422,0,0,1,.421.421v14.516a.422.422,0,0,1-.421.421H62.013a.422.422,0,0,1-.421-.421V237.461A.422.422,0,0,1,62.013,237.04Z" transform="translate(-56.009 -213.527)" fill="#ff6372" fill-rule="evenodd"/>
          <path id="Trazado_1037280" data-name="Trazado 1037280" d="M141.607,168.156h4.336a.422.422,0,0,1,.421.421v21.761a.422.422,0,0,1-.421.421h-4.336a.422.422,0,0,1-.421-.421V168.577A.422.422,0,0,1,141.607,168.156Z" transform="translate(-127.232 -151.887)" fill="#ffb98d" fill-rule="evenodd"/>
          <path id="Trazado_1037281" data-name="Trazado 1037281" d="M221.2,207.632h4.336a.422.422,0,0,1,.421.421v17.609a.422.422,0,0,1-.421.421H221.2a.422.422,0,0,1-.421-.421V208.053A.422.422,0,0,1,221.2,207.632Z" transform="translate(-198.456 -187.211)" fill="#ffd54f" fill-rule="evenodd"/>
          <path id="Trazado_1037282" data-name="Trazado 1037282" d="M300.795,135.852h4.336a.422.422,0,0,1,.421.421v25.158a.422.422,0,0,1-.421.421h-4.336a.422.422,0,0,1-.421-.421V136.273A.422.422,0,0,1,300.795,135.852Z" transform="translate(-269.679 -122.98)" fill="#6ce75a" fill-rule="evenodd"/>
          <path id="Trazado_1037283" data-name="Trazado 1037283" d="M380.389,102.421h4.336a.422.422,0,0,1,.421.421v28.674a.422.422,0,0,1-.421.421h-4.336a.422.422,0,0,1-.421-.421V102.842A.422.422,0,0,1,380.389,102.421Z" transform="translate(-340.903 -93.065)" fill="#43a2ff" fill-rule="evenodd"/>
        </g>
        <g id="Grupo_1177762" data-name="Grupo 1177762" transform="translate(34.212 35.905)">
          <path id="Trazado_1037284" data-name="Trazado 1037284" d="M350.248,359.911a1.417,1.417,0,0,1,1.413,1.413v2.21a1.413,1.413,0,0,0,0,2.826v2.21a1.417,1.417,0,0,1-1.413,1.413H335.23a1.417,1.417,0,0,1-1.413-1.413v-2.21a1.413,1.413,0,1,0,0-2.826v-2.21a1.413,1.413,0,1,0,0-2.826v-2.21a1.417,1.417,0,0,1,1.413-1.413h15.018a1.417,1.417,0,0,1,1.413,1.413v2.21A1.417,1.417,0,0,1,350.248,359.911Z" transform="translate(-333.817 -354.875)" fill="#ffa200" fill-rule="evenodd"/>
          <path id="Trazado_1037285" data-name="Trazado 1037285" d="M335.23,407.8h15.018a1.417,1.417,0,0,0,1.413-1.413v-2.21a1.417,1.417,0,0,0-1.413-1.413H335.23a1.417,1.417,0,0,0-1.413,1.413v2.21A1.417,1.417,0,0,0,335.23,407.8Z" transform="translate(-333.817 -397.728)" fill="#ffc328" fill-rule="evenodd"/>
        </g>
        <g id="Grupo_1177763" data-name="Grupo 1177763" transform="translate(33.9 20.455)">
          <circle id="Elipse_12509" data-name="Elipse 12509" cx="8.922" cy="8.922" r="8.922" transform="translate(0 17.827) rotate(-88.108)" fill="#ffd54f"/>
          <circle id="Elipse_12510" data-name="Elipse 12510" cx="6.254" cy="6.254" r="6.254" transform="translate(2.98 2.943)" fill="#ffb700"/>
        </g>
      </g>
      <path id="Trazado_1037286" data-name="Trazado 1037286" d="M42.477,34.878a2.231,2.231,0,0,1,1.658-2.2v-.347a.789.789,0,1,1,1.577,0v.377a2.308,2.308,0,0,1,1.515,2.165.789.789,0,1,1-1.577,0,.728.728,0,0,0-.727-.727c-.145,0-.868.035-.868.727s.723.727.868.727a2.3,2.3,0,0,1,2.446,2.3,2.232,2.232,0,0,1-1.657,2.2v.347a.789.789,0,1,1-1.577,0v-.377a2.309,2.309,0,0,1-1.516-2.166.789.789,0,0,1,1.578,0,.728.728,0,0,0,.727.727c.145,0,.868-.035.868-.727s-.724-.726-.868-.726A2.3,2.3,0,0,1,42.477,34.878Zm2.446-3.949a5.465,5.465,0,1,0,5.465,5.465A5.471,5.471,0,0,0,44.923,30.929Zm0,12.508a7.043,7.043,0,1,0-7.043-7.043A7.051,7.051,0,0,0,44.923,43.437Zm8.133,12.906a.626.626,0,0,1-.625.625H37.414a.625.625,0,0,1-.624-.625V54.135a.625.625,0,0,1,.624-.625H52.432a.625.625,0,0,1,.625.625ZM2.578,50.986V7.975a.443.443,0,0,1,.886,0V49.753a.789.789,0,0,0,.789.789H35.212v.766c0,.041,0,.081.006.121H3.021a.444.444,0,0,1-.443-.443ZM33.273,20.4V44.825h1.939v-.763a2.2,2.2,0,0,1,1.725-2.149,9.691,9.691,0,0,1-.064-10.944V20.4Zm11.651,7.857a8.133,8.133,0,1,0,8.133,8.133,8.143,8.143,0,0,0-8.133-8.133ZM41.643,16.888h3.6v9.8c-.106,0-.212-.006-.319-.006a9.67,9.67,0,0,0-3.281.57ZM53.057,46.271a.625.625,0,0,1-.625.624H37.414a.625.625,0,0,1-.624-.624v-2.21a.625.625,0,0,1,.624-.624h.83a9.694,9.694,0,0,0,13.358,0h.83a.625.625,0,0,1,.625.624v2.21Zm0,2.827v2.21a.625.625,0,0,1-.625.624H37.414a.625.625,0,0,1-.624-.624V49.1a.625.625,0,0,1,.624-.625H52.432A.625.625,0,0,1,53.057,49.1Zm-.147-7.185A9.706,9.706,0,0,0,46.82,26.87V16.1a.789.789,0,0,0-.789-.789H40.855a.789.789,0,0,0-.789.789v11.89a9.75,9.75,0,0,0-1.615,1.174V19.615a.789.789,0,0,0-.789-.789H32.484a.789.789,0,0,0-.789.789v26a.789.789,0,0,0,.789.789h2.734a2.2,2.2,0,0,0,.509,1.282,2.19,2.19,0,0,0-.509,1.28H5.041V7.975A2.021,2.021,0,1,0,1,7.975V50.986a2.023,2.023,0,0,0,2.021,2.02H35.527a2.178,2.178,0,0,0-.314,1.128v2.209a2.2,2.2,0,0,0,2.2,2.2H52.432a2.2,2.2,0,0,0,2.2-2.2V54.135a2.193,2.193,0,0,0-.515-1.414,2.194,2.194,0,0,0,.515-1.413V49.1a2.193,2.193,0,0,0-.515-1.414,2.194,2.194,0,0,0,.515-1.413v-2.21a2.2,2.2,0,0,0-1.725-2.149ZM9.365,24.342a.789.789,0,0,0,1.113.08l7.964-6.892,7.443,3.9a.789.789,0,0,0,.879-.1l8.728-7.469,6.437-2.7-.543,1.23a.789.789,0,0,0,1.444.637L44.165,10a.789.789,0,0,0-.4-1.04L40.738,7.628A.789.789,0,0,0,40.1,9.071l1.33.587-6.663,2.8a.792.792,0,0,0-.208.128l-8.415,7.2-7.447-3.9a.79.79,0,0,0-.882.1l-8.37,7.244a.789.789,0,0,0-.08,1.113Zm-1.2,6.7v13.78h3.6V31.045ZM7.372,46.4h5.177a.788.788,0,0,0,.789-.789V30.256a.788.788,0,0,0-.789-.789H7.372a.789.789,0,0,0-.789.789V45.614A.789.789,0,0,0,7.372,46.4Zm12.76-1.578V23.8h-3.6V44.825Zm-4.389-22.6a.788.788,0,0,0-.789.789v22.6a.788.788,0,0,0,.789.789H20.92a.789.789,0,0,0,.789-.789v-22.6a.789.789,0,0,0-.789-.789H15.743ZM28.5,44.825V27.952H24.9V44.825Zm-4.389-18.45a.789.789,0,0,0-.789.789V45.614a.789.789,0,0,0,.789.789H29.29a.789.789,0,0,0,.789-.789V27.164a.789.789,0,0,0-.789-.789Z" transform="translate(0 0)" fill-rule="evenodd"/>
    </g>
  </g>
</svg>
